<svg width="892" height="98" viewBox="0 0 892 98" fill="none" xmlns="http://www.w3.org/2000/svg">
<path d="M785.655 48.9832C790.18 48.9832 794.607 47.6593 798.399 45.1727C802.19 42.6861 805.182 39.1439 807.01 34.9771C808.838 30.8103 809.424 26.1984 808.696 21.7027C807.968 17.2069 805.958 13.021 802.91 9.65422C799.862 6.28745 795.907 3.88494 791.528 2.73898C787.148 1.59302 782.532 1.75302 778.241 3.1995C773.951 4.64599 770.17 7.3166 767.359 10.8864C764.548 14.4563 763.689 15.9985 762.309 20.7832C761.461 25.4832 762.474 29.1916 763.943 31.8755C765.413 34.5594 767.761 36.6475 770.588 37.784C773.415 38.9205 776.546 39.0351 779.448 38.1082C782.349 37.1813 784.842 35.2704 786.501 32.7009C788.16 30.1314 788.882 27.0625 788.545 24.0169C788.208 20.9713 786.833 18.1376 784.653 15.9985C782.473 13.8595 779.624 12.5475 776.59 12.286C773.557 12.0246 770.374 13.0922 768.252 14.8013" stroke="black" stroke-width="3" stroke-linecap="round"/>
<path d="M785.655 48.9832C790.18 48.9832 794.607 50.307 798.399 52.7936C802.19 55.2802 805.182 58.8224 807.01 62.9892C808.838 67.156 809.424 71.7679 808.696 76.2636C807.968 80.7594 805.958 84.9453 802.91 88.3121C799.862 91.6789 795.907 94.0814 791.528 95.2273C787.148 96.3733 782.532 96.2133 778.241 94.7668C773.951 93.3203 770.17 90.6497 767.359 87.0799C764.548 83.51 763.689 81.9678 762.309 77.1832C761.461 72.4832 762.474 68.7747 763.943 66.0908C765.413 63.4069 767.761 61.3188 770.588 60.1823C773.415 59.0458 776.546 58.9312 779.448 59.8581C782.349 60.785 784.842 62.6959 786.501 65.2654C788.16 67.8349 788.882 70.9038 788.545 73.9494C788.208 76.995 786.833 79.8287 784.653 81.9678C782.473 84.1068 779.624 85.4188 776.59 85.6803C773.557 85.9417 770.374 84.8741 768.252 83.165" stroke="black" stroke-width="3" stroke-linecap="round"/>
<path d="M785 48.9832L750 48.9832" stroke="black" stroke-width="3" stroke-linecap="round"/>
<path d="M729 48.9832L162 48.9832" stroke="black" stroke-width="3" stroke-linecap="round"/>
<circle cx="739.5" cy="48.4832" r="9" stroke="black" stroke-width="3"/>
<path d="M840.5 9.98315C842.1 39.5832 805.167 48.4832 794 48.9832C805.167 49.4832 842.1 58.3832 840.5 87.9832C849 84.9832 853.5 68.4832 849 58.9832C856.667 59.6498 883.1 58.5832 889.5 48.9832C883.1 39.3832 856.667 38.3165 849 38.9832C853.5 29.4832 849 12.9832 840.5 9.98315Z" stroke="black" stroke-width="3"/>
<path d="M785.655 48.9832C790.18 48.9832 794.607 47.6593 798.399 45.1727C802.19 42.6861 805.182 39.1439 807.01 34.9771C808.838 30.8103 809.424 26.1984 808.696 21.7027C807.968 17.2069 805.958 13.021 802.91 9.65422C799.862 6.28745 795.907 3.88494 791.528 2.73898C787.148 1.59302 782.532 1.75302 778.241 3.1995C773.951 4.64599 770.17 7.3166 767.359 10.8864C764.548 14.4563 763.689 15.9985 762.309 20.7832C761.461 25.4832 762.474 29.1916 763.943 31.8755C765.413 34.5594 767.761 36.6475 770.588 37.784C773.415 38.9205 776.546 39.0351 779.448 38.1082C782.349 37.1813 784.842 35.2704 786.501 32.7009C788.16 30.1314 788.882 27.0625 788.545 24.0169C788.208 20.9713 786.833 18.1376 784.653 15.9985C782.473 13.8595 779.624 12.5475 776.59 12.286C773.557 12.0246 770.374 13.0922 768.252 14.8013" stroke="black" stroke-width="3" stroke-linecap="round"/>
<path d="M785.655 48.9832C790.18 48.9832 794.607 50.307 798.399 52.7936C802.19 55.2802 805.182 58.8224 807.01 62.9892C808.838 67.156 809.424 71.7679 808.696 76.2636C807.968 80.7594 805.958 84.9453 802.91 88.3121C799.862 91.6789 795.907 94.0814 791.528 95.2273C787.148 96.3733 782.532 96.2133 778.241 94.7668C773.951 93.3203 770.17 90.6497 767.359 87.0799C764.548 83.51 763.689 81.9678 762.309 77.1832C761.461 72.4832 762.474 68.7747 763.943 66.0908C765.413 63.4069 767.761 61.3188 770.588 60.1823C773.415 59.0458 776.546 58.9312 779.448 59.8581C782.349 60.785 784.842 62.6959 786.501 65.2654C788.16 67.8349 788.882 70.9038 788.545 73.9494C788.208 76.995 786.833 79.8287 784.653 81.9678C782.473 84.1068 779.624 85.4188 776.59 85.6803C773.557 85.9417 770.374 84.8741 768.252 83.165" stroke="black" stroke-width="3" stroke-linecap="round"/>
<path d="M785 48.9832L750 48.9832" stroke="black" stroke-width="3" stroke-linecap="round"/>
<circle cx="739.5" cy="48.4832" r="9" stroke="black" stroke-width="3"/>
<path d="M840.5 9.98315C842.1 39.5832 805.167 48.4832 794 48.9832C805.167 49.4832 842.1 58.3832 840.5 87.9832C849 84.9832 853.5 68.4832 849 58.9832C856.667 59.6498 883.1 58.5832 889.5 48.9832C883.1 39.3832 856.667 38.3165 849 38.9832C853.5 29.4832 849 12.9832 840.5 9.98315Z" stroke="black" stroke-width="3"/>
<path d="M105.845 48.9832C101.32 48.9832 96.8926 50.307 93.1012 52.7936C89.3098 55.2802 86.3181 58.8224 84.49 62.9892C82.6618 67.156 82.0761 71.7679 82.8041 76.2636C83.532 80.7594 85.5423 84.9453 88.5903 88.3121C91.6383 91.6789 95.5926 94.0814 99.9721 95.2273C104.352 96.3733 108.968 96.2133 113.259 94.7668C117.549 93.3203 121.33 90.6497 124.141 87.0799C126.952 83.51 127.811 81.9678 129.191 77.1832C130.039 72.4832 129.026 68.7747 127.557 66.0908C126.087 63.4069 123.739 61.3188 120.912 60.1823C118.085 59.0458 114.954 58.9312 112.052 59.8581C109.151 60.785 106.658 62.6959 104.999 65.2654C103.34 67.8349 102.618 70.9038 102.955 73.9494C103.292 76.995 104.667 79.8287 106.847 81.9678C109.027 84.1068 111.876 85.4188 114.91 85.6803C117.943 85.9417 121.126 84.8741 123.248 83.165" stroke="black" stroke-width="3" stroke-linecap="round"/>
<path d="M105.845 48.9832C101.32 48.9832 96.8926 47.6593 93.1012 45.1727C89.3098 42.6861 86.3181 39.1439 84.49 34.9771C82.6618 30.8103 82.0761 26.1984 82.8041 21.7027C83.532 17.2069 85.5423 13.021 88.5903 9.65422C91.6383 6.28745 95.5926 3.88494 99.9721 2.73898C104.352 1.59302 108.968 1.75302 113.259 3.1995C117.549 4.64599 121.33 7.3166 124.141 10.8864C126.952 14.4563 127.811 15.9985 129.191 20.7832C130.039 25.4832 129.026 29.1916 127.557 31.8755C126.087 34.5594 123.739 36.6475 120.912 37.784C118.085 38.9205 114.954 39.0351 112.052 38.1082C109.151 37.1813 106.658 35.2704 104.999 32.7009C103.34 30.1314 102.618 27.0625 102.955 24.0169C103.292 20.9713 104.667 18.1376 106.847 15.9985C109.027 13.8595 111.876 12.5475 114.91 12.286C117.943 12.0246 121.126 13.0922 123.248 14.8013" stroke="black" stroke-width="3" stroke-linecap="round"/>
<path d="M106.5 48.9832L141.5 48.9832" stroke="black" stroke-width="3" stroke-linecap="round"/>
<circle cx="152" cy="49.4832" r="9" transform="rotate(180 152 49.4832)" stroke="black" stroke-width="3"/>
<path d="M51 87.9832C49.4 58.3832 86.3333 49.4832 97.5 48.9832C86.3333 48.4832 49.4 39.5832 51 9.98315C42.5 12.9832 38 29.4832 42.5 38.9832C34.8333 38.3165 8.4 39.3832 2 48.9832C8.4 58.5832 34.8333 59.6498 42.5 58.9832C38 68.4832 42.5 84.9832 51 87.9832Z" stroke="black" stroke-width="3"/>
</svg>
