<svg width="275" height="155" viewBox="0 0 275 155" fill="none" xmlns="http://www.w3.org/2000/svg">
<g clip-path="url(#clip0_114_78)">
<rect width="275" height="155" rx="15" fill="#A6EF9A" style="fill:#A6EF9A;fill:color(display-p3 0.6510 0.9373 0.6039);fill-opacity:1;"/>
<path d="M107.46 9.38574H126.257V18.7725H135.655V28.1328H144.627V18.7725H153.812V9.38574H171.968V0H201.445V9.38574H220.028V18.7725H229V65.915H220.028V73.3818H209.748V92.2324H200.377V103.032H191.619V120.098H181.794V129.91H172.822V139.724H163.424V149.536H152.049V160H127.289V149.536H116.004V139.724H105.751V129.91H96.7793V120.098H86.9541V103.032H78.1963V92.2324H67.6484V73.3818H58.3311V65.915H50V18.7725H58.3311V9.38574H78.1963V0H107.46V9.38574Z" fill="white" style="fill:white;fill-opacity:1;"/>
<path d="M35.2992 108.206H30.0448C30.0468 108.254 30.0488 108.303 30.0488 108.351C30.0488 108.399 30.0468 108.447 30.0448 108.496H35.2992C35.3829 108.496 35.4505 108.431 35.4505 108.351C35.4505 108.271 35.3829 108.206 35.2992 108.206Z" fill="#070602" style="fill:#070602;fill:color(display-p3 0.0275 0.0235 0.0078);fill-opacity:1;"/>
<path d="M23.4057 108.206H18.1513C18.0676 108.206 18 108.271 18 108.351C18 108.431 18.0676 108.496 18.1513 108.496H23.4057C23.4037 108.447 23.4017 108.399 23.4017 108.351C23.4017 108.303 23.4037 108.254 23.4057 108.206Z" fill="#070602" style="fill:#070602;fill:color(display-p3 0.0275 0.0235 0.0078);fill-opacity:1;"/>
<path d="M26.876 105.173V100.145C26.876 100.065 26.8085 100 26.7248 100C26.6411 100 26.5735 100.065 26.5735 100.145V105.173C26.6239 105.172 26.6743 105.17 26.7248 105.17C26.7752 105.17 26.8256 105.172 26.876 105.173Z" fill="#070602" style="fill:#070602;fill:color(display-p3 0.0275 0.0235 0.0078);fill-opacity:1;"/>
<path d="M26.5735 111.527V116.556C26.5735 116.636 26.6411 116.701 26.7248 116.701C26.8085 116.701 26.876 116.636 26.876 116.556V111.527C26.8256 111.529 26.7752 111.531 26.7248 111.531C26.6743 111.531 26.6239 111.529 26.5735 111.527Z" fill="#070602" style="fill:#070602;fill:color(display-p3 0.0275 0.0235 0.0078);fill-opacity:1;"/>
<path d="M29.1795 106.206L32.8949 102.65C32.9544 102.593 32.9544 102.502 32.8949 102.446C32.8354 102.389 32.7396 102.389 32.6811 102.446L28.9657 106.002C29.0403 106.066 29.1119 106.135 29.1795 106.206Z" fill="#070602" style="fill:#070602;fill:color(display-p3 0.0275 0.0235 0.0078);fill-opacity:1;"/>
<path d="M24.2709 110.495L20.5555 114.05C20.496 114.107 20.496 114.199 20.5555 114.255C20.5847 114.283 20.6241 114.298 20.6624 114.298C20.7007 114.298 20.7401 114.283 20.7693 114.255L24.4847 110.699C24.4101 110.635 24.3385 110.566 24.2709 110.495Z" fill="#070602" style="fill:#070602;fill:color(display-p3 0.0275 0.0235 0.0078);fill-opacity:1;"/>
<path d="M28.9657 110.699L32.6811 114.255C32.7104 114.283 32.7497 114.298 32.788 114.298C32.8263 114.298 32.8657 114.283 32.8949 114.255C32.9544 114.198 32.9544 114.106 32.8949 114.05L29.1795 110.495C29.1119 110.566 29.0403 110.635 28.9657 110.699Z" fill="#070602" style="fill:#070602;fill:color(display-p3 0.0275 0.0235 0.0078);fill-opacity:1;"/>
<path d="M24.4847 106.002L20.7693 102.446C20.7098 102.389 20.614 102.389 20.5555 102.446C20.496 102.503 20.496 102.594 20.5555 102.65L24.2709 106.206C24.3385 106.135 24.4101 106.066 24.4847 106.002Z" fill="#070602" style="fill:#070602;fill:color(display-p3 0.0275 0.0235 0.0078);fill-opacity:1;"/>
<path d="M257.299 20.2061H252.045C252.047 20.2543 252.049 20.3026 252.049 20.3508C252.049 20.3991 252.047 20.4474 252.045 20.4956H257.299C257.383 20.4956 257.451 20.4309 257.451 20.3508C257.451 20.2707 257.383 20.2061 257.299 20.2061Z" fill="#070602" style="fill:#070602;fill:color(display-p3 0.0275 0.0235 0.0078);fill-opacity:1;"/>
<path d="M245.406 20.2061H240.151C240.068 20.2061 240 20.2707 240 20.3508C240 20.4309 240.068 20.4956 240.151 20.4956H245.406C245.404 20.4474 245.402 20.3991 245.402 20.3508C245.402 20.3026 245.404 20.2543 245.406 20.2061Z" fill="#070602" style="fill:#070602;fill:color(display-p3 0.0275 0.0235 0.0078);fill-opacity:1;"/>
<path d="M248.876 17.1735V12.1448C248.876 12.0647 248.808 12 248.725 12C248.641 12 248.573 12.0647 248.573 12.1448V17.1735C248.624 17.1715 248.674 17.1696 248.725 17.1696C248.775 17.1696 248.826 17.1715 248.876 17.1735Z" fill="#070602" style="fill:#070602;fill:color(display-p3 0.0275 0.0235 0.0078);fill-opacity:1;"/>
<path d="M248.573 23.5273V28.556C248.573 28.6361 248.641 28.7008 248.725 28.7008C248.808 28.7008 248.876 28.6361 248.876 28.556V23.5273C248.826 23.5293 248.775 23.5312 248.725 23.5312C248.674 23.5312 248.624 23.5293 248.573 23.5273Z" fill="#070602" style="fill:#070602;fill:color(display-p3 0.0275 0.0235 0.0078);fill-opacity:1;"/>
<path d="M251.18 18.2062L254.895 14.6504C254.954 14.5935 254.954 14.5018 254.895 14.4458C254.835 14.3888 254.74 14.3888 254.681 14.4458L250.966 18.0016C251.04 18.0662 251.112 18.1348 251.18 18.2062Z" fill="#070602" style="fill:#070602;fill:color(display-p3 0.0275 0.0235 0.0078);fill-opacity:1;"/>
<path d="M246.271 22.4946L242.555 26.0504C242.496 26.1074 242.496 26.1991 242.555 26.255C242.585 26.283 242.624 26.2975 242.662 26.2975C242.701 26.2975 242.74 26.283 242.769 26.255L246.485 22.6993C246.41 22.6346 246.338 22.5661 246.271 22.4946Z" fill="#070602" style="fill:#070602;fill:color(display-p3 0.0275 0.0235 0.0078);fill-opacity:1;"/>
<path d="M250.966 22.6993L254.681 26.255C254.71 26.283 254.75 26.2975 254.788 26.2975C254.826 26.2975 254.866 26.283 254.895 26.255C254.954 26.1981 254.954 26.1064 254.895 26.0504L251.18 22.4946C251.112 22.5661 251.04 22.6346 250.966 22.6993Z" fill="#070602" style="fill:#070602;fill:color(display-p3 0.0275 0.0235 0.0078);fill-opacity:1;"/>
<path d="M246.485 18.0016L242.769 14.4458C242.71 14.3888 242.614 14.3888 242.555 14.4458C242.496 14.5027 242.496 14.5944 242.555 14.6504L246.271 18.2062C246.338 18.1348 246.41 18.0662 246.485 18.0016Z" fill="#070602" style="fill:#070602;fill:color(display-p3 0.0275 0.0235 0.0078);fill-opacity:1;"/>
<path d="M149.922 43.9309H147.212C147.213 43.954 147.214 43.9771 147.214 44.0003C147.214 44.0234 147.213 44.0465 147.212 44.0696H149.922C149.965 44.0696 150 44.0386 150 44.0003C150 43.9619 149.965 43.9309 149.922 43.9309Z" fill="#070602" style="fill:#070602;fill:color(display-p3 0.0275 0.0235 0.0078);fill-opacity:1;"/>
<path d="M143.788 43.9309H141.078C141.035 43.9309 141 43.9619 141 44.0003C141 44.0386 141.035 44.0696 141.078 44.0696H143.788C143.787 44.0465 143.786 44.0234 143.786 44.0003C143.786 43.9771 143.787 43.954 143.788 43.9309Z" fill="#070602" style="fill:#070602;fill:color(display-p3 0.0275 0.0235 0.0078);fill-opacity:1;"/>
<path d="M145.578 42.4782V40.0694C145.578 40.031 145.543 40 145.5 40C145.457 40 145.422 40.031 145.422 40.0694V42.4782C145.448 42.4773 145.474 42.4763 145.5 42.4763C145.526 42.4763 145.552 42.4773 145.578 42.4782Z" fill="#070602" style="fill:#070602;fill:color(display-p3 0.0275 0.0235 0.0078);fill-opacity:1;"/>
<path d="M145.422 45.5217V47.9306C145.422 47.9689 145.457 47.9999 145.5 47.9999C145.543 47.9999 145.578 47.9689 145.578 47.9306V45.5217C145.552 45.5227 145.526 45.5236 145.5 45.5236C145.474 45.5236 145.448 45.5227 145.422 45.5217Z" fill="#070602" style="fill:#070602;fill:color(display-p3 0.0275 0.0235 0.0078);fill-opacity:1;"/>
<path d="M146.766 42.9729L148.682 41.2696C148.713 41.2423 148.713 41.1984 148.682 41.1716C148.651 41.1443 148.602 41.1443 148.572 41.1716L146.656 42.8749C146.694 42.9058 146.731 42.9387 146.766 42.9729Z" fill="#070602" style="fill:#070602;fill:color(display-p3 0.0275 0.0235 0.0078);fill-opacity:1;"/>
<path d="M144.234 45.0271L142.318 46.7304C142.287 46.7577 142.287 46.8016 142.318 46.8284C142.333 46.8418 142.353 46.8487 142.373 46.8487C142.393 46.8487 142.413 46.8418 142.428 46.8284L144.344 45.1251C144.306 45.0941 144.269 45.0613 144.234 45.0271Z" fill="#070602" style="fill:#070602;fill:color(display-p3 0.0275 0.0235 0.0078);fill-opacity:1;"/>
<path d="M146.656 45.1251L148.572 46.8284C148.587 46.8418 148.607 46.8487 148.627 46.8487C148.647 46.8487 148.667 46.8418 148.682 46.8284C148.713 46.8011 148.713 46.7572 148.682 46.7304L146.766 45.0271C146.731 45.0613 146.694 45.0941 146.656 45.1251Z" fill="#070602" style="fill:#070602;fill:color(display-p3 0.0275 0.0235 0.0078);fill-opacity:1;"/>
<path d="M144.344 42.8749L142.428 41.1716C142.398 41.1443 142.348 41.1443 142.318 41.1716C142.287 41.1989 142.287 41.2428 142.318 41.2696L144.234 42.9729C144.269 42.9387 144.306 42.9058 144.344 42.8749Z" fill="#070602" style="fill:#070602;fill:color(display-p3 0.0275 0.0235 0.0078);fill-opacity:1;"/>
<path d="M90.9105 22.8772H85.2672C85.2694 22.929 85.2715 22.9809 85.2715 23.0327C85.2715 23.0845 85.2694 23.1364 85.2672 23.1882H90.9105C91.0004 23.1882 91.0729 23.1187 91.0729 23.0327C91.0729 22.9467 91.0004 22.8772 90.9105 22.8772Z" fill="#070602" style="fill:#070602;fill:color(display-p3 0.0275 0.0235 0.0078);fill-opacity:1;"/>
<path d="M78.1368 22.8772H72.4935C72.4036 22.8772 72.3311 22.9467 72.3311 23.0327C72.3311 23.1187 72.4036 23.1882 72.4935 23.1882H78.1368C78.1346 23.1364 78.1324 23.0845 78.1324 23.0327C78.1324 22.9809 78.1346 22.929 78.1368 22.8772Z" fill="#070602" style="fill:#070602;fill:color(display-p3 0.0275 0.0235 0.0078);fill-opacity:1;"/>
<path d="M81.8639 19.62V14.2192C81.8639 14.1332 81.7913 14.0637 81.7014 14.0637C81.6115 14.0637 81.5389 14.1332 81.5389 14.2192V19.62C81.5931 19.6179 81.6473 19.6159 81.7014 19.6159C81.7556 19.6159 81.8097 19.6179 81.8639 19.62Z" fill="#070602" style="fill:#070602;fill:color(display-p3 0.0275 0.0235 0.0078);fill-opacity:1;"/>
<path d="M81.5389 26.4443V31.8451C81.5389 31.9312 81.6115 32.0006 81.7014 32.0006C81.7913 32.0006 81.8639 31.9312 81.8639 31.8451V26.4443C81.8097 26.4464 81.7556 26.4485 81.7014 26.4485C81.6473 26.4485 81.5931 26.4464 81.5389 26.4443Z" fill="#070602" style="fill:#070602;fill:color(display-p3 0.0275 0.0235 0.0078);fill-opacity:1;"/>
<path d="M84.3378 20.7293L88.3281 16.9104C88.392 16.8492 88.392 16.7508 88.3281 16.6906C88.2642 16.6295 88.1613 16.6295 88.0985 16.6906L84.1082 20.5096C84.1883 20.579 84.2652 20.6526 84.3378 20.7293Z" fill="#070602" style="fill:#070602;fill:color(display-p3 0.0275 0.0235 0.0078);fill-opacity:1;"/>
<path d="M79.0659 25.335L75.0755 29.1539C75.0116 29.215 75.0116 29.3135 75.0755 29.3736C75.1069 29.4037 75.1492 29.4193 75.1903 29.4193C75.2315 29.4193 75.2737 29.4037 75.3051 29.3736L79.2955 25.5547C79.2153 25.4853 79.1384 25.4117 79.0659 25.335Z" fill="#070602" style="fill:#070602;fill:color(display-p3 0.0275 0.0235 0.0078);fill-opacity:1;"/>
<path d="M84.1082 25.5547L88.0985 29.3736C88.1299 29.4037 88.1722 29.4193 88.2133 29.4193C88.2545 29.4193 88.2967 29.4037 88.3281 29.3736C88.392 29.3125 88.392 29.214 88.3281 29.1539L84.3378 25.335C84.2652 25.4117 84.1883 25.4853 84.1082 25.5547Z" fill="#070602" style="fill:#070602;fill:color(display-p3 0.0275 0.0235 0.0078);fill-opacity:1;"/>
<path d="M79.2955 20.5096L75.3051 16.6906C75.2412 16.6295 75.1383 16.6295 75.0755 16.6906C75.0116 16.7518 75.0116 16.8503 75.0755 16.9104L79.0659 20.7293C79.1384 20.6526 79.2153 20.579 79.2955 20.5096Z" fill="#070602" style="fill:#070602;fill:color(display-p3 0.0275 0.0235 0.0078);fill-opacity:1;"/>
<path d="M190.831 64.7112H184.967C184.969 64.765 184.971 64.8189 184.971 64.8728C184.971 64.9266 184.969 64.9805 184.967 65.0344H190.831C190.924 65.0344 191 64.9622 191 64.8728C191 64.7834 190.924 64.7112 190.831 64.7112Z" fill="#070602" style="fill:#070602;fill:color(display-p3 0.0275 0.0235 0.0078);fill-opacity:1;"/>
<path d="M177.557 64.7112H171.692C171.599 64.7112 171.523 64.7834 171.523 64.8728C171.523 64.9622 171.599 65.0344 171.692 65.0344H177.557C177.555 64.9805 177.552 64.9266 177.552 64.8728C177.552 64.8189 177.555 64.765 177.557 64.7112Z" fill="#070602" style="fill:#070602;fill:color(display-p3 0.0275 0.0235 0.0078);fill-opacity:1;"/>
<path d="M181.43 61.3264V55.7138C181.43 55.6244 181.355 55.5522 181.261 55.5522C181.168 55.5522 181.092 55.6244 181.092 55.7138V61.3264C181.149 61.3242 181.205 61.3221 181.261 61.3221C181.318 61.3221 181.374 61.3242 181.43 61.3264Z" fill="#070602" style="fill:#070602;fill:color(display-p3 0.0275 0.0235 0.0078);fill-opacity:1;"/>
<path d="M181.092 68.418V74.0305C181.092 74.1199 181.168 74.1921 181.261 74.1921C181.355 74.1921 181.43 74.1199 181.43 74.0305V68.418C181.374 68.4201 181.318 68.4223 181.261 68.4223C181.205 68.4223 181.149 68.4201 181.092 68.418Z" fill="#070602" style="fill:#070602;fill:color(display-p3 0.0275 0.0235 0.0078);fill-opacity:1;"/>
<path d="M184.001 62.4791L188.148 58.5104C188.214 58.4469 188.214 58.3445 188.148 58.282C188.081 58.2185 187.974 58.2185 187.909 58.282L183.762 62.2507C183.846 62.3229 183.925 62.3993 184.001 62.4791Z" fill="#070602" style="fill:#070602;fill:color(display-p3 0.0275 0.0235 0.0078);fill-opacity:1;"/>
<path d="M178.523 67.2651L174.376 71.2338C174.309 71.2973 174.309 71.3997 174.376 71.4622C174.408 71.4934 174.452 71.5096 174.495 71.5096C174.538 71.5096 174.582 71.4934 174.614 71.4622L178.761 67.4935C178.678 67.4213 178.598 67.3449 178.523 67.2651Z" fill="#070602" style="fill:#070602;fill:color(display-p3 0.0275 0.0235 0.0078);fill-opacity:1;"/>
<path d="M183.762 67.4935L187.909 71.4622C187.942 71.4934 187.986 71.5096 188.028 71.5096C188.071 71.5096 188.115 71.4934 188.148 71.4622C188.214 71.3986 188.214 71.2963 188.148 71.2338L184.001 67.2651C183.925 67.3449 183.846 67.4213 183.762 67.4935Z" fill="#070602" style="fill:#070602;fill:color(display-p3 0.0275 0.0235 0.0078);fill-opacity:1;"/>
<path d="M178.761 62.2507L174.614 58.282C174.548 58.2185 174.441 58.2185 174.376 58.282C174.309 58.3456 174.309 58.4479 174.376 58.5104L178.523 62.4791C178.598 62.3993 178.678 62.3229 178.761 62.2507Z" fill="#070602" style="fill:#070602;fill:color(display-p3 0.0275 0.0235 0.0078);fill-opacity:1;"/>
<path d="M26.9591 8.18994C26.7111 8.18994 26.4631 8.09501 26.2831 7.90515C25.9396 7.54828 25.9653 6.991 26.3382 6.66401L33.6527 0.231553C34.0256 -0.0971898 34.6079 -0.0725782 34.9496 0.284292C35.2931 0.641163 35.2673 1.19844 34.8945 1.52719L27.5799 7.95965C27.4036 8.11435 27.1813 8.1917 26.9591 8.1917V8.18994Z" fill="#070602" style="fill:#070602;fill:color(display-p3 0.0275 0.0235 0.0078);fill-opacity:1;"/>
<path d="M143.419 21.2799C143.164 21.2799 142.911 21.178 142.729 20.9811C142.394 20.6154 142.431 20.0617 142.813 19.7399L151.318 12.599C151.7 12.2791 152.281 12.316 152.615 12.6799C152.949 13.0455 152.912 13.5993 152.53 13.921L144.026 21.0619C143.851 21.2079 143.636 21.2799 143.419 21.2799Z" fill="#FFDFFE" style="fill:#FFDFFE;fill:color(display-p3 1.0000 0.8753 0.9950);fill-opacity:1;"/>
<path d="M185.474 6.76609C185.291 6.76609 185.103 6.71335 184.942 6.60259L177.603 1.5941C177.19 1.31282 177.094 0.762576 177.388 0.368788C177.682 -0.0267581 178.257 -0.118173 178.669 0.163104L186.007 5.1716C186.42 5.45287 186.516 6.00312 186.222 6.39691C186.042 6.63775 185.761 6.76609 185.472 6.76609H185.474Z" fill="#2461FF" style="fill:#2461FF;fill:color(display-p3 0.1412 0.3804 1.0000);fill-opacity:1;"/>
<path d="M50.7043 20.6151C51.7954 19.5709 51.7954 17.8779 50.7043 16.8336C49.6132 15.7894 47.8442 15.7894 46.7531 16.8336C45.662 17.8779 45.662 19.5709 46.7531 20.6151C47.8442 21.6593 49.6132 21.6593 50.7043 20.6151Z" fill="white" style="fill:white;fill-opacity:1;"/>
<path d="M27.9268 66.4984C29.0179 65.4542 29.0179 63.7612 27.9268 62.7169C26.8357 61.6727 25.0667 61.6727 23.9756 62.7169C22.8845 63.7612 22.8845 65.4542 23.9756 66.4984C25.0667 67.5426 26.8357 67.5426 27.9268 66.4984Z" fill="#EDFF20" style="fill:#EDFF20;fill:color(display-p3 0.9301 1.0000 0.1260);fill-opacity:1;"/>
<path d="M174.371 29.0068C175.639 29.0068 176.667 28.0229 176.667 26.8093C176.667 25.5957 175.639 24.6118 174.371 24.6118C173.102 24.6118 172.074 25.5957 172.074 26.8093C172.074 28.0229 173.102 29.0068 174.371 29.0068Z" fill="#A041FF" style="fill:#A041FF;fill:color(display-p3 0.6277 0.2554 1.0000);fill-opacity:1;"/>
<path d="M26.9591 141.972C26.7111 141.972 26.4631 141.877 26.2831 141.688C25.9396 141.331 25.9653 140.773 26.3382 140.446L33.6527 134.014C34.0256 133.685 34.6079 133.71 34.9496 134.067C35.2931 134.424 35.2673 134.981 34.8945 135.31L27.5799 141.742C27.4036 141.897 27.1813 141.974 26.9591 141.974V141.972Z" fill="#2761FF" style="fill:#2761FF;fill:color(display-p3 0.1529 0.3804 1.0000);fill-opacity:1;"/>
<path d="M146.726 150.944C146.471 150.944 146.217 150.842 146.035 150.645C145.701 150.279 145.738 149.725 146.12 149.404L154.625 142.263C155.007 141.943 155.587 141.98 155.921 142.344C156.256 142.709 156.219 143.263 155.837 143.585L147.332 150.726C147.158 150.872 146.943 150.944 146.726 150.944Z" fill="#FFDFFE" style="fill:#FFDFFE;fill:color(display-p3 1.0000 0.8753 0.9950);fill-opacity:1;"/>
<path d="M82.6401 142.386C82.383 142.386 82.1258 142.283 81.9439 142.082L77.5133 137.169C77.1827 136.801 77.2249 136.246 77.6089 135.929C77.9928 135.613 78.5732 135.653 78.9039 136.021L83.3345 140.934C83.6651 141.302 83.6229 141.857 83.2389 142.174C83.0663 142.316 82.8514 142.386 82.6401 142.386Z" fill="#EDFF20" style="fill:#EDFF20;fill:color(display-p3 0.9301 1.0000 0.1260);fill-opacity:1;"/>
<path d="M185.474 140.549C185.291 140.549 185.103 140.496 184.942 140.385L177.603 135.377C177.19 135.095 177.094 134.545 177.388 134.151C177.682 133.756 178.257 133.664 178.669 133.946L186.007 138.954C186.42 139.235 186.516 139.786 186.222 140.179C186.042 140.42 185.761 140.549 185.472 140.549H185.474Z" fill="#070602" style="fill:#070602;fill:color(display-p3 0.0275 0.0235 0.0078);fill-opacity:1;"/>
<path d="M56.3986 153.936C57.4897 152.892 57.4897 151.199 56.3986 150.155C55.3075 149.111 53.5385 149.111 52.4474 150.155C51.3563 151.199 51.3563 152.892 52.4474 153.936C53.5385 154.981 55.3075 154.981 56.3986 153.936Z" fill="white" style="fill:white;fill-opacity:1;"/>
<path d="M122.019 142.397C123.287 142.397 124.315 141.413 124.315 140.199C124.315 138.986 123.287 138.002 122.019 138.002C120.751 138.002 119.723 138.986 119.723 140.199C119.723 141.413 120.751 142.397 122.019 142.397Z" fill="#A041FF" style="fill:#A041FF;fill:color(display-p3 0.6277 0.2554 1.0000);fill-opacity:1;"/>
<path d="M193.296 127.395C194.564 127.395 195.592 126.411 195.592 125.197C195.592 123.984 194.564 123 193.296 123C192.028 123 191 123.984 191 125.197C191 126.411 192.028 127.395 193.296 127.395Z" fill="#A041FF" style="fill:#A041FF;fill:color(display-p3 0.6277 0.2554 1.0000);fill-opacity:1;"/>
<path d="M118.827 26.0081C118.57 26.0081 118.313 25.9044 118.131 25.7039L113.7 20.7904C113.369 20.423 113.412 19.8674 113.796 19.551C114.18 19.2346 114.76 19.275 115.091 19.6424L119.521 24.556C119.852 24.9234 119.81 25.4789 119.426 25.7954C119.253 25.9378 119.038 26.0081 118.827 26.0081Z" fill="#EDFF20" style="fill:#EDFF20;fill:color(display-p3 0.9301 1.0000 0.1260);fill-opacity:1;"/>
<path d="M118.827 26.0081C118.57 26.0081 118.313 25.9044 118.131 25.7039L113.7 20.7904C113.369 20.423 113.412 19.8674 113.796 19.551C114.18 19.2346 114.76 19.275 115.091 19.6424L119.521 24.556C119.852 24.9234 119.81 25.4789 119.426 25.7954C119.253 25.9378 119.038 26.0081 118.827 26.0081Z" fill="#EDFF20" style="fill:#EDFF20;fill:color(display-p3 0.9301 1.0000 0.1260);fill-opacity:1;"/>
<path d="M95.7834 86.32C93.842 86.32 92.1354 85.8933 90.6634 85.04C89.2127 84.1867 88.082 82.9493 87.2714 81.328C86.4607 79.7067 86.0554 77.7547 86.0554 75.472C86.0554 73.2107 86.482 71.2693 87.3354 69.648C88.1887 68.0053 89.394 66.7467 90.9514 65.872C92.53 64.9973 94.354 64.56 96.4234 64.56C98.706 64.56 100.551 64.9867 101.959 65.84C103.367 66.672 104.487 67.9733 105.319 69.744L101.223 71.504C100.882 70.3733 100.295 69.5413 99.4634 69.008C98.6527 68.4533 97.65 68.176 96.4554 68.176C95.2607 68.176 94.226 68.464 93.3514 69.04C92.4767 69.5947 91.8047 70.416 91.3354 71.504C90.866 72.5707 90.6314 73.8827 90.6314 75.44C90.6314 77.04 90.8554 78.3947 91.3034 79.504C91.7514 80.592 92.4127 81.4133 93.2874 81.968C94.1834 82.5013 95.282 82.768 96.5834 82.768C97.2874 82.768 97.938 82.6827 98.5354 82.512C99.154 82.3413 99.6874 82.0853 100.135 81.744C100.583 81.4027 100.935 80.9653 101.191 80.432C101.447 79.8987 101.575 79.28 101.575 78.576V78.096H96.0394V74.864H105.383V86H102.279L101.959 81.392L102.727 81.936C102.258 83.344 101.426 84.432 100.231 85.2C99.058 85.9467 97.5754 86.32 95.7834 86.32ZM118.908 75.792C118.908 74.8747 118.642 74.16 118.108 73.648C117.596 73.136 116.914 72.88 116.06 72.88C115.271 72.88 114.578 73.0827 113.98 73.488C113.383 73.8933 112.946 74.5653 112.668 75.504L108.924 74.352C109.287 72.944 110.076 71.8133 111.292 70.96C112.53 70.1067 114.183 69.68 116.252 69.68C117.66 69.68 118.887 69.904 119.932 70.352C120.978 70.7787 121.788 71.4293 122.364 72.304C122.962 73.1787 123.26 74.2773 123.26 75.6V82.096C123.26 82.9067 123.644 83.312 124.412 83.312C124.775 83.312 125.116 83.2587 125.436 83.152L125.18 85.872C124.626 86.1493 123.932 86.288 123.1 86.288C122.354 86.288 121.682 86.16 121.084 85.904C120.487 85.648 120.018 85.264 119.676 84.752C119.335 84.2187 119.164 83.5573 119.164 82.768V82.64L119.932 82.512C119.804 83.3227 119.452 84.016 118.876 84.592C118.3 85.1467 117.596 85.5733 116.764 85.872C115.954 86.1707 115.111 86.32 114.236 86.32C113.148 86.32 112.21 86.16 111.42 85.84C110.631 85.4987 110.023 85.008 109.596 84.368C109.17 83.728 108.956 82.9387 108.956 82C108.956 80.8053 109.34 79.8347 110.108 79.088C110.876 78.32 111.975 77.7973 113.404 77.52L119.42 76.304L119.388 79.024L115.548 79.792C114.823 79.9413 114.268 80.144 113.884 80.4C113.522 80.6347 113.34 81.0293 113.34 81.584C113.34 82.1173 113.532 82.5227 113.916 82.8C114.322 83.0773 114.802 83.216 115.356 83.216C115.804 83.216 116.242 83.1627 116.668 83.056C117.095 82.9493 117.479 82.7787 117.82 82.544C118.162 82.3093 118.428 81.9893 118.62 81.584C118.812 81.1787 118.908 80.688 118.908 80.112V75.792ZM128.163 86V70H132.099L132.259 72.88C132.793 71.8133 133.518 71.0133 134.435 70.48C135.374 69.9467 136.409 69.68 137.539 69.68C138.691 69.68 139.726 69.9467 140.643 70.48C141.582 71.0133 142.286 71.8027 142.755 72.848C143.097 72.144 143.555 71.5573 144.131 71.088C144.707 70.6187 145.347 70.2667 146.051 70.032C146.755 69.7973 147.47 69.68 148.195 69.68C149.241 69.68 150.19 69.8933 151.043 70.32C151.918 70.7467 152.611 71.3867 153.123 72.24C153.635 73.0933 153.891 74.1813 153.891 75.504V86H149.507V76.368C149.507 75.1947 149.251 74.3627 148.739 73.872C148.227 73.3813 147.566 73.136 146.755 73.136C146.115 73.136 145.518 73.296 144.963 73.616C144.43 73.936 144.003 74.416 143.683 75.056C143.385 75.6747 143.235 76.4533 143.235 77.392V86H138.851V76.368C138.851 75.1947 138.585 74.3627 138.051 73.872C137.539 73.3813 136.878 73.136 136.067 73.136C135.513 73.136 134.958 73.2853 134.403 73.584C133.87 73.8827 133.422 74.352 133.059 74.992C132.718 75.632 132.547 76.4747 132.547 77.52V86H128.163ZM165.837 86.32C164.152 86.32 162.68 85.9893 161.421 85.328C160.184 84.6667 159.224 83.7173 158.541 82.48C157.859 81.2427 157.517 79.7493 157.517 78C157.517 76.2507 157.859 74.7573 158.541 73.52C159.224 72.2827 160.173 71.3333 161.389 70.672C162.627 70.0107 164.035 69.68 165.613 69.68C167.235 69.68 168.611 70.0107 169.741 70.672C170.872 71.312 171.736 72.1973 172.333 73.328C172.931 74.4373 173.229 75.7067 173.229 77.136C173.229 77.5627 173.219 77.968 173.197 78.352C173.176 78.736 173.144 79.0773 173.101 79.376H160.333V76.336H171.181L169.069 77.104C169.069 75.76 168.76 74.7253 168.141 74C167.544 73.2747 166.691 72.912 165.581 72.912C164.771 72.912 164.067 73.104 163.469 73.488C162.893 73.872 162.456 74.448 162.157 75.216C161.859 75.9627 161.709 76.912 161.709 78.064C161.709 79.1947 161.869 80.1333 162.189 80.88C162.531 81.6053 163 82.1493 163.597 82.512C164.216 82.8747 164.952 83.056 165.805 83.056C166.744 83.056 167.501 82.8747 168.077 82.512C168.653 82.1493 169.101 81.648 169.421 81.008L172.909 82.352C172.568 83.184 172.045 83.8987 171.341 84.496C170.659 85.0933 169.837 85.552 168.877 85.872C167.939 86.1707 166.925 86.32 165.837 86.32ZM183.345 86.32C181.723 86.32 180.241 86.032 178.897 85.456C177.574 84.88 176.497 84.0693 175.665 83.024L178.193 80.464C178.705 81.232 179.387 81.8613 180.241 82.352C181.094 82.8427 182.107 83.088 183.281 83.088C184.113 83.088 184.774 82.9707 185.265 82.736C185.777 82.48 186.033 82.0853 186.033 81.552C186.033 81.2107 185.915 80.9227 185.681 80.688C185.446 80.432 184.977 80.2293 184.273 80.08L181.457 79.504C179.601 79.12 178.278 78.544 177.489 77.776C176.721 76.9867 176.337 75.9733 176.337 74.736C176.337 73.8613 176.593 73.04 177.105 72.272C177.638 71.504 178.427 70.8853 179.473 70.416C180.518 69.9253 181.819 69.68 183.377 69.68C184.977 69.68 186.363 69.936 187.537 70.448C188.731 70.9387 189.67 71.6747 190.353 72.656L187.729 75.216C187.259 74.4693 186.641 73.904 185.873 73.52C185.126 73.1147 184.337 72.912 183.505 72.912C182.907 72.912 182.395 72.976 181.969 73.104C181.542 73.232 181.222 73.4133 181.009 73.648C180.795 73.8613 180.689 74.1387 180.689 74.48C180.689 74.8213 180.838 75.12 181.137 75.376C181.435 75.6107 181.979 75.8133 182.769 75.984L186.033 76.656C187.611 76.976 188.742 77.52 189.425 78.288C190.107 79.0347 190.449 79.9413 190.449 81.008C190.449 82.032 190.171 82.9493 189.617 83.76C189.083 84.5493 188.283 85.1787 187.217 85.648C186.171 86.096 184.881 86.32 183.345 86.32Z" fill="black" style="fill:black;fill-opacity:1;"/>
<path d="M142.918 61H140.884L139.75 57.886H134.764L133.63 61H131.65L136.132 49.12H138.436L142.918 61ZM135.304 56.32H139.21L137.266 50.776L135.304 56.32ZM146.951 49.12V61H145.025V49.12H146.951Z" fill="black" style="fill:black;fill-opacity:1;"/>
<path d="M83.22 100L81.28 93.4H82.41L83.89 99.07L85.33 93.4H86.43L87.88 99.08L89.35 93.4H90.44L88.51 100H87.25L86.2 96.04L85.87 94.52H85.86L85.53 96.04L84.49 100H83.22ZM92.0868 94.16C91.8535 94.16 91.6735 94.1033 91.5468 93.99C91.4268 93.87 91.3668 93.7033 91.3668 93.49C91.3668 93.2767 91.4268 93.1133 91.5468 93C91.6735 92.8867 91.8535 92.83 92.0868 92.83C92.3135 92.83 92.4868 92.8867 92.6068 93C92.7335 93.1133 92.7968 93.2767 92.7968 93.49C92.7968 93.7033 92.7335 93.87 92.6068 93.99C92.4868 94.1033 92.3135 94.16 92.0868 94.16ZM92.6168 95V100H91.5468V95H92.6168ZM95.7509 93.53V98.5C95.7509 98.7467 95.8143 98.9267 95.9409 99.04C96.0743 99.1533 96.2509 99.21 96.4709 99.21C96.6509 99.21 96.8076 99.1833 96.9409 99.13C97.0743 99.07 97.1976 98.99 97.3109 98.89L97.5509 99.67C97.3976 99.8033 97.2076 99.91 96.9809 99.99C96.7609 100.063 96.5143 100.1 96.2409 100.1C95.9543 100.1 95.6909 100.053 95.4509 99.96C95.2109 99.8667 95.0243 99.7167 94.8909 99.51C94.7576 99.2967 94.6876 99.02 94.6809 98.68V93.83L95.7509 93.53ZM97.4709 95V95.84H93.7209V95H97.4709ZM98.5683 100V92.75H99.6383V95.8C99.8049 95.4867 100.028 95.26 100.308 95.12C100.595 94.9733 100.912 94.9 101.258 94.9C101.612 94.9 101.928 94.97 102.208 95.11C102.495 95.2433 102.722 95.4467 102.888 95.72C103.055 95.9933 103.138 96.34 103.138 96.76V100H102.068V97.1C102.068 96.6067 101.965 96.2633 101.758 96.07C101.558 95.8767 101.305 95.78 100.998 95.78C100.785 95.78 100.572 95.8333 100.358 95.94C100.152 96.04 99.9783 96.2067 99.8383 96.44C99.7049 96.6667 99.6383 96.9733 99.6383 97.36V100H98.5683ZM113.229 93.4L110.779 100H109.529L107.079 93.4H108.219L109.759 97.79L110.159 99.1L110.559 97.8L112.099 93.4H113.229ZM119.276 100H118.146L117.516 98.27H114.746L114.116 100H113.016L115.506 93.4H116.786L119.276 100ZM115.046 97.4H117.216L116.136 94.32L115.046 97.4ZM122.987 93.4C123.46 93.4 123.867 93.4833 124.207 93.65C124.553 93.8167 124.823 94.0533 125.017 94.36C125.21 94.6667 125.307 95.0367 125.307 95.47C125.307 95.8967 125.21 96.2667 125.017 96.58C124.823 96.8867 124.553 97.1233 124.207 97.29C123.867 97.4567 123.46 97.54 122.987 97.54H121.517V100H120.447V93.4H122.987ZM122.817 96.62C123.29 96.62 123.637 96.5233 123.857 96.33C124.083 96.13 124.197 95.8433 124.197 95.47C124.197 95.09 124.083 94.8033 123.857 94.61C123.637 94.41 123.29 94.31 122.817 94.31H121.517V96.62H122.817ZM127.786 93.4V100H126.716V93.4H127.786ZM135.736 96.79C135.736 96.4567 135.642 96.2 135.456 96.02C135.276 95.8333 135.026 95.74 134.706 95.74C134.406 95.74 134.149 95.81 133.936 95.95C133.722 96.09 133.566 96.3167 133.466 96.63L132.566 96.25C132.692 95.8433 132.939 95.5167 133.306 95.27C133.679 95.0233 134.159 94.9 134.746 94.9C135.146 94.9 135.499 94.9667 135.806 95.1C136.112 95.2267 136.352 95.42 136.526 95.68C136.706 95.94 136.796 96.2733 136.796 96.68V98.91C136.796 99.1567 136.919 99.28 137.166 99.28C137.286 99.28 137.402 99.2633 137.516 99.23L137.456 99.97C137.302 100.043 137.109 100.08 136.876 100.08C136.662 100.08 136.469 100.043 136.296 99.97C136.129 99.89 135.996 99.7733 135.896 99.62C135.802 99.46 135.756 99.2633 135.756 99.03V98.96L135.976 98.95C135.916 99.21 135.792 99.4267 135.606 99.6C135.419 99.7667 135.202 99.8933 134.956 99.98C134.709 100.06 134.459 100.1 134.206 100.1C133.892 100.1 133.609 100.05 133.356 99.95C133.109 99.85 132.912 99.7 132.766 99.5C132.626 99.2933 132.556 99.04 132.556 98.74C132.556 98.3667 132.676 98.06 132.916 97.82C133.162 97.58 133.509 97.4167 133.956 97.33L135.896 96.95L135.886 97.7L134.476 97.99C134.196 98.0433 133.986 98.12 133.846 98.22C133.706 98.32 133.636 98.4667 133.636 98.66C133.636 98.8467 133.706 98.9967 133.846 99.11C133.992 99.2167 134.186 99.27 134.426 99.27C134.592 99.27 134.752 99.25 134.906 99.21C135.066 99.17 135.209 99.1067 135.336 99.02C135.462 98.9267 135.559 98.81 135.626 98.67C135.699 98.5233 135.736 98.35 135.736 98.15V96.79ZM138.549 100V95H139.499L139.569 96.3L139.429 96.16C139.522 95.8733 139.655 95.6367 139.829 95.45C140.009 95.2567 140.219 95.1167 140.459 95.03C140.705 94.9433 140.965 94.9 141.239 94.9C141.592 94.9 141.909 94.97 142.189 95.11C142.475 95.2433 142.702 95.4467 142.869 95.72C143.035 95.9933 143.119 96.34 143.119 96.76V100H142.049V97.09C142.049 96.5967 141.945 96.2567 141.739 96.07C141.539 95.8767 141.285 95.78 140.979 95.78C140.759 95.78 140.545 95.8333 140.339 95.94C140.132 96.04 139.959 96.2033 139.819 96.43C139.685 96.6567 139.619 96.96 139.619 97.34V100H138.549ZM146.66 100.1C146.247 100.1 145.87 99.9967 145.53 99.79C145.197 99.5833 144.933 99.2867 144.74 98.9C144.547 98.5133 144.45 98.05 144.45 97.51C144.45 96.95 144.553 96.4767 144.76 96.09C144.967 95.7033 145.243 95.41 145.59 95.21C145.937 95.0033 146.317 94.9 146.73 94.9C147.157 94.9 147.517 95.0167 147.81 95.25C148.103 95.4833 148.3 95.7867 148.4 96.16L148.28 96.27V92.75H149.35V100H148.4L148.32 98.64L148.46 98.65C148.413 98.95 148.303 99.21 148.13 99.43C147.957 99.6433 147.74 99.81 147.48 99.93C147.227 100.043 146.953 100.1 146.66 100.1ZM146.89 99.24C147.177 99.24 147.423 99.1667 147.63 99.02C147.837 98.8733 147.997 98.6667 148.11 98.4C148.223 98.1333 148.28 97.8133 148.28 97.44C148.28 97.0933 148.223 96.7967 148.11 96.55C147.997 96.2967 147.837 96.1033 147.63 95.97C147.43 95.8367 147.197 95.77 146.93 95.77C146.483 95.77 146.137 95.9233 145.89 96.23C145.643 96.5367 145.52 96.96 145.52 97.5C145.52 98.04 145.64 98.4667 145.88 98.78C146.12 99.0867 146.457 99.24 146.89 99.24ZM159.55 100H158.42L157.79 98.27H155.02L154.39 100H153.29L155.78 93.4H157.06L159.55 100ZM155.32 97.4H157.49L156.41 94.32L155.32 97.4ZM162.431 100.1C161.931 100.1 161.475 100.003 161.061 99.81C160.648 99.6167 160.321 99.3433 160.081 98.99L160.821 98.35C160.968 98.6233 161.178 98.8433 161.451 99.01C161.731 99.17 162.065 99.25 162.451 99.25C162.758 99.25 163.001 99.1967 163.181 99.09C163.361 98.9833 163.451 98.8333 163.451 98.64C163.451 98.5133 163.408 98.4033 163.321 98.31C163.241 98.21 163.085 98.1333 162.851 98.08L161.801 97.86C161.268 97.7533 160.888 97.5833 160.661 97.35C160.435 97.11 160.321 96.8067 160.321 96.44C160.321 96.1667 160.401 95.9133 160.561 95.68C160.721 95.4467 160.955 95.26 161.261 95.12C161.575 94.9733 161.948 94.9 162.381 94.9C162.881 94.9 163.308 94.99 163.661 95.17C164.015 95.3433 164.285 95.5933 164.471 95.92L163.731 96.54C163.605 96.2733 163.418 96.0767 163.171 95.95C162.925 95.8167 162.668 95.75 162.401 95.75C162.188 95.75 162.005 95.7767 161.851 95.83C161.698 95.8833 161.581 95.9567 161.501 96.05C161.421 96.1433 161.381 96.2533 161.381 96.38C161.381 96.5133 161.431 96.63 161.531 96.73C161.631 96.83 161.811 96.9067 162.071 96.96L163.211 97.2C163.691 97.2933 164.028 97.4533 164.221 97.68C164.421 97.9 164.521 98.17 164.521 98.49C164.521 98.81 164.438 99.0933 164.271 99.34C164.105 99.58 163.865 99.7667 163.551 99.9C163.238 100.033 162.865 100.1 162.431 100.1ZM167.724 100.1C167.224 100.1 166.767 100.003 166.354 99.81C165.941 99.6167 165.614 99.3433 165.374 98.99L166.114 98.35C166.261 98.6233 166.471 98.8433 166.744 99.01C167.024 99.17 167.357 99.25 167.744 99.25C168.051 99.25 168.294 99.1967 168.474 99.09C168.654 98.9833 168.744 98.8333 168.744 98.64C168.744 98.5133 168.701 98.4033 168.614 98.31C168.534 98.21 168.377 98.1333 168.144 98.08L167.094 97.86C166.561 97.7533 166.181 97.5833 165.954 97.35C165.727 97.11 165.614 96.8067 165.614 96.44C165.614 96.1667 165.694 95.9133 165.854 95.68C166.014 95.4467 166.247 95.26 166.554 95.12C166.867 94.9733 167.241 94.9 167.674 94.9C168.174 94.9 168.601 94.99 168.954 95.17C169.307 95.3433 169.577 95.5933 169.764 95.92L169.024 96.54C168.897 96.2733 168.711 96.0767 168.464 95.95C168.217 95.8167 167.961 95.75 167.694 95.75C167.481 95.75 167.297 95.7767 167.144 95.83C166.991 95.8833 166.874 95.9567 166.794 96.05C166.714 96.1433 166.674 96.2533 166.674 96.38C166.674 96.5133 166.724 96.63 166.824 96.73C166.924 96.83 167.104 96.9067 167.364 96.96L168.504 97.2C168.984 97.2933 169.321 97.4533 169.514 97.68C169.714 97.9 169.814 98.17 169.814 98.49C169.814 98.81 169.731 99.0933 169.564 99.34C169.397 99.58 169.157 99.7667 168.844 99.9C168.531 100.033 168.157 100.1 167.724 100.1ZM173.307 100.1C172.807 100.1 172.367 99.9967 171.987 99.79C171.607 99.5833 171.311 99.2867 171.097 98.9C170.891 98.5067 170.787 98.04 170.787 97.5C170.787 96.96 170.891 96.4967 171.097 96.11C171.311 95.7167 171.604 95.4167 171.977 95.21C172.351 95.0033 172.774 94.9 173.247 94.9C173.734 94.9 174.147 95 174.487 95.2C174.827 95.4 175.087 95.6733 175.267 96.02C175.447 96.3667 175.537 96.76 175.537 97.2C175.537 97.32 175.534 97.4333 175.527 97.54C175.521 97.6467 175.511 97.74 175.497 97.82H171.477V97H175.027L174.497 97.16C174.497 96.7067 174.384 96.36 174.157 96.12C173.931 95.8733 173.621 95.75 173.227 95.75C172.941 95.75 172.691 95.8167 172.477 95.95C172.264 96.0833 172.101 96.2833 171.987 96.55C171.874 96.81 171.817 97.13 171.817 97.51C171.817 97.8833 171.877 98.2 171.997 98.46C172.117 98.72 172.287 98.9167 172.507 99.05C172.727 99.1833 172.987 99.25 173.287 99.25C173.621 99.25 173.891 99.1867 174.097 99.06C174.304 98.9333 174.467 98.7567 174.587 98.53L175.437 98.93C175.317 99.17 175.154 99.38 174.947 99.56C174.747 99.7333 174.507 99.8667 174.227 99.96C173.947 100.053 173.641 100.1 173.307 100.1ZM176.889 100V95H177.839L177.889 95.84C178.062 95.52 178.292 95.2833 178.579 95.13C178.872 94.9767 179.182 94.9 179.509 94.9C179.869 94.9 180.199 94.9833 180.499 95.15C180.805 95.31 181.035 95.5533 181.189 95.88C181.295 95.66 181.442 95.4767 181.629 95.33C181.815 95.1833 182.022 95.0767 182.249 95.01C182.475 94.9367 182.699 94.9 182.919 94.9C183.239 94.9 183.539 94.9667 183.819 95.1C184.099 95.2333 184.325 95.4367 184.499 95.71C184.672 95.9833 184.759 96.3333 184.759 96.76V100H183.689V96.93C183.689 96.5233 183.592 96.23 183.399 96.05C183.205 95.87 182.959 95.78 182.659 95.78C182.425 95.78 182.209 95.8367 182.009 95.95C181.815 96.0633 181.659 96.2333 181.539 96.46C181.419 96.68 181.359 96.9533 181.359 97.28V100H180.289V96.93C180.289 96.5233 180.192 96.23 179.999 96.05C179.805 95.87 179.559 95.78 179.259 95.78C179.059 95.78 178.859 95.8333 178.659 95.94C178.459 96.0467 178.292 96.2133 178.159 96.44C178.025 96.6667 177.959 96.9667 177.959 97.34V100H176.889ZM189.061 100.1C188.767 100.1 188.497 100.043 188.251 99.93C188.011 99.8167 187.807 99.66 187.641 99.46C187.474 99.2533 187.351 99.0233 187.271 98.77L187.401 98.6L187.321 100H186.381V92.75H187.451V96.26L187.331 96.09C187.457 95.7433 187.674 95.46 187.981 95.24C188.287 95.0133 188.657 94.9 189.091 94.9C189.491 94.9 189.857 95.0033 190.191 95.21C190.531 95.4167 190.797 95.7133 190.991 96.1C191.184 96.4867 191.281 96.9567 191.281 97.51C191.281 98.05 191.181 98.5133 190.981 98.9C190.787 99.2867 190.521 99.5833 190.181 99.79C189.847 99.9967 189.474 100.1 189.061 100.1ZM188.831 99.24C189.264 99.24 189.601 99.0867 189.841 98.78C190.087 98.4667 190.211 98.04 190.211 97.5C190.211 96.96 190.091 96.5367 189.851 96.23C189.611 95.9233 189.274 95.77 188.841 95.77C188.561 95.77 188.317 95.8433 188.111 95.99C187.904 96.13 187.741 96.33 187.621 96.59C187.507 96.85 187.451 97.16 187.451 97.52C187.451 97.8733 187.507 98.18 187.621 98.44C187.734 98.6933 187.894 98.89 188.101 99.03C188.314 99.17 188.557 99.24 188.831 99.24ZM193.69 92.75V98.6C193.69 98.8467 193.734 99.0167 193.82 99.11C193.907 99.2033 194.05 99.25 194.25 99.25C194.37 99.25 194.47 99.2433 194.55 99.23C194.637 99.21 194.744 99.1767 194.87 99.13L194.75 99.93C194.637 99.9833 194.507 100.023 194.36 100.05C194.214 100.083 194.067 100.1 193.92 100.1C193.474 100.1 193.144 99.9867 192.93 99.76C192.724 99.5267 192.62 99.17 192.62 98.69V92.75H193.69ZM199.931 95L197.741 100.59C197.594 100.977 197.434 101.283 197.261 101.51C197.094 101.737 196.901 101.9 196.681 102C196.461 102.1 196.204 102.15 195.911 102.15C195.671 102.15 195.448 102.117 195.241 102.05C195.041 101.99 194.864 101.907 194.711 101.8L194.971 100.97C195.098 101.077 195.231 101.157 195.371 101.21C195.518 101.263 195.674 101.29 195.841 101.29C196.021 101.29 196.181 101.24 196.321 101.14C196.468 101.047 196.598 100.857 196.711 100.57L196.931 100.03L196.401 98.79L194.841 95H196.041L197.151 98.14L197.441 99.08L197.771 98.05L198.821 95H199.931Z" fill="#3F4553" style="fill:#3F4553;fill:color(display-p3 0.2471 0.2706 0.3255);fill-opacity:1;"/>
<path d="M196 52C233.898 76.9787 232.865 129.683 215.453 122.247C201.08 116.109 223.991 60.7008 256.918 72.7161C292.078 85.5465 238.653 158.82 223.991 169.519C209.329 180.218 214.697 129.494 283 127.703" stroke="white" style="stroke:white;stroke-opacity:1;" stroke-width="5"/>
<path d="M84 57C46.1019 81.9787 47.1346 134.683 64.5466 127.247C78.9205 121.109 56.0087 65.7008 23.082 77.7161C-12.0783 90.5465 41.3466 163.82 56.0087 174.519C70.6708 185.218 65.3031 134.494 -3 132.703" stroke="white" style="stroke:white;stroke-opacity:1;" stroke-width="5"/>
<path d="M244.299 125.206H239.045C239.047 125.254 239.049 125.303 239.049 125.351C239.049 125.399 239.047 125.447 239.045 125.496H244.299C244.383 125.496 244.451 125.431 244.451 125.351C244.451 125.271 244.383 125.206 244.299 125.206Z" fill="#070602" style="fill:#070602;fill:color(display-p3 0.0275 0.0235 0.0078);fill-opacity:1;"/>
<path d="M232.406 125.206H227.151C227.068 125.206 227 125.271 227 125.351C227 125.431 227.068 125.496 227.151 125.496H232.406C232.404 125.447 232.402 125.399 232.402 125.351C232.402 125.303 232.404 125.254 232.406 125.206Z" fill="#070602" style="fill:#070602;fill:color(display-p3 0.0275 0.0235 0.0078);fill-opacity:1;"/>
<path d="M235.876 122.173V117.145C235.876 117.065 235.808 117 235.725 117C235.641 117 235.573 117.065 235.573 117.145V122.173C235.624 122.172 235.674 122.17 235.725 122.17C235.775 122.17 235.826 122.172 235.876 122.173Z" fill="#070602" style="fill:#070602;fill:color(display-p3 0.0275 0.0235 0.0078);fill-opacity:1;"/>
<path d="M235.573 128.527V133.556C235.573 133.636 235.641 133.701 235.725 133.701C235.808 133.701 235.876 133.636 235.876 133.556V128.527C235.826 128.529 235.775 128.531 235.725 128.531C235.674 128.531 235.624 128.529 235.573 128.527Z" fill="#070602" style="fill:#070602;fill:color(display-p3 0.0275 0.0235 0.0078);fill-opacity:1;"/>
<path d="M238.18 123.206L241.895 119.65C241.954 119.593 241.954 119.502 241.895 119.446C241.835 119.389 241.74 119.389 241.681 119.446L237.966 123.002C238.04 123.066 238.112 123.135 238.18 123.206Z" fill="#070602" style="fill:#070602;fill:color(display-p3 0.0275 0.0235 0.0078);fill-opacity:1;"/>
<path d="M233.271 127.495L229.555 131.05C229.496 131.107 229.496 131.199 229.555 131.255C229.585 131.283 229.624 131.298 229.662 131.298C229.701 131.298 229.74 131.283 229.769 131.255L233.485 127.699C233.41 127.635 233.338 127.566 233.271 127.495Z" fill="#070602" style="fill:#070602;fill:color(display-p3 0.0275 0.0235 0.0078);fill-opacity:1;"/>
<path d="M237.966 127.699L241.681 131.255C241.71 131.283 241.75 131.298 241.788 131.298C241.826 131.298 241.866 131.283 241.895 131.255C241.954 131.198 241.954 131.106 241.895 131.05L238.18 127.495C238.112 127.566 238.04 127.635 237.966 127.699Z" fill="#070602" style="fill:#070602;fill:color(display-p3 0.0275 0.0235 0.0078);fill-opacity:1;"/>
<path d="M233.485 123.002L229.769 119.446C229.71 119.389 229.614 119.389 229.555 119.446C229.496 119.503 229.496 119.594 229.555 119.65L233.271 123.206C233.338 123.135 233.41 123.066 233.485 123.002Z" fill="#070602" style="fill:#070602;fill:color(display-p3 0.0275 0.0235 0.0078);fill-opacity:1;"/>
</g>
<defs>
<clipPath id="clip0_114_78">
<rect width="275" height="155" rx="15" fill="white" style="fill:white;fill-opacity:1;"/>
</clipPath>
</defs>
</svg>
