<svg width="1440" height="1024" viewBox="0 0 1440 1024" fill="none" xmlns="http://www.w3.org/2000/svg">
<g clip-path="url(#clip0_13_128)">
<rect width="1440" height="1024" rx="20" fill="white"/>
<rect width="1440" height="784" fill="url(#paint0_radial_13_128)"/>
<path d="M289.868 693.748L213.035 723.898C212.336 724.172 212.177 725.09 212.744 725.583L269.156 774.701C269.375 774.891 269.665 774.977 269.951 774.937L353.592 763.266C354.394 763.154 354.737 762.185 354.184 761.593L290.964 693.996C290.684 693.696 290.25 693.598 289.868 693.748Z" fill="#D897A9"/>
<path d="M561.962 708.145L463.444 769.413C462.982 769.7 462.752 769.843 462.626 770.07C462.5 770.297 462.5 770.568 462.5 771.111V823.476C462.5 824.429 462.5 824.906 462.797 825.199C463.094 825.493 463.571 825.487 464.524 825.475H464.524L1365.64 814.504C1365.82 814.502 1365.91 814.501 1366 814.484C1366.08 814.467 1366.17 814.434 1366.34 814.369L1438.22 786.495C1438.84 786.255 1439.15 786.136 1439.33 785.88C1439.5 785.625 1439.5 785.293 1439.5 784.63V612.613C1439.5 609.212 1439.5 607.512 1438.73 607.332C1437.95 607.153 1437.2 608.679 1435.7 611.731L1399.82 684.822C1399.43 685.617 1399.24 686.015 1398.87 686.155C1398.5 686.295 1398.09 686.127 1397.27 685.791L1369.8 674.531C1369.17 674.274 1368.86 674.146 1368.55 674.215C1368.24 674.285 1368.01 674.535 1367.56 675.036L1284.05 766.896L1284.05 766.896C1283.78 767.194 1283.64 767.343 1283.47 767.428C1283.29 767.512 1283.09 767.524 1282.68 767.547L1049.96 780.973C1049.73 780.987 1049.62 780.993 1049.5 780.974C1049.39 780.955 1049.29 780.91 1049.07 780.821L910.78 722.827C910.395 722.666 910.203 722.585 910 722.586C909.798 722.586 909.606 722.668 909.222 722.831L799.426 769.606C798.972 769.799 798.744 769.896 798.508 769.881C798.271 769.866 798.058 769.741 797.632 769.492L737.468 734.274C737.235 734.138 737.119 734.07 736.991 734.035C736.862 734 736.727 734 736.458 734H709.672C709.339 734 709.172 734 709.017 733.948C708.863 733.896 708.73 733.796 708.465 733.595L638.3 680.484C637.678 680.013 637.366 679.777 637.01 679.79C636.655 679.803 636.361 680.061 635.774 680.576L589.097 721.537C588.568 722.002 588.303 722.234 587.979 722.263C587.654 722.292 587.352 722.111 586.749 721.749L564.048 708.129C563.538 707.823 563.283 707.67 563.001 707.672C562.72 707.674 562.468 707.831 561.963 708.145L561.962 708.145Z" fill="url(#paint1_linear_13_128)"/>
<path d="M144.691 665.22L66.7919 737.83L66.7919 737.83C65.9632 738.602 65.5488 738.988 65.5799 739.462C65.611 739.935 66.0723 740.264 66.995 740.922L231.332 858.024L231.332 858.024C231.662 858.259 231.826 858.376 232.018 858.421C232.21 858.466 232.41 858.434 232.81 858.37L358.941 838.09C359.219 838.045 359.357 838.023 359.495 838.039C359.633 838.055 359.763 838.109 360.023 838.217L570.945 925.563C571.46 925.776 571.718 925.883 571.981 925.85C572.244 925.816 572.467 925.648 572.913 925.313L617.83 891.504C618.161 891.255 618.326 891.131 618.521 891.082C618.716 891.032 618.92 891.063 619.329 891.124L711.764 904.965C711.882 904.982 711.941 904.991 712 904.993C712.06 904.995 712.119 904.989 712.238 904.979L996.786 879.519C996.893 879.51 996.946 879.505 997 879.506C997.053 879.507 997.107 879.513 997.213 879.527L1140 897.437C1140.25 897.468 1140.37 897.484 1140.5 897.469C1140.62 897.454 1140.74 897.408 1140.97 897.318L1363.91 811.001C1365.09 810.544 1365.68 810.316 1365.81 809.821C1365.94 809.326 1365.54 808.838 1364.74 807.863L1364.73 807.862L1275.46 699.764C1274.78 698.942 1274.44 698.532 1273.99 698.519C1273.53 698.506 1273.17 698.897 1272.45 699.679L1212.54 764.417C1212.27 764.705 1212.14 764.849 1211.97 764.931C1211.79 765.014 1211.6 765.027 1211.21 765.054L924.754 784.449C924.381 784.474 924.195 784.487 924.02 784.434C923.845 784.381 923.697 784.268 923.401 784.04L882.516 752.663C881.799 752.113 881.44 751.838 881.041 751.881C880.643 751.924 880.351 752.27 879.769 752.961L836.277 804.578C835.898 805.027 835.709 805.252 835.446 805.341C835.183 805.431 834.896 805.368 834.322 805.243L673.124 770.136C672.815 770.069 672.66 770.035 672.505 770.05C672.35 770.064 672.204 770.127 671.912 770.251L590.173 805.212C589.84 805.355 589.674 805.426 589.497 805.435C589.32 805.445 589.146 805.391 588.8 805.285L413.913 751.627C413.707 751.564 413.604 751.532 413.498 751.523C413.392 751.514 413.285 751.528 413.072 751.555L270.382 769.887C269.948 769.942 269.731 769.97 269.527 769.91C269.324 769.849 269.157 769.706 268.825 769.421L147.358 665.165C146.712 664.611 146.389 664.334 146.007 664.342C145.625 664.349 145.314 664.64 144.691 665.22Z" fill="url(#paint2_linear_13_128)"/>
<circle cx="794.991" cy="595.205" r="3.62757" fill="white" fill-opacity="0.25"/>
<circle cx="662.5" cy="329.5" r="3.5" fill="white" fill-opacity="0.25"/>
<circle cx="214.5" cy="503.5" r="2.5" fill="white" fill-opacity="0.25"/>
<circle cx="269.446" cy="101.402" r="2.26723" fill="white" fill-opacity="0.25"/>
<circle cx="1310.36" cy="193.36" r="1.36034" fill="white" fill-opacity="0.25"/>
<circle cx="101.36" cy="154.36" r="1.36034" fill="white" fill-opacity="0.25"/>
<circle cx="84.3603" cy="523.36" r="1.36034" fill="white" fill-opacity="0.25"/>
<circle cx="878.814" cy="424.814" r="1.81379" fill="white" fill-opacity="0.25"/>
<circle cx="306.814" cy="157.814" r="1.81379" fill="white" fill-opacity="0.25"/>
<circle cx="404.814" cy="691.814" r="1.81379" fill="white" fill-opacity="0.25"/>
<circle cx="438.814" cy="286.814" r="1.81379" fill="white" fill-opacity="0.25"/>
<circle cx="1268.81" cy="86.8138" r="1.81379" fill="white" fill-opacity="0.25"/>
<circle cx="788.814" cy="303.814" r="1.81379" fill="white" fill-opacity="0.25"/>
<circle cx="449.814" cy="716.814" r="1.81379" fill="white" fill-opacity="0.25"/>
<circle cx="657" cy="516" r="2" fill="white" fill-opacity="0.25"/>
<circle cx="719.628" cy="711.628" r="3.62757" fill="white" fill-opacity="0.25"/>
<circle cx="61.6276" cy="680.628" r="3.62757" fill="white" fill-opacity="0.25"/>
<circle cx="371.018" cy="45.1741" r="3.17413" fill="white" fill-opacity="0.25"/>
<circle cx="105.267" cy="394.267" r="2.26723" fill="white" fill-opacity="0.25"/>
<circle cx="451.732" cy="454.183" r="3.17413" fill="white" fill-opacity="0.25"/>
<circle cx="1073.17" cy="199.174" r="3.17413" fill="white" fill-opacity="0.25"/>
<circle cx="802.174" cy="26.1741" r="3.17413" fill="white" fill-opacity="0.25"/>
<circle cx="1305.5" cy="644.5" r="1.5" fill="white" fill-opacity="0.25"/>
<circle cx="1412.72" cy="389.721" r="2.72068" fill="white" fill-opacity="0.25"/>
<circle cx="1407.72" cy="28.7207" r="2.72068" fill="white" fill-opacity="0.25"/>
<circle cx="617.721" cy="119.721" r="2.72068" fill="white" fill-opacity="0.25"/>
<circle cx="336.267" cy="626.267" r="2.26723" fill="white" fill-opacity="0.25"/>
<circle cx="192.814" cy="290.489" r="1.81379" fill="white" fill-opacity="0.25"/>
<circle cx="1299.5" cy="459.5" r="2.5" fill="white" fill-opacity="0.25"/>
<circle cx="1105" cy="147" r="3" fill="white" fill-opacity="0.25"/>
<circle cx="1141" cy="676" r="2" fill="white" fill-opacity="0.25"/>
<circle cx="1080.08" cy="425.081" r="4.08102" fill="white" fill-opacity="0.25"/>
<circle cx="1009" cy="707" r="3" fill="white" fill-opacity="0.25"/>
<path d="M231.331 842.023L2.66215 678.758C1.27715 677.769 0.584656 677.274 0.0423279 677.554C-0.5 677.833 -0.5 678.684 -0.5 680.385V1071C-0.5 1071.94 -0.5 1072.41 -0.207107 1072.71C0.0857865 1073 0.557187 1073 1.49999 1073H570C570.943 1073 571.414 1073 571.707 1072.71C572 1072.41 572 1071.94 572 1071V910.839C572 910.19 572 909.866 571.831 909.613C571.662 909.361 571.362 909.237 570.761 908.99L360.022 822.215C359.763 822.108 359.633 822.055 359.495 822.039C359.358 822.023 359.22 822.045 358.943 822.09L232.811 842.37H232.811C232.411 842.434 232.211 842.466 232.019 842.421C231.826 842.376 231.661 842.258 231.331 842.023Z" fill="url(#paint3_linear_13_128)"/>
<path d="M617.781 843.109L358.028 1069.49C356.337 1070.96 355.491 1071.7 355.735 1072.35C355.978 1073 357.1 1073 359.343 1073H359.343L1438 1072.42C1438.94 1072.42 1439.41 1072.42 1439.71 1072.13C1440 1071.83 1440 1071.36 1440 1070.42V718.096C1440 716.701 1440 716.003 1439.54 715.708C1439.09 715.412 1438.45 715.699 1437.18 716.273L1141.03 849.81C1140.77 849.929 1140.64 849.989 1140.49 850.009C1140.35 850.029 1140.21 850.008 1139.92 849.966L997.247 829.13C997.124 829.112 997.062 829.103 997 829.102C996.938 829.101 996.875 829.107 996.751 829.12L712.277 858.753L712.276 858.753C712.138 858.768 712.069 858.775 712 858.772C711.931 858.77 711.863 858.758 711.726 858.734L619.439 842.647C618.977 842.566 618.747 842.526 618.529 842.587C618.311 842.647 618.135 842.801 617.781 843.109Z" fill="url(#paint4_linear_13_128)"/>
<path d="M618.5 1022.3L448.673 1079.1L448.673 1079.1C444.244 1080.58 442.03 1081.32 442.166 1082.16C442.303 1083 444.638 1083 449.308 1082.99L1438 1082.45C1438.94 1082.45 1439.41 1082.45 1439.71 1082.16C1440 1081.87 1440 1081.4 1440 1080.45V828.74C1440 827.488 1440 826.862 1439.59 826.562C1439.18 826.263 1438.58 826.453 1437.39 826.835L1207.95 900.221C1207.73 900.293 1207.61 900.329 1207.5 900.338C1207.38 900.347 1207.26 900.328 1207.03 900.291L1001.55 867.645C1001.28 867.601 1001.14 867.58 1001 867.595C1000.87 867.611 1000.74 867.662 1000.48 867.766L618.5 1022.3Z" fill="url(#paint5_linear_13_128)"/>
</g>
<defs>
<radialGradient id="paint0_radial_13_128" cx="0" cy="0" r="1" gradientUnits="userSpaceOnUse" gradientTransform="translate(720 50.8702) rotate(90) scale(795.63 6132.77)">
<stop stop-color="#000D85"/>
<stop offset="0.225733" stop-color="#7011CE"/>
<stop offset="0.652253" stop-color="#FF5D53"/>
<stop offset="1" stop-color="#F5F95A"/>
</radialGradient>
<linearGradient id="paint1_linear_13_128" x1="1402.5" y1="547.5" x2="582" y2="842.5" gradientUnits="userSpaceOnUse">
<stop stop-color="#C97FE2"/>
<stop offset="0.491021" stop-color="#FF594F"/>
<stop offset="0.732053" stop-color="#38368F"/>
<stop offset="1" stop-color="#E2857F"/>
</linearGradient>
<linearGradient id="paint2_linear_13_128" x1="903.5" y1="392" x2="715.75" y2="926" gradientUnits="userSpaceOnUse">
<stop stop-color="#CA7E5D"/>
<stop offset="1" stop-color="#553072"/>
</linearGradient>
<linearGradient id="paint3_linear_13_128" x1="435" y1="660.5" x2="33" y2="1126.5" gradientUnits="userSpaceOnUse">
<stop stop-color="#3E2361"/>
<stop offset="1" stop-color="#040615"/>
</linearGradient>
<linearGradient id="paint4_linear_13_128" x1="997.5" y1="839.572" x2="254.106" y2="1063.77" gradientUnits="userSpaceOnUse">
<stop stop-color="#341B55"/>
<stop offset="1" stop-color="#4E2B7B"/>
</linearGradient>
<linearGradient id="paint5_linear_13_128" x1="1006.5" y1="863.73" x2="1267.22" y2="1256.39" gradientUnits="userSpaceOnUse">
<stop stop-color="#220F40"/>
<stop offset="1" stop-color="#34244F"/>
</linearGradient>
<clipPath id="clip0_13_128">
<rect width="1440" height="1024" rx="20" fill="white"/>
</clipPath>
</defs>
</svg>
