<svg width="177" height="167" viewBox="0 0 177 167" fill="none" xmlns="http://www.w3.org/2000/svg">
<mask id="mask0_10_1606" style="mask-type:alpha" maskUnits="userSpaceOnUse" x="0" y="0" width="177" height="167">
<rect x="0.5" width="176.435" height="167" rx="10" fill="#FEB18F"/>
</mask>
<g mask="url(#mask0_10_1606)">
<path d="M176.5 45.4361C176.5 46.8927 176.152 48.3264 175.479 49.6182C170.953 58.3069 163.644 70.8768 140 66.8157C117.194 62.8986 113.052 77.6656 106.47 88.4015C105.028 90.7533 102.39 92.0003 99.6311 92.0003H77.3689C74.6102 92.0003 71.9721 90.7533 70.5303 88.4015C63.9483 77.6656 59.8057 62.8986 37 66.8157C13.3561 70.8768 6.04691 58.3069 1.52098 49.6182C0.848068 48.3264 0.5 46.8927 0.5 45.4361V7.47671C0.5 1.06073 7.0217 -3.29468 12.9481 -0.836562L85.0519 29.0701C87.2594 29.9857 89.7406 29.9858 91.9481 29.0701L164.052 -0.83656C169.978 -3.29468 176.5 1.06074 176.5 7.47671V45.4361Z" fill="#F4A17C"/>
<path d="M104.752 10.2928C104.752 10.2928 105.814 10.4108 106.723 11.2242C107.632 12.0376 108.471 9.96435 106.966 9.54098C105.464 9.1176 104.752 10.2928 104.752 10.2928Z" fill="#F5E2D5"/>
<path d="M103.742 10.1978C103.742 10.1978 104.436 9.39214 105.625 9.1022C106.813 8.81225 105.549 6.96224 104.353 7.95781C103.159 8.95594 103.742 10.1978 103.742 10.1978Z" fill="#F5E2D5"/>
<path d="M89.8798 15.0139C89.8798 15.0139 89.1418 15.7786 88.9709 16.982C88.7999 18.1828 86.8138 17.1257 87.6942 15.8453C88.5721 14.5649 89.8798 15.0139 89.8798 15.0139Z" fill="#F5E2D5"/>
<path d="M90.595 14.3006C90.595 14.3006 89.5411 14.1235 88.4405 14.6572C87.3399 15.1909 87.1121 12.9689 88.6762 12.9714C90.2377 12.974 90.595 14.3006 90.595 14.3006Z" fill="#F5E2D5"/>
<path d="M105.903 21.318C108.207 17.558 106.999 12.6592 103.204 10.3763C99.4096 8.09341 94.4657 9.29082 92.1617 13.0508C89.8577 16.8108 91.0662 21.7096 94.8609 23.9925C98.6556 26.2754 103.6 25.078 105.903 21.318Z" fill="#F5E2D5"/>
<path d="M92.8035 15.8273C92.6663 15.8632 92.5187 15.8042 92.4488 15.6759C92.3685 15.527 92.4229 15.3397 92.5757 15.2602L94.5774 14.1902L93.236 14.144C93.0651 14.1389 92.9304 13.9952 92.9356 13.8259C92.9408 13.6565 93.0858 13.5231 93.2567 13.5282L95.7427 13.6129C95.8825 13.618 96.0017 13.7155 96.0353 13.8515C96.0664 13.9875 96.0042 14.1261 95.8799 14.1928L92.8683 15.8016C92.8476 15.8119 92.8269 15.8196 92.8035 15.8273Z" fill="#3F4553"/>
<path d="M103.519 12.9072C103.496 12.9123 103.473 12.9174 103.447 12.9174L100.176 13.0201C100.036 13.0252 99.9093 12.9354 99.8679 12.802C99.8265 12.6685 99.8808 12.5249 100 12.4504L102.209 11.0854C102.354 10.9956 102.545 11.0392 102.636 11.1829C102.727 11.3266 102.683 11.5165 102.538 11.6063L101.308 12.3658L103.426 12.2991C103.597 12.2939 103.742 12.4273 103.747 12.5967C103.75 12.7455 103.654 12.8687 103.519 12.9072Z" fill="#3F4553"/>
<path d="M92.6687 17.213C94.3726 20.3254 97.3972 22.0985 100.184 21.3389C102.967 20.5794 104.653 17.5209 104.511 13.9851L103.436 14.0954C99.9946 14.447 96.6463 15.3681 93.5155 16.8204L92.6687 17.213Z" fill="#3F4553"/>
<path d="M103.592 17.9802C102.385 17.5876 100.86 17.5542 99.3035 17.9802C97.7161 18.4138 96.4031 19.2375 95.5719 20.2125C96.9832 21.1182 98.5784 21.4672 100.104 21.0515C101.647 20.6282 102.849 19.5017 103.592 17.9802Z" fill="#4E5567"/>
<path d="M50.1748 48.2889C51.4058 44.0626 48.9461 39.6477 44.6808 38.428C40.4156 37.2082 35.96 39.6455 34.7289 43.8717C33.4979 48.098 35.9577 52.5129 40.2229 53.7326C44.4882 54.9524 48.9438 52.5151 50.1748 48.2889Z" fill="#F5E2D5"/>
<path d="M38.3448 41.245C38.2127 41.1911 38.1324 41.0551 38.1557 40.9114C38.1842 40.7447 38.3422 40.6292 38.5131 40.6574L40.7583 41.0166L39.7224 40.1725C39.5904 40.0647 39.5722 39.8697 39.681 39.7388C39.7898 39.608 39.9866 39.59 40.1186 39.6978L42.0401 41.2655C42.1489 41.3528 42.1825 41.5042 42.1255 41.6299C42.0686 41.7556 41.9313 41.83 41.7941 41.8069L38.4147 41.2681C38.3888 41.2604 38.3655 41.2553 38.3448 41.245Z" fill="#3F4553"/>
<path d="M48.6411 45.3889C48.6178 45.3787 48.5971 45.3684 48.5764 45.353L45.9195 43.462C45.8055 43.3799 45.7615 43.2336 45.8107 43.1027C45.8599 42.9719 45.992 42.8923 46.1318 42.9052L48.7214 43.154C48.8923 43.1694 49.0166 43.3208 49.001 43.4902C48.9855 43.6595 48.8327 43.7827 48.6618 43.7673L47.2194 43.6287L48.9415 44.8527C49.0813 44.9527 49.1124 45.1426 49.0114 45.2812C48.9234 45.4018 48.7706 45.4428 48.6411 45.3889Z" fill="#3F4553"/>
<path d="M43.4646 49.4275C42.2915 49.4275 41.2453 49.1658 40.3338 48.6449C37.9332 47.2722 37.3791 44.6088 37.3558 44.4959C37.3143 44.2881 37.4516 44.0854 37.6613 44.0443C37.8711 44.0032 38.0757 44.1392 38.1171 44.3471C38.1223 44.3702 38.6324 46.7872 40.73 47.9829C42.2578 48.8553 44.257 48.8836 46.673 48.0676C46.8776 47.9983 47.0977 48.1061 47.165 48.3088C47.235 48.509 47.1262 48.7296 46.9216 48.7963C45.6709 49.2146 44.5159 49.4275 43.4646 49.4275Z" fill="#3F4553"/>
<path d="M90.947 70.8078C94.3985 67.3879 94.3985 61.8431 90.947 58.4231C87.4955 55.0032 81.8996 55.0032 78.4481 58.4231C74.9966 61.8431 74.9966 67.3879 78.4481 70.8078C81.8996 74.2278 87.4955 74.2278 90.947 70.8078Z" fill="#F5E2D5"/>
<path d="M79.7186 67.4808C79.7186 67.4808 85.4027 64.2657 90.8796 63.4883C90.8796 63.4883 92.4515 68.6201 87.2154 70.6061C82.6759 72.3278 79.7186 67.4808 79.7186 67.4808Z" fill="#3F4553"/>
<path d="M80.84 65.0075C80.6536 65.0075 80.4723 64.9074 80.3791 64.7303L79.0895 62.262C78.9574 62.0105 79.0584 61.7 79.3122 61.5692C79.566 61.4383 79.8793 61.5384 80.0114 61.7898L81.301 64.2582C81.433 64.5097 81.332 64.8201 81.0783 64.951C81.0006 64.9895 80.9203 65.0075 80.84 65.0075Z" fill="#3F4553"/>
<path d="M87.7127 62.5364C87.4744 62.5364 87.2595 62.3722 87.2077 62.131L86.6069 59.3214C86.5474 59.0442 86.726 58.7723 87.0057 58.7133C87.2854 58.6542 87.5599 58.8313 87.6194 59.1084L88.2202 61.918C88.2798 62.1952 88.1011 62.4671 87.8214 62.5262C87.7826 62.5338 87.7463 62.5364 87.7127 62.5364Z" fill="#3F4553"/>
<path d="M88.606 69.5824C88.1295 68.42 86.4644 67.9453 84.8382 68.5252C83.937 68.8485 83.2378 69.4284 82.8572 70.0827C84.0354 70.6703 85.5011 70.9346 87.1843 70.2957C87.7307 70.0904 88.1968 69.8492 88.606 69.5824Z" fill="#4E5567"/>
<path d="M135.828 41.9172C140.313 40.0082 142.387 34.8582 140.46 30.4143C138.534 25.9705 133.336 23.9156 128.851 25.8246C124.367 27.7336 122.293 32.8836 124.219 37.3274C126.146 41.7713 131.344 43.8262 135.828 41.9172Z" fill="#F5E2D5"/>
<path d="M133.467 35.8207C130.414 35.8207 128.096 34.0605 128.063 34.0348C127.951 33.9476 127.931 33.7859 128.019 33.6756C128.107 33.5653 128.27 33.5447 128.381 33.632C128.568 33.7757 132.998 37.1293 137.613 33.9989C137.732 33.9194 137.893 33.9502 137.973 34.0656C138.053 34.1836 138.025 34.3427 137.906 34.4223C136.373 35.4615 134.845 35.8207 133.467 35.8207Z" fill="#3F4553"/>
<path d="M135.987 31.1713C135.987 31.7102 135.775 32.1489 135.51 32.1489C135.246 32.1489 135.034 31.7127 135.034 31.1713C135.034 30.6299 135.246 30.1937 135.51 30.1937C135.775 30.1937 135.987 30.6325 135.987 31.1713Z" fill="#3F4553"/>
<path d="M131.411 30.9841C131.411 31.5229 131.199 31.9617 130.935 31.9617C130.67 31.9617 130.458 31.5255 130.458 30.9841C130.458 30.4452 130.67 30.0065 130.935 30.0065C131.199 30.0065 131.411 30.4427 131.411 30.9841Z" fill="#3F4553"/>
<path d="M109.989 94.8773C121.9 94.8773 131.556 92.7152 131.556 90.0482C131.556 87.3813 121.9 85.2192 109.989 85.2192C98.0781 85.2192 88.4221 87.3813 88.4221 90.0482C88.4221 92.7152 98.0781 94.8773 109.989 94.8773Z" fill="#F4A17C"/>
<path opacity="0.5" d="M109.989 94.8773C121.9 94.8773 131.556 92.7152 131.556 90.0482C131.556 87.3813 121.9 85.2192 109.989 85.2192C98.0781 85.2192 88.4221 87.3813 88.4221 90.0482C88.4221 92.7152 98.0781 94.8773 109.989 94.8773Z" fill="#F4A17C"/>
<path d="M108.32 26.2114C108.32 26.2114 106.668 26.0625 106.518 24.5743C106.368 23.0861 110.275 21.2233 112.754 21.1489C115.234 21.0744 117.637 23.7558 117.637 25.9137C117.637 28.0716 118.013 31.125 119.89 31.7203C121.768 32.3156 123.047 35.9643 121.918 37.3037C120.792 38.6431 120.867 38.6431 121.993 39.8362C123.12 41.0268 122.143 43.1129 121.392 43.5593C120.641 44.0058 118.386 44.6755 113.352 44.229C108.318 43.7826 105.311 39.2409 105.086 37.3781C104.861 35.5178 106.588 34.2503 107.189 33.4318C107.789 32.6133 106.738 31.9436 106.813 31.0481C106.888 30.1551 108.015 29.411 108.315 28.6643C108.621 27.9228 108.32 26.2114 108.32 26.2114Z" fill="#3F4553"/>
<path d="M116.428 44.5036C115.545 44.5036 114.524 44.46 113.344 44.3548C108.066 43.8852 105.171 39.1229 104.961 37.3935C104.777 35.8848 105.813 34.7712 106.567 33.9578C106.779 33.7294 106.96 33.5318 107.09 33.3574C107.393 32.9417 107.209 32.5696 106.997 32.136C106.828 31.7973 106.657 31.4483 106.691 31.0404C106.738 30.4733 107.157 29.9858 107.564 29.5162C107.833 29.2032 108.087 28.9081 108.203 28.6207C108.449 28.0126 108.265 26.6861 108.211 26.3243C107.833 26.2601 106.528 25.9394 106.391 24.5846C106.354 24.2331 106.512 23.8584 106.854 23.471C107.939 22.2471 110.749 21.077 112.751 21.018C113.882 20.9872 115.092 21.5132 116.086 22.4703C117.124 23.4684 117.769 24.7873 117.769 25.9137C117.769 27.7817 118.051 31.0019 119.934 31.5997C120.921 31.9128 121.835 33.0597 122.265 34.5197C122.617 35.718 122.526 36.7905 122.024 37.3884C121.004 38.5995 121.004 38.5995 121.995 39.6438L122.096 39.749C122.658 40.3417 122.687 41.0858 122.614 41.6041C122.482 42.5484 121.925 43.3951 121.467 43.6697C121.079 43.8955 119.742 44.5036 116.428 44.5036ZM112.852 21.2746C112.82 21.2746 112.789 21.2746 112.756 21.2772C110.847 21.3336 108.071 22.4831 107.046 23.6429C106.751 23.9739 106.616 24.2844 106.644 24.5615C106.782 25.9291 108.315 26.0831 108.33 26.0856C108.39 26.0908 108.436 26.1344 108.447 26.1908C108.46 26.2627 108.75 27.9485 108.439 28.7182C108.307 29.0441 108.04 29.3546 107.758 29.683C107.38 30.1243 106.986 30.5785 106.947 31.0635C106.919 31.4022 107.077 31.7178 107.227 32.0257C107.458 32.4901 107.693 32.9699 107.3 33.5113C107.162 33.6986 106.976 33.9013 106.758 34.1348C106.038 34.9123 105.052 35.9771 105.22 37.3679C105.422 39.0434 108.237 43.6492 113.369 44.1059C118.911 44.5985 120.864 43.7313 121.332 43.4542C121.731 43.2181 122.236 42.4304 122.358 41.5734C122.423 41.1089 122.397 40.4469 121.907 39.9286L121.809 39.8234C120.742 38.6996 120.69 38.5815 121.83 37.2267C122.278 36.693 122.35 35.7103 122.021 34.5941C121.69 33.4626 120.892 32.1745 119.862 31.8486C117.821 31.202 117.518 27.8561 117.518 25.9189C117.518 24.8591 116.904 23.6121 115.915 22.6602C114.988 21.7749 113.88 21.2746 112.852 21.2746Z" fill="#3F4553"/>
<path d="M120.304 38.1788C120.258 38.1788 120.229 38.1737 120.222 38.1711C120.152 38.1557 120.108 38.0864 120.123 38.0171C120.139 37.9479 120.209 37.9042 120.279 37.9196C120.281 37.9196 120.405 37.9402 120.561 37.8273C120.76 37.6836 121.024 37.3218 121.156 36.4006C121.327 35.2152 119.432 33.6603 117.427 32.0155C116.537 31.2843 115.615 30.5273 114.807 29.7524C112.129 27.184 111.751 24.1459 111.746 24.1152C111.738 24.0459 111.79 23.9817 111.86 23.974C111.925 23.9663 111.994 24.0177 112.002 24.0869C112.005 24.1152 112.375 27.0685 114.985 29.5677C115.786 30.3349 116.702 31.0892 117.591 31.8154C119.742 33.5807 121.602 35.1074 121.41 36.434C121.291 37.2576 121.05 37.799 120.693 38.0428C120.535 38.1583 120.39 38.1788 120.304 38.1788Z" fill="#AC9B8F"/>
<path d="M107.533 24.9926C106.694 24.9926 106.427 24.6693 106.414 24.6513C106.37 24.5949 106.38 24.5153 106.437 24.4717C106.492 24.4281 106.575 24.4384 106.619 24.4948C106.621 24.4974 107.054 24.9772 108.651 24.5795C110.329 24.1638 112.039 22.8218 112.054 22.8065C112.111 22.7628 112.191 22.7705 112.235 22.827C112.279 22.8834 112.272 22.963 112.215 23.0066C112.142 23.063 110.446 24.3973 108.714 24.8258C108.232 24.949 107.843 24.9926 107.533 24.9926Z" fill="#AC9B8F"/>
<path d="M100.43 87.4388C100.43 87.4388 101.548 88.8936 102.799 89.5787C104.05 90.2638 106.295 89.7917 105.648 88.1675C105 86.5433 103.964 85.6863 103.188 85.3886C102.411 85.0884 100.391 85.8556 100.43 87.4388Z" fill="#E49621"/>
<path d="M104.07 90.0123C103.61 90.0123 103.133 89.9071 102.737 89.6915C101.476 89.0013 100.373 87.5772 100.326 87.5182C100.31 87.4977 100.3 87.4695 100.3 87.4438C100.285 86.769 100.621 86.1557 101.253 85.7144C101.89 85.2705 102.742 85.0781 103.234 85.2679C103.622 85.4168 104.948 86.0634 105.767 88.1212C105.997 88.6985 105.901 89.2117 105.497 89.5632C105.158 89.8609 104.625 90.0123 104.07 90.0123ZM100.559 87.3951C100.733 87.6132 101.753 88.8602 102.861 89.4683C103.633 89.8891 104.785 89.8429 105.329 89.3708C105.65 89.0911 105.717 88.6934 105.528 88.2161C104.749 86.2558 103.503 85.6477 103.141 85.5091C102.781 85.3706 102.032 85.4886 101.403 85.9274C101.085 86.1455 100.559 86.6279 100.559 87.3951Z" fill="#3F4553"/>
<path d="M102.022 89.0218L102.035 89.0602C102.279 89.2527 102.535 89.4323 102.799 89.576C104.05 90.2611 106.295 89.789 105.648 88.1648C103.62 86.928 102.022 89.0218 102.022 89.0218Z" fill="#F1BD54"/>
<path d="M104.071 90.0123C103.61 90.0123 103.133 89.9071 102.737 89.6915C102.488 89.5555 102.227 89.3785 101.955 89.163C101.934 89.1476 101.919 89.1245 101.911 89.0988L101.898 89.0578C101.885 89.0193 101.893 88.9757 101.919 88.9423C101.937 88.9218 103.61 86.769 105.715 88.0545C105.738 88.0699 105.756 88.0904 105.767 88.1161C105.997 88.6934 105.901 89.2066 105.497 89.5581C105.158 89.8609 104.625 90.0123 104.071 90.0123ZM102.19 89.0218C102.424 89.2015 102.649 89.3503 102.861 89.4683C103.633 89.8891 104.785 89.8429 105.329 89.3708C105.64 89.0988 105.715 88.7165 105.544 88.2572C103.853 87.2539 102.499 88.6575 102.19 89.0218Z" fill="#3F4553"/>
<path d="M102.799 89.5788C103.972 90.2203 106.018 89.8482 105.735 88.4601C105.316 88.904 104.48 89.448 103.317 89.022C102.069 88.5679 100.999 87.3234 100.556 86.7512C100.474 86.9591 100.422 87.1874 100.429 87.4389C100.429 87.4389 101.548 88.8937 102.799 89.5788Z" fill="#F1BD54"/>
<path d="M104.07 90.0098C103.607 90.0098 103.128 89.9046 102.737 89.6891C101.476 88.9988 100.372 87.5748 100.326 87.5158C100.31 87.4952 100.3 87.467 100.3 87.4413C100.295 87.1925 100.339 86.9436 100.437 86.7024C100.455 86.6587 100.494 86.628 100.541 86.6228C100.585 86.6151 100.631 86.6357 100.66 86.6716C101.064 87.1925 102.133 88.4523 103.361 88.9013C104.555 89.3375 105.352 88.6755 105.64 88.3702C105.673 88.3343 105.722 88.3214 105.769 88.3343C105.816 88.3471 105.852 88.3856 105.86 88.4318C105.958 88.9193 105.795 89.3478 105.399 89.6352C105.062 89.8866 104.575 90.0098 104.07 90.0098ZM100.559 87.3952C100.732 87.6133 101.753 88.8603 102.861 89.4684C103.583 89.8635 104.679 89.8481 105.249 89.4325C105.497 89.2529 105.627 89.0194 105.632 88.7371C105.21 89.0963 104.397 89.5556 103.27 89.1451C102.113 88.7217 101.1 87.6312 100.603 87.0205C100.574 87.1437 100.559 87.2669 100.559 87.3952Z" fill="#3F4553"/>
<path d="M119.188 87.3848C119.188 87.3848 118.07 88.8397 116.819 89.5248C115.568 90.2098 113.323 89.7377 113.97 88.1135C114.618 86.4893 115.654 85.6323 116.431 85.3347C117.207 85.0345 119.227 85.8017 119.188 87.3848Z" fill="#E49621"/>
<path d="M115.548 89.9584C114.994 89.9584 114.46 89.8045 114.118 89.5068C113.714 89.1553 113.619 88.6447 113.849 88.0648C114.667 86.0095 115.996 85.3629 116.382 85.2115C116.874 85.0217 117.726 85.2141 118.363 85.658C118.994 86.0968 119.334 86.7126 119.316 87.3874C119.316 87.4131 119.305 87.4413 119.29 87.4618C119.243 87.5234 118.14 88.9475 116.879 89.6351C116.485 89.8507 116.009 89.9584 115.548 89.9584ZM116.83 85.3963C116.69 85.3963 116.571 85.4142 116.475 85.4502C116.112 85.5887 114.869 86.1994 114.087 88.1572C113.898 88.6344 113.966 89.0322 114.287 89.3118C114.83 89.7865 115.983 89.8301 116.754 89.4093C117.863 88.8038 118.883 87.5568 119.057 87.3387C119.057 86.5715 118.531 86.0891 118.212 85.8684C117.749 85.5451 117.221 85.3963 116.83 85.3963Z" fill="#3F4553"/>
<path d="M117.595 88.9678L117.583 89.0062C117.339 89.1987 117.083 89.3783 116.819 89.522C115.568 90.2071 113.323 89.735 113.97 88.1108C115.998 86.8714 117.595 88.9678 117.595 88.9678Z" fill="#F1BD54"/>
<path d="M115.547 89.9584C114.993 89.9584 114.46 89.8045 114.118 89.5068C113.714 89.1553 113.618 88.6447 113.849 88.0648C113.859 88.0391 113.877 88.016 113.9 88.0032C116.006 86.7177 117.681 88.8679 117.697 88.891C117.723 88.9243 117.73 88.968 117.717 89.0065L117.705 89.0449C117.697 89.0706 117.681 89.0911 117.66 89.1065C117.389 89.3221 117.124 89.4991 116.878 89.6351C116.485 89.8506 116.008 89.9584 115.547 89.9584ZM114.074 88.1982C113.903 88.6575 113.978 89.0424 114.289 89.3118C114.833 89.7865 115.985 89.8301 116.757 89.4093C116.969 89.2938 117.194 89.145 117.427 88.9628C117.117 88.601 115.762 87.2001 114.074 88.1982Z" fill="#3F4553"/>
<path d="M116.819 89.5247C115.646 90.1662 113.6 89.7942 113.882 88.406C114.302 88.8499 115.138 89.3939 116.301 88.968C117.549 88.5138 118.619 87.2693 119.062 86.6971C119.144 86.905 119.196 87.1333 119.188 87.3848C119.188 87.3848 118.07 88.8397 116.819 89.5247Z" fill="#F1BD54"/>
<path d="M115.548 89.956C115.043 89.956 114.556 89.8302 114.214 89.5839C113.818 89.2965 113.655 88.868 113.753 88.3805C113.763 88.3343 113.797 88.2958 113.844 88.283C113.89 88.2702 113.942 88.283 113.973 88.3189C114.26 88.6243 115.058 89.2837 116.252 88.8501C117.479 88.401 118.551 87.1412 118.953 86.6203C118.981 86.5844 119.028 86.5664 119.072 86.5715C119.119 86.5767 119.157 86.6075 119.175 86.6511C119.271 86.8923 119.318 87.1412 119.313 87.3901C119.313 87.4183 119.302 87.4439 119.287 87.4645C119.24 87.5261 118.137 88.9501 116.876 89.6378C116.49 89.8508 116.011 89.956 115.548 89.956ZM113.983 88.6807C113.991 88.963 114.118 89.1965 114.367 89.3761C114.936 89.7917 116.032 89.8071 116.754 89.412C117.863 88.8064 118.883 87.5594 119.056 87.3413C119.056 87.2156 119.041 87.0898 119.01 86.9667C118.513 87.5748 117.5 88.6679 116.343 89.0912C115.219 89.4992 114.406 89.0399 113.983 88.6807Z" fill="#3F4553"/>
<path d="M110.423 31.6178C110.423 31.6178 110.122 34.0759 109.897 34.5968C109.672 35.1177 106.891 35.2665 105.689 35.713C104.487 36.1594 101.932 38.3199 100.355 39.8081C98.7775 41.2963 97.348 45.2427 97.348 45.7636C97.348 46.2844 98.9251 44.2753 100.355 42.859C101.781 41.4452 104.938 39.6567 104.938 39.6567C104.938 39.6567 106.067 45.1965 106.217 45.7943C106.367 46.3896 106.215 47.3826 106.215 47.6059C106.215 47.8291 103.058 53.2637 102.532 57.8053C102.007 62.3469 102.983 70.9837 102.983 70.9837C102.983 70.9837 101.256 74.3348 101.105 78.0579C100.955 81.781 100.129 86.1738 100.204 86.4714C100.279 86.7691 100.054 87.3643 100.43 87.4388C100.805 87.5132 101.105 86.4714 102.007 86.2482C102.908 86.025 104.109 86.6202 104.262 86.025C104.412 85.4297 104.262 84.2391 104.412 82.6739C104.563 81.1113 107.043 74.7068 107.194 72.5489C107.344 70.391 109.146 59.8169 109.524 59.2961C109.9 58.7752 109.9 58.7752 109.9 58.7752C109.9 58.7752 110.275 57.8823 110.5 58.8496C110.726 59.8169 110.5 69.4211 110.951 70.8374C111.402 72.2513 114.952 81.7502 115.402 82.8663C115.853 83.9825 114.877 85.3245 115.177 85.9198C115.478 86.515 116.304 86.2918 117.055 86.2918C117.806 86.2918 118.588 87.3849 119.188 87.3849C119.789 87.3849 119.986 86.515 119.986 85.5477C119.986 84.5804 117.337 75.1558 117.187 72.8465C117.036 70.5372 116.511 68.7514 116.511 68.7514C116.511 68.7514 117.487 58.1055 117.262 55.7962C117.036 53.4869 115.084 47.6059 115.084 47.6059L116.436 40.2546C116.436 40.2546 120.569 42.5639 121.995 44.4242C123.422 46.2844 124.401 46.21 124.248 44.7218C124.098 43.2336 120.566 38.8408 118.689 36.9035C116.811 34.9688 114.255 35.3409 113.504 34.82C112.753 34.2991 113.204 29.1622 113.204 29.1622L110.423 31.6178Z" fill="#FED9CE"/>
<path d="M100.471 87.5721C100.45 87.5721 100.427 87.5696 100.406 87.5644C100.044 87.4926 100.067 87.1077 100.085 86.828C100.093 86.7074 100.101 86.5817 100.08 86.5021C100.049 86.3815 100.101 85.9813 100.272 84.7702C100.515 83.0433 100.883 80.4338 100.979 78.0527C101.121 74.5477 102.67 71.33 102.854 70.9605C102.784 70.3319 101.903 62.1416 102.406 57.7924C102.828 54.1463 104.959 49.8792 105.762 48.2729C105.93 47.9368 106.075 47.6469 106.088 47.5904C106.085 47.5519 106.096 47.4518 106.106 47.321C106.142 46.9233 106.202 46.2613 106.093 45.8276C105.958 45.2888 105.044 40.8242 104.847 39.8619C104.198 40.2417 101.665 41.7453 100.445 42.9538C99.948 43.4465 99.4301 44.0161 98.9718 44.519C97.8349 45.7661 97.5475 46.0483 97.3377 45.9688C97.2937 45.9508 97.2186 45.9046 97.2186 45.7686C97.2186 45.1836 98.661 41.2321 100.264 39.7182C101.548 38.5071 104.324 36.0849 105.642 35.5974C106.15 35.4101 106.919 35.2741 107.665 35.1433C108.558 34.9867 109.672 34.7917 109.775 34.5505C109.99 34.0528 110.288 31.6331 110.291 31.6075C110.293 31.5767 110.309 31.5485 110.332 31.5279L113.113 29.0698C113.152 29.0339 113.212 29.0287 113.258 29.0518C113.305 29.0749 113.333 29.1263 113.328 29.1776C113.157 31.1353 113.072 34.3709 113.574 34.7199C113.8 34.8764 114.248 34.9508 114.768 35.0381C115.918 35.2305 117.49 35.4948 118.777 36.8214C120.646 38.7483 124.215 43.1565 124.373 44.714C124.461 45.5941 124.155 45.8507 123.964 45.9251C123.474 46.1176 122.736 45.6121 121.887 44.5062C120.649 42.8923 117.293 40.9037 116.524 40.4624L115.211 47.6032C115.382 48.1164 117.169 53.5561 117.386 55.791C117.606 58.0515 116.7 68.0508 116.638 68.7462C116.7 68.9668 117.171 70.6911 117.311 72.8439C117.397 74.1474 118.311 77.8474 119.046 80.8213C119.639 83.2229 120.11 85.1217 120.11 85.5528C120.11 86.8203 119.781 87.5182 119.183 87.5182C118.857 87.5182 118.515 87.2616 118.155 86.9922C117.785 86.7151 117.402 86.4252 117.05 86.4252C116.889 86.4252 116.723 86.4354 116.563 86.4457C115.957 86.4842 115.33 86.5227 115.056 85.9813C114.9 85.6759 115.022 85.25 115.162 84.7573C115.327 84.1697 115.514 83.5052 115.278 82.9202C114.822 81.7912 111.283 72.3179 110.824 70.881C110.555 70.0317 110.524 66.4497 110.495 63.2885C110.477 61.2204 110.462 59.2703 110.371 58.8829C110.296 58.5647 110.223 58.5314 110.223 58.5314C110.182 58.5391 110.076 58.6879 110.016 58.829C110.014 58.8393 110.008 58.847 110.003 58.8547L109.628 59.3755C109.296 59.8348 107.489 70.1856 107.323 72.5617C107.238 73.7728 106.43 76.3078 105.715 78.5453C105.145 80.326 104.609 82.0093 104.542 82.6918C104.467 83.4667 104.467 84.1595 104.467 84.7188C104.467 85.2936 104.467 85.7503 104.389 86.0634C104.275 86.5175 103.752 86.4534 103.198 86.3867C102.822 86.3405 102.398 86.2892 102.04 86.379C101.577 86.4944 101.279 86.8537 101.038 87.1436C100.847 87.3694 100.681 87.5721 100.471 87.5721ZM104.938 39.5309C104.956 39.5309 104.974 39.5335 104.992 39.5412C105.031 39.5592 105.057 39.5925 105.065 39.6336C105.075 39.69 106.197 45.1785 106.344 45.7635C106.463 46.2382 106.401 46.9284 106.365 47.3415C106.355 47.4621 106.344 47.5545 106.344 47.6058C106.344 47.6751 106.295 47.7777 105.992 48.3858C105.194 49.9818 103.079 54.2181 102.662 57.8206C102.144 62.2955 103.102 70.8836 103.112 70.9708C103.115 70.9965 103.11 71.0221 103.1 71.0426C103.081 71.076 101.383 74.4117 101.235 78.0629C101.139 80.4569 100.772 83.0741 100.528 84.8061C100.412 85.6272 100.313 86.3354 100.331 86.4431C100.36 86.5586 100.352 86.7048 100.342 86.8434C100.324 87.1539 100.334 87.2899 100.456 87.313C100.546 87.3284 100.694 87.1487 100.839 86.9743C101.087 86.6715 101.429 86.2584 101.978 86.1224C102.385 86.0223 102.833 86.0762 103.229 86.125C103.757 86.1891 104.081 86.2148 104.138 85.9941C104.21 85.7118 104.21 85.2705 104.21 84.7137C104.21 84.1518 104.21 83.4513 104.286 82.6636C104.353 81.9528 104.871 80.3363 105.469 78.4632C106.179 76.2411 106.984 73.7214 107.067 72.5411C107.196 70.6732 108.986 59.8246 109.421 59.2216L109.788 58.711C109.843 58.5852 110.008 58.2542 110.252 58.2696C110.48 58.2876 110.576 58.5929 110.627 58.8187C110.723 59.2318 110.739 61.0177 110.759 63.2783C110.785 66.265 110.816 69.9829 111.075 70.7938C111.534 72.2281 115.068 81.6885 115.524 82.815C115.794 83.4821 115.584 84.2211 115.418 84.8163C115.299 85.2397 115.185 85.64 115.296 85.8581C115.493 86.2481 115.985 86.2173 116.555 86.1814C116.723 86.1711 116.892 86.1609 117.06 86.1609C117.5 86.1609 117.917 86.4765 118.321 86.7793C118.645 87.023 118.953 87.2539 119.191 87.2539C119.794 87.2539 119.859 86.0582 119.859 85.5451C119.859 85.1448 119.346 83.069 118.803 80.8751C118.026 77.7371 117.148 74.1807 117.06 72.8542C116.912 70.5885 116.394 68.8052 116.389 68.7872C116.384 68.7718 116.384 68.7564 116.384 68.741C116.394 68.6333 117.358 58.0798 117.135 55.809C116.915 53.5407 114.98 47.7059 114.962 47.6469C114.955 47.6263 114.955 47.6058 114.957 47.5827L116.309 40.2314C116.317 40.1904 116.343 40.157 116.381 40.1391C116.42 40.1211 116.464 40.1237 116.501 40.1442C116.671 40.2391 120.672 42.4868 122.102 44.3471C122.985 45.4992 123.609 45.7866 123.876 45.6814C124.085 45.5993 124.176 45.2554 124.124 44.7346C123.974 43.2566 120.395 38.8458 118.601 36.9933C117.373 35.7283 115.848 35.4717 114.734 35.2844C114.16 35.1869 113.706 35.1125 113.434 34.9226C112.733 34.4351 112.961 30.6735 113.054 29.4675L110.552 31.6793C110.508 32.036 110.239 34.1477 110.024 34.6455C109.871 34.997 109.048 35.1587 107.719 35.3896C106.986 35.5179 106.225 35.6513 105.741 35.8309C104.63 36.244 102.219 38.23 100.45 39.8979C98.9459 41.3168 97.6252 44.9219 97.4957 45.666C97.7391 45.4864 98.2907 44.8834 98.7853 44.3394C99.2463 43.8339 99.7668 43.2617 100.269 42.7665C101.693 41.3553 104.752 39.6182 104.881 39.5438C104.894 39.5361 104.917 39.5309 104.938 39.5309Z" fill="#3F4553"/>
<path d="M115.174 85.9198C115.474 86.5151 116.301 86.2919 117.051 86.2919C117.802 86.2919 118.585 87.3849 119.185 87.3849C119.786 87.3849 119.983 86.5151 119.983 85.5478C119.983 84.5804 117.334 75.1559 117.184 72.8466C117.033 70.5373 116.508 68.7515 116.508 68.7515C116.508 68.7515 117.484 58.1056 117.259 55.7963C117.222 55.4294 117.142 54.9701 117.033 54.462L103.726 53.1791C103.177 54.6699 102.708 56.2889 102.532 57.8079C102.006 62.3496 102.982 70.9863 102.982 70.9863C102.982 70.9863 101.255 74.3374 101.105 78.0605C100.955 81.7836 100.129 86.1764 100.204 86.4741C100.279 86.7717 100.054 87.367 100.429 87.4414C100.805 87.5158 101.105 86.4741 102.006 86.2508C102.907 86.0276 104.109 86.6229 104.262 86.0276C104.412 85.4323 104.262 84.2417 104.412 82.6765C104.562 81.1139 107.043 74.7095 107.193 72.5515C107.343 70.3936 109.146 59.8196 109.524 59.2987C109.899 58.7779 109.899 58.7779 109.899 58.7779C109.899 58.7779 110.275 57.8849 110.5 58.8523C110.725 59.8196 110.5 69.4237 110.95 70.8401C111.401 72.2539 114.951 81.7528 115.402 82.869C115.853 83.9826 114.874 85.3245 115.174 85.9198Z" fill="#3F4553"/>
<path d="M100.471 87.5722C100.45 87.5722 100.427 87.5696 100.406 87.5645C100.044 87.4926 100.067 87.1077 100.085 86.8281C100.093 86.7075 100.101 86.5817 100.08 86.5022C100.049 86.3816 100.101 85.9813 100.271 84.7702C100.515 83.0434 100.883 80.4339 100.978 78.0527C101.121 74.5477 102.669 71.3301 102.853 70.9606C102.783 70.3319 101.903 62.1416 102.405 57.7924C102.561 56.4453 102.965 54.8776 103.607 53.1328C103.628 53.0789 103.679 53.0455 103.741 53.0481L117.049 54.3311C117.106 54.3362 117.153 54.3772 117.163 54.4311C117.28 54.9751 117.355 55.4293 117.391 55.7808C117.611 58.0413 116.705 68.0406 116.643 68.736C116.705 68.9566 117.176 70.6809 117.316 72.8337C117.401 74.1372 118.315 77.8372 119.051 80.8111C119.644 83.2127 120.115 85.1115 120.115 85.5426C120.115 86.8101 119.786 87.508 119.188 87.508C118.862 87.508 118.52 87.2514 118.16 86.982C117.79 86.7049 117.407 86.415 117.054 86.415C116.894 86.415 116.728 86.4252 116.568 86.4355C115.962 86.474 115.335 86.5125 115.06 85.9711C114.905 85.6657 115.027 85.2398 115.167 84.7471C115.332 84.1595 115.519 83.495 115.283 82.9099C114.827 81.781 111.287 72.3077 110.829 70.8708C110.56 70.0215 110.529 66.4395 110.5 63.2783C110.482 61.2102 110.467 59.2601 110.376 58.8727C110.301 58.5545 110.228 58.5212 110.228 58.5212C110.187 58.5289 110.081 58.6777 110.021 58.8188C110.019 58.8291 110.013 58.8368 110.008 58.8445L109.633 59.3653C109.301 59.8246 107.494 70.1754 107.328 72.5514C107.243 73.7625 106.435 76.2976 105.72 78.5351C105.15 80.3158 104.614 81.9991 104.547 82.6816C104.472 83.4565 104.472 84.1493 104.472 84.7086C104.472 85.2834 104.472 85.7376 104.394 86.0532C104.28 86.5073 103.757 86.4432 103.203 86.3765C102.827 86.3303 102.403 86.279 102.045 86.3688C101.582 86.4842 101.284 86.8435 101.043 87.1334C100.846 87.3695 100.681 87.5722 100.471 87.5722ZM103.817 53.315C103.203 55.0033 102.814 56.5198 102.662 57.8207C102.144 62.2956 103.102 70.8836 103.112 70.9709C103.115 70.9965 103.11 71.0222 103.099 71.0427C103.081 71.0761 101.382 74.4117 101.235 78.063C101.139 80.457 100.771 83.0742 100.528 84.8061C100.411 85.6272 100.313 86.3354 100.331 86.4432C100.359 86.5586 100.352 86.7049 100.341 86.8435C100.323 87.1539 100.334 87.2899 100.455 87.313C100.546 87.3284 100.694 87.1488 100.839 86.9743C101.087 86.6715 101.429 86.2584 101.978 86.1224C102.385 86.0224 102.833 86.0763 103.229 86.125C103.757 86.1892 104.081 86.2148 104.138 85.9942C104.21 85.7119 104.21 85.2706 104.21 84.7138C104.21 84.1518 104.21 83.4514 104.285 82.6636C104.353 81.9529 104.87 80.3364 105.469 78.4633C106.178 76.2412 106.984 73.7215 107.066 72.5412C107.196 70.6732 108.985 59.8246 109.42 59.2216L109.788 58.711C109.842 58.5853 110.008 58.2543 110.252 58.2697C110.479 58.2877 110.575 58.593 110.627 58.8188C110.723 59.2319 110.738 61.0178 110.759 63.2783C110.785 66.265 110.816 69.983 111.075 70.7938C111.533 72.2281 115.068 81.6886 115.524 82.815C115.793 83.4821 115.584 84.2211 115.418 84.8164C115.299 85.2398 115.185 85.6401 115.296 85.8582C115.493 86.2482 115.985 86.2174 116.555 86.1815C116.723 86.1712 116.891 86.1609 117.06 86.1609C117.5 86.1609 117.917 86.4765 118.321 86.7793C118.644 87.0231 118.953 87.254 119.191 87.254C119.794 87.254 119.859 86.0583 119.859 85.5451C119.859 85.1448 119.346 83.069 118.802 80.8752C118.025 77.7371 117.148 74.1808 117.06 72.8542C116.912 70.586 116.394 68.8052 116.389 68.7873C116.384 68.7719 116.384 68.7565 116.384 68.7411C116.394 68.6333 117.357 58.0798 117.135 55.809C117.104 55.4857 117.036 55.0726 116.933 54.5799L103.817 53.315Z" fill="#3F4553"/>
<path d="M118.689 36.9061C116.811 34.9714 114.255 35.3435 113.504 34.8226C112.955 34.4429 113.049 31.6076 113.137 30.1014L112.652 29.6498L110.423 31.6204C110.423 31.6204 110.122 34.0785 109.897 34.5994C109.672 35.1203 106.891 35.2691 105.689 35.7155C104.506 36.1543 102.017 38.2506 100.435 39.7337L101.991 41.535C103.402 40.5292 104.938 39.6619 104.938 39.6619C104.938 39.6619 106.067 45.2016 106.217 45.7995C106.368 46.3948 106.215 47.3878 106.215 47.611C106.215 47.7752 104.493 50.785 103.382 54.1746C105.536 55.1573 109.778 56.2735 117.207 55.3857C116.824 52.8608 115.081 47.6084 115.081 47.6084L116.433 40.2572C116.433 40.2572 117.733 40.9833 119.126 41.9481L121.276 39.8903C120.359 38.7356 119.403 37.6425 118.689 36.9061Z" fill="#9776A5"/>
<path d="M112.088 55.8373C107.789 55.8373 105.021 55.0598 103.33 54.2875C103.27 54.2593 103.242 54.1926 103.26 54.131C104.07 51.66 105.212 49.3712 105.761 48.273C105.93 47.9369 106.075 47.6444 106.088 47.588C106.085 47.5495 106.095 47.4494 106.106 47.3185C106.142 46.9208 106.202 46.2588 106.093 45.8252C105.958 45.2863 105.044 40.8217 104.847 39.8595C104.423 40.1058 103.2 40.832 102.069 41.6351C102.014 41.6736 101.939 41.6659 101.895 41.6146L100.339 39.8159C100.295 39.7645 100.297 39.6876 100.349 39.6388C101.711 38.361 104.358 36.0697 105.648 35.5924C106.155 35.4051 106.924 35.2691 107.67 35.1382C108.563 34.9817 109.677 34.7867 109.78 34.5455C109.995 34.0477 110.293 31.6255 110.296 31.6024C110.298 31.5717 110.314 31.5434 110.337 31.5229L112.567 29.5523C112.616 29.5087 112.694 29.5087 112.743 29.5549L113.227 30.0065C113.256 30.0321 113.271 30.0706 113.269 30.1065C113.082 33.2164 113.307 34.5276 113.582 34.7149C113.807 34.8714 114.255 34.9458 114.776 35.033C115.925 35.2255 117.497 35.4898 118.784 36.8163C119.533 37.5861 120.501 38.7048 121.379 39.8107C121.421 39.862 121.415 39.9365 121.369 39.9826L119.219 42.0405C119.175 42.0841 119.105 42.0892 119.056 42.0533C117.963 41.2964 116.92 40.6831 116.531 40.4599L115.219 47.6008C115.364 48.0395 116.977 52.9609 117.339 55.3677C117.345 55.4011 117.337 55.437 117.313 55.4652C117.29 55.4935 117.262 55.5114 117.225 55.514C115.309 55.7398 113.603 55.8373 112.088 55.8373ZM103.542 54.1027C105.808 55.1086 109.969 56.1016 117.06 55.2728C116.645 52.7403 114.978 47.6983 114.96 47.647C114.952 47.6264 114.952 47.6059 114.954 47.5828L116.306 40.2315C116.314 40.1905 116.34 40.1571 116.379 40.1392C116.418 40.1212 116.462 40.1238 116.498 40.1443C116.511 40.152 117.764 40.8525 119.113 41.7813L121.102 39.8774C120.25 38.81 119.318 37.7375 118.595 36.9934C117.368 35.7284 115.843 35.4718 114.729 35.2845C114.154 35.187 113.701 35.1126 113.429 34.9227C112.981 34.6122 112.836 33.006 113.004 30.1476L112.652 29.8166L110.547 31.6769C110.503 32.0335 110.234 34.1452 110.019 34.643C109.866 34.9946 109.042 35.1562 107.714 35.3871C106.981 35.5154 106.22 35.6489 105.736 35.8285C104.666 36.2262 102.354 38.1147 100.613 39.7363L102.014 41.3554C103.389 40.3855 104.86 39.5516 104.873 39.5439C104.909 39.5234 104.954 39.5208 104.992 39.5387C105.031 39.5567 105.057 39.5901 105.065 39.6311C105.075 39.6876 106.196 45.176 106.344 45.761C106.463 46.2357 106.401 46.926 106.365 47.3391C106.354 47.4597 106.344 47.552 106.344 47.6033C106.344 47.6726 106.295 47.7753 105.992 48.3834C105.456 49.4662 104.345 51.6908 103.542 54.1027Z" fill="#3F4553"/>
<path d="M115.03 35.2074C114.349 35.0893 113.795 35.0201 113.504 34.8199C112.956 34.4402 113.049 31.6049 113.137 30.0987L112.653 29.6471L110.423 31.6177C110.423 31.6177 110.123 34.0758 109.897 34.5967C109.809 34.7968 109.34 34.9431 108.732 35.0714C109.232 36.5596 110.33 39.223 111.772 39.223C113.176 39.2256 114.413 36.7161 115.03 35.2074Z" fill="#FED9CE"/>
<path d="M111.772 39.354C110.257 39.354 109.141 36.6983 108.608 35.1126C108.597 35.0767 108.6 35.0407 108.618 35.0074C108.636 34.9766 108.667 34.9535 108.703 34.9458C109.524 34.7739 109.739 34.6328 109.778 34.5455C109.993 34.0477 110.291 31.6255 110.293 31.6024C110.296 31.5717 110.312 31.5434 110.335 31.5229L112.564 29.5523C112.614 29.5087 112.691 29.5087 112.741 29.5549L113.225 30.0065C113.253 30.0321 113.269 30.0706 113.266 30.1065C113.08 33.2164 113.305 34.5276 113.58 34.7149C113.805 34.8714 114.255 34.9458 114.776 35.033L115.05 35.0792C115.089 35.0869 115.123 35.11 115.141 35.1434C115.159 35.1767 115.162 35.2178 115.149 35.2537C114.385 37.1242 113.178 39.354 111.772 39.354ZM108.9 35.1665C109.343 36.4494 110.42 39.0948 111.772 39.0948C113.054 39.0948 114.227 36.7855 114.848 35.305L114.735 35.2845C114.16 35.187 113.704 35.1126 113.432 34.9227C112.984 34.6122 112.839 33.006 113.007 30.1476L112.655 29.8166L110.55 31.6769C110.506 32.0335 110.236 34.1452 110.022 34.643C109.926 34.856 109.599 35.0099 108.9 35.1665Z" fill="#3F4553"/>
<path d="M113.121 30.3706C112.844 30.3886 112.538 30.4578 112.323 30.5117C112.013 30.5887 111.412 30.9146 110.84 31.2507L110.425 31.6176C110.425 31.6176 110.304 32.6183 110.156 33.4779C110.674 33.2932 112.178 32.7107 113.074 31.864C113.077 31.3354 113.098 30.8145 113.121 30.3706Z" fill="#C6FF00"/>
<path d="M113.121 30.3706C112.844 30.3886 112.538 30.4578 112.323 30.5117C112.013 30.5887 111.412 30.9146 110.84 31.2507L110.425 31.6176C110.425 31.6176 110.304 32.6183 110.156 33.4779C110.674 33.2932 112.178 32.7107 113.074 31.864C113.077 31.3354 113.098 30.8145 113.121 30.3706Z" fill="#BFB2AA"/>
<path d="M110.195 68.5717C118.42 68.5717 125.087 61.965 125.087 53.8153C125.087 45.6655 118.42 39.0588 110.195 39.0588C101.97 39.0588 95.3022 45.6655 95.3022 53.8153C95.3022 61.965 101.97 68.5717 110.195 68.5717Z" fill="#FA6E5A"/>
<path d="M115.091 66.0828C106.867 66.0828 100.199 59.4757 100.199 51.3264C100.199 46.5821 102.462 42.3637 105.973 39.6644C99.8051 41.4682 95.3019 47.1183 95.3019 53.8153C95.3019 61.9646 101.97 68.5717 110.194 68.5717C113.631 68.5717 116.793 67.4145 119.312 65.4798C117.974 65.8699 116.557 66.0828 115.091 66.0828Z" fill="#E3604D"/>
<path d="M99.7455 48.3552C99.484 48.3552 99.2458 48.1755 99.1862 47.9138C99.1137 47.6059 99.3079 47.3006 99.6187 47.2313L103.726 46.2947L101.354 45.5609C101.051 45.466 100.882 45.1478 100.976 44.8476C101.069 44.5474 101.393 44.3806 101.695 44.473L106.095 45.8355C106.344 45.9124 106.509 46.1434 106.499 46.4025C106.489 46.6591 106.307 46.8772 106.054 46.9362L99.875 48.3449C99.831 48.3526 99.787 48.3552 99.7455 48.3552Z" fill="#3F4553"/>
<path d="M120.333 48.3552C120.289 48.3552 120.242 48.3501 120.198 48.3398L114.307 46.9312C114.053 46.8696 113.874 46.6489 113.867 46.3923C113.859 46.1357 114.027 45.9048 114.278 45.8304L118.901 44.4679C119.206 44.3781 119.525 44.55 119.615 44.8528C119.706 45.1556 119.533 45.4712 119.23 45.561L116.656 46.3205L120.47 47.2314C120.778 47.3058 120.97 47.6137 120.895 47.919C120.827 48.1808 120.592 48.3552 120.333 48.3552Z" fill="#3F4553"/>
<path d="M98.8185 50.7672C100.32 57.1563 104.844 61.798 110.194 61.798C115.544 61.798 120.071 57.1563 121.57 50.7672L119.595 50.4413C113.273 49.3944 106.836 49.4073 100.52 50.4798L98.8185 50.7672Z" fill="#3F4553"/>
<path d="M117.95 57.4537C115.987 56.1631 113.281 55.3651 110.288 55.3651C107.237 55.3651 104.485 56.199 102.514 57.5333C104.588 59.84 107.266 61.2384 110.195 61.2384C113.16 61.2384 115.866 59.8092 117.95 57.4537Z" fill="#4E5567"/>
<path d="M108.245 25.3903C108.245 25.3903 107.719 26.953 107.269 27.8484C106.818 28.7414 107.494 31.4971 108.019 32.3157C108.545 33.1342 109.521 32.9854 109.897 32.911C110.272 32.8365 111.925 31.7948 112.528 31.1995C113.129 30.6042 113.429 30.3066 113.429 30.3066C113.429 30.3066 113.73 30.3066 114.03 29.7113C114.33 29.116 113.129 27.7766 112.077 26.137C111.026 24.5 110.575 24.5744 110.575 24.5744L108.245 25.3903Z" fill="#FED9CE"/>
<path d="M109.333 33.0982C108.553 33.0982 108.134 32.7288 107.911 32.3824C107.37 31.5382 106.673 28.7414 107.152 27.7894C107.595 26.9144 108.118 25.3646 108.123 25.3492C108.136 25.3108 108.165 25.2825 108.204 25.2697L110.534 24.4512C110.643 24.4332 111.145 24.4409 112.189 26.0677C112.469 26.5039 112.756 26.9119 113.033 27.307C113.831 28.4437 114.406 29.2648 114.149 29.7677C113.89 30.2809 113.616 30.3989 113.494 30.4271L112.621 31.2919C112.005 31.9025 110.327 32.9597 109.926 33.0392C109.705 33.0803 109.509 33.0982 109.333 33.0982ZM108.349 25.4904C108.248 25.788 107.789 27.1018 107.385 27.9049C106.955 28.7542 107.639 31.4843 108.131 32.2464C108.465 32.7672 109.053 32.9469 109.876 32.7852C110.2 32.7211 111.837 31.705 112.44 31.1071L113.341 30.2142C113.365 30.1911 113.398 30.1757 113.432 30.1757C113.429 30.1757 113.665 30.15 113.916 29.6522C114.103 29.2853 113.507 28.436 112.818 27.4533C112.541 27.0556 112.254 26.645 111.969 26.2063C111.099 24.8515 110.666 24.7155 110.596 24.7026L108.349 25.4904Z" fill="#3F4553"/>
<path d="M108.773 29.1032C108.757 29.1032 108.742 29.1007 108.726 29.0955C107.942 28.7953 108.012 28.5926 108.032 28.5285C108.084 28.3719 108.687 27.4893 108.871 27.2224C108.913 27.1634 108.993 27.148 109.05 27.1891C109.11 27.2301 109.125 27.3097 109.084 27.3661C108.739 27.8665 108.369 28.4258 108.289 28.5798C108.353 28.6465 108.584 28.7671 108.817 28.8569C108.884 28.8826 108.918 28.957 108.892 29.0237C108.874 29.0699 108.825 29.1032 108.773 29.1032Z" fill="#3F4553"/>
<path d="M111.396 27.9305C111.347 27.9305 111.3 27.9023 111.28 27.8561C111.161 27.6046 111.005 27.4456 110.816 27.3814C110.562 27.2967 110.327 27.4071 110.324 27.4071C110.259 27.4379 110.182 27.4122 110.151 27.3506C110.12 27.2865 110.145 27.2095 110.208 27.1787C110.221 27.171 110.542 27.0171 110.902 27.1402C111.158 27.2275 111.365 27.4327 111.515 27.7483C111.546 27.8125 111.518 27.8895 111.453 27.9202C111.432 27.9254 111.414 27.9305 111.396 27.9305Z" fill="#3F4553"/>
<path d="M108.618 27.2173C108.576 27.2173 108.537 27.1993 108.512 27.1634C108.509 27.1582 108.387 26.9966 108.206 26.9761C108.089 26.9632 107.96 27.0171 107.828 27.1326C107.774 27.1788 107.693 27.1762 107.644 27.1223C107.597 27.0684 107.6 26.9889 107.654 26.9401C107.843 26.7708 108.038 26.699 108.237 26.7195C108.535 26.7528 108.716 27.0017 108.721 27.012C108.763 27.071 108.747 27.1505 108.69 27.1916C108.67 27.2096 108.644 27.2173 108.618 27.2173Z" fill="#3F4553"/>
<path d="M111.808 27.1146C111.754 27.1146 111.705 27.0812 111.687 27.0273C111.324 25.9907 110.684 26.1344 110.659 26.1421C110.589 26.1575 110.519 26.119 110.501 26.0497C110.482 25.9804 110.524 25.9112 110.591 25.8932C110.599 25.8906 111.485 25.6725 111.93 26.9427C111.953 27.0094 111.917 27.0838 111.85 27.1069C111.837 27.112 111.821 27.1146 111.808 27.1146Z" fill="#3F4553"/>
<path d="M108.001 26.6039C107.98 26.6039 107.962 26.5987 107.944 26.5911C107.879 26.5603 107.853 26.4833 107.887 26.4191C108.032 26.1292 108.226 25.9573 108.465 25.9034C108.827 25.8213 109.148 26.0599 109.161 26.0702C109.218 26.1138 109.228 26.1933 109.184 26.2498C109.14 26.3062 109.06 26.3165 109.003 26.2729C109.001 26.2703 108.762 26.0958 108.519 26.1523C108.361 26.1882 108.226 26.3165 108.118 26.532C108.094 26.5782 108.048 26.6039 108.001 26.6039Z" fill="#3F4553"/>
<path d="M108.31 29.6882C108.31 29.6882 109.234 30.0448 110.417 29.3828C110.417 29.3828 109.801 30.2988 109.081 30.4015C108.361 30.5015 108.31 29.6882 108.31 29.6882Z" fill="#3F4553"/>
<path d="M99.9428 40.2827C99.9428 40.2827 96.6877 42.9897 96.1672 44.732C95.6467 46.4742 96.0378 50.4719 95.973 51.6958C95.9083 52.9197 96.7551 54.2745 97.1435 54.5337C97.5345 54.7928 97.5993 54.3412 97.5345 53.8896C97.4698 53.438 97.4698 51.1159 97.4698 51.1159C97.4698 51.1159 98.055 52.7914 98.1198 52.4707C98.1845 52.1474 98.1845 51.5675 97.9256 50.6643C97.6666 49.7611 97.014 48.473 97.0788 48.2139C97.1435 47.9547 99.2255 44.0879 99.5518 42.8614" fill="#FED9CE"/>
<path d="M97.3429 54.7365C97.2704 54.7365 97.1797 54.7109 97.071 54.639C96.6618 54.3696 95.7736 52.9738 95.8409 51.6882C95.859 51.3239 95.8383 50.7004 95.8124 49.9768C95.7529 48.2705 95.67 45.9329 96.0403 44.6962C96.566 42.9386 99.7201 40.2957 99.8548 40.1854C99.9091 40.1392 99.992 40.1469 100.036 40.2008C100.083 40.2546 100.075 40.3367 100.02 40.3804C99.9894 40.406 96.7913 43.0848 96.2863 44.768C95.929 45.9663 96.0092 48.2782 96.0688 49.9691C96.0947 50.6978 96.1154 51.329 96.0973 51.7036C96.0351 52.8788 96.8509 54.19 97.2108 54.4286C97.2859 54.4774 97.3377 54.4876 97.3532 54.4799C97.4024 54.4491 97.4516 54.2516 97.4024 53.9103C97.3377 53.4561 97.3351 51.2161 97.3351 51.1186C97.3351 51.057 97.3817 51.0031 97.4439 50.9929C97.506 50.9826 97.5682 51.0185 97.5889 51.0776C97.7261 51.4727 97.8996 51.9166 98.0213 52.1783C98.0343 51.8781 97.998 51.4009 97.7986 50.7029C97.6873 50.3129 97.4957 49.8408 97.3273 49.4251C97.0477 48.7323 96.9052 48.3628 96.9493 48.1858C96.9726 48.0934 97.1409 47.7573 97.519 47.0081C98.1508 45.7533 99.2048 43.6544 99.4249 42.8334C99.443 42.7641 99.5155 42.723 99.5829 42.741C99.6528 42.7589 99.6942 42.8282 99.6761 42.8975C99.4508 43.7442 98.4279 45.7764 97.752 47.121C97.4801 47.6624 97.2238 48.1704 97.203 48.2474C97.1797 48.3603 97.3973 48.8966 97.5708 49.3276C97.7417 49.751 97.9333 50.2282 98.0498 50.6311C98.3424 51.6498 98.301 52.2373 98.2466 52.4965C98.2207 52.6222 98.1301 52.6376 98.1016 52.6402C98.0239 52.6453 97.9178 52.653 97.6018 51.8499C97.607 52.5683 97.6225 53.5921 97.6614 53.8692C97.6976 54.1156 97.7235 54.5518 97.4931 54.6929C97.4594 54.7186 97.4076 54.7365 97.3429 54.7365Z" fill="#3F4553"/>
<path d="M97.3196 54.6389C97.2678 54.6389 97.216 54.6055 97.1978 54.5542C97.1927 54.544 96.7783 53.4021 96.5738 51.9755C96.5634 51.9062 96.6126 51.8395 96.6825 51.8292C96.7524 51.819 96.8198 51.8677 96.8301 51.937C97.0321 53.3354 97.4387 54.4516 97.4413 54.4644C97.4646 54.5311 97.4309 54.6055 97.3636 54.6286C97.348 54.6363 97.3325 54.6389 97.3196 54.6389Z" fill="#3F4553"/>
<path d="M96.856 54.3311C96.8094 54.3311 96.7628 54.3055 96.7395 54.2593C96.7213 54.2259 96.3174 53.4126 96.0584 52.0809C96.0455 52.0116 96.0921 51.9449 96.162 51.9295C96.2319 51.9166 96.2993 51.9603 96.3148 52.0321C96.566 53.3279 96.9699 54.1361 96.9725 54.1438C97.0036 54.208 96.9777 54.2849 96.9156 54.3157C96.8948 54.3286 96.8741 54.3311 96.856 54.3311Z" fill="#3F4553"/>
<path d="M121.403 40.2827C121.403 40.2827 124.658 42.9897 125.178 44.732C125.699 46.4742 125.308 50.4719 125.372 51.6958C125.437 52.9197 124.59 54.2745 124.202 54.5337C123.813 54.7928 123.746 54.3412 123.811 53.8896C123.876 53.438 123.876 51.1159 123.876 51.1159C123.876 51.1159 123.29 52.7914 123.226 52.4707C123.161 52.15 123.161 51.5675 123.42 50.6643C123.681 49.7611 124.331 48.473 124.267 48.2139C124.202 47.9547 122.12 44.0879 121.794 42.8614" fill="#FED9CE"/>
<path d="M124.003 54.7365C123.938 54.7365 123.889 54.716 123.85 54.6929C123.622 54.5518 123.648 54.1156 123.682 53.8692C123.72 53.5921 123.736 52.5658 123.741 51.8499C123.425 52.6504 123.324 52.6453 123.241 52.6402C123.213 52.6376 123.122 52.6222 123.096 52.4965C123.044 52.2373 123 51.6498 123.293 50.6311C123.41 50.2282 123.601 49.751 123.772 49.3276C123.946 48.8966 124.161 48.3603 124.137 48.2474C124.117 48.173 123.86 47.6598 123.588 47.1184C122.912 45.7739 121.89 43.7417 121.667 42.8975C121.649 42.8282 121.69 42.7589 121.76 42.741C121.827 42.723 121.9 42.7641 121.918 42.8334C122.136 43.6519 123.192 45.7533 123.821 47.0055C124.199 47.7573 124.368 48.0934 124.391 48.1858C124.435 48.3628 124.293 48.7323 124.013 49.4251C123.845 49.8408 123.656 50.3129 123.542 50.7029C123.34 51.4009 123.303 51.8781 123.319 52.1783C123.441 51.914 123.612 51.4727 123.751 51.0776C123.772 51.0185 123.832 50.9826 123.896 50.9929C123.959 51.0031 124.005 51.057 124.005 51.1186C124.005 51.2135 124.005 53.4536 123.938 53.9103C123.889 54.2516 123.938 54.4491 123.987 54.4799C124.003 54.4902 124.054 54.4799 124.129 54.4286C124.489 54.19 125.305 52.8788 125.243 51.7036C125.222 51.329 125.246 50.6978 125.271 49.9691C125.331 48.2807 125.411 45.9663 125.054 44.768C124.549 43.0848 121.353 40.4086 121.32 40.3804C121.265 40.3342 121.258 40.2546 121.304 40.2008C121.351 40.1469 121.431 40.1392 121.486 40.1854C121.62 40.2957 124.774 42.9386 125.3 44.6962C125.67 45.9329 125.587 48.2705 125.528 49.9768C125.502 50.7004 125.481 51.3264 125.499 51.6882C125.567 52.9738 124.678 54.3696 124.269 54.639C124.163 54.7134 124.075 54.7365 124.003 54.7365Z" fill="#3F4553"/>
<path d="M124.007 54.5363C123.997 54.5363 123.987 54.5363 123.974 54.5312C123.904 54.5132 123.862 54.4439 123.881 54.3746C123.886 54.3592 124.29 52.7941 124.29 51.7523C124.29 51.6805 124.347 51.624 124.419 51.624C124.492 51.624 124.549 51.6805 124.549 51.7523C124.549 52.8274 124.15 54.3746 124.132 54.4388C124.119 54.4978 124.064 54.5363 124.007 54.5363Z" fill="#3F4553"/>
<path d="M124.471 54.485C124.456 54.485 124.443 54.4824 124.427 54.4773C124.36 54.4542 124.326 54.3798 124.349 54.3131C124.355 54.2977 124.961 52.6427 124.961 52.0089C124.961 51.9371 125.017 51.8806 125.09 51.8806C125.163 51.8806 125.219 51.9371 125.219 52.0089C125.219 52.6863 124.619 54.331 124.593 54.4003C124.575 54.4542 124.523 54.485 124.471 54.485Z" fill="#3F4553"/>
<path d="M64.719 94.9976C76.4465 94.9976 85.9535 92.7816 85.9535 90.048C85.9535 87.3144 76.4465 85.0984 64.719 85.0984C52.9916 85.0984 43.4846 87.3144 43.4846 90.048C43.4846 92.7816 52.9916 94.9976 64.719 94.9976Z" fill="#F4A17C"/>
<path d="M65.9436 94.9993C78.3581 94.9993 88.422 92.7902 88.422 90.065C88.422 87.3399 78.3581 85.1307 65.9436 85.1307C53.529 85.1307 43.4651 87.3399 43.4651 90.065C43.4651 92.7902 53.529 94.9993 65.9436 94.9993Z" fill="#F4A17C"/>
<path d="M55.796 86.6073C55.796 86.6073 52.6471 88.2469 52.0541 89.0962C51.4611 89.9455 52.2509 90.6203 53.4343 90.7024C54.6178 90.7845 59.4887 89.1603 59.929 88.9499C60.3718 88.7395 60.0507 87.4643 59.7296 86.8074C59.4111 86.148 55.796 86.6073 55.796 86.6073Z" fill="#E49621"/>
<path d="M53.5251 90.8332C53.4889 90.8332 53.4552 90.8332 53.4241 90.8307C52.6395 90.7768 52.0206 90.4663 51.8056 90.025C51.7021 89.8094 51.6399 89.4605 51.9455 89.0243C52.5514 88.1596 55.6045 86.5636 55.734 86.4943C55.747 86.4866 55.7625 86.4815 55.778 86.4815C56.3969 86.402 59.5018 86.0479 59.8436 86.7509C60.0223 87.1178 60.1777 87.6182 60.2398 88.0262C60.3253 88.5932 60.2398 88.9422 59.9809 89.0653C59.5458 89.2732 54.895 90.8332 53.5251 90.8332ZM55.835 86.7304C55.5631 86.8741 52.7042 88.3879 52.1578 89.168C51.9688 89.4374 51.9299 89.6888 52.0387 89.9121C52.2122 90.2713 52.7508 90.5253 53.4422 90.5741C54.6075 90.6587 59.4345 89.0422 59.8721 88.8344C60.0068 88.7703 60.0508 88.4829 59.9861 88.0646C59.9291 87.6798 59.7815 87.2076 59.6132 86.8612C59.4215 86.4661 57.2981 86.5482 55.835 86.7304Z" fill="#3F4553"/>
<path d="M60.0918 87.9081C58.8436 88.4495 55.3995 89.9095 54.2109 90.0609C53.2424 90.184 52.3516 89.8222 51.8595 89.5631C51.7793 90.1815 52.4785 90.6356 53.434 90.7023C54.6174 90.7844 59.4884 89.1602 59.9286 88.9498C60.1721 88.8318 60.1824 88.3905 60.0918 87.9081Z" fill="#F1BD54"/>
<path d="M53.5248 90.8333C53.4885 90.8333 53.4549 90.8333 53.4238 90.8307C52.7609 90.7845 52.2171 90.5613 51.9322 90.2175C51.7691 90.0199 51.6992 89.789 51.7276 89.5478C51.7328 89.5067 51.7587 89.4682 51.7976 89.4503C51.8338 89.4297 51.8804 89.4297 51.9167 89.4503C52.3595 89.6838 53.2451 90.0558 54.1929 89.9352C55.3789 89.7838 58.9655 88.2571 60.0375 87.7927C60.0738 87.7773 60.1152 87.7773 60.1489 87.7978C60.1826 87.8158 60.2085 87.8492 60.2162 87.8876C60.3379 88.5266 60.2577 88.9345 59.9832 89.0654C59.5455 89.2732 54.8947 90.8333 53.5248 90.8333ZM51.9918 89.7736C52.0125 89.8736 52.0591 89.966 52.1316 90.0558C52.3673 90.3406 52.8567 90.5331 53.4393 90.5741C54.6046 90.6588 59.4316 89.0423 59.8692 88.8345C60.0013 88.7703 60.0427 88.4932 59.9883 88.0929C58.5252 88.7241 55.3686 90.043 54.224 90.1893C53.3358 90.2996 52.5019 90.0122 51.9918 89.7736Z" fill="#3F4553"/>
<path d="M71.0463 86.6073C71.0463 86.6073 74.1952 88.2469 74.7882 89.0962C75.3813 89.9455 74.5914 90.6203 73.408 90.7024C72.2246 90.7846 67.3536 89.1604 66.9134 88.95C66.4706 88.7395 66.7917 87.4643 67.1128 86.8074C67.4339 86.148 71.0463 86.6073 71.0463 86.6073Z" fill="#E49621"/>
<path d="M73.3199 90.8333C71.9475 90.8333 67.2992 89.2732 66.859 89.0654C66.6026 88.9422 66.5145 88.5933 66.6 88.0262C66.6622 87.6182 66.8175 87.1179 66.9962 86.7509C67.338 86.0453 70.4429 86.402 71.0618 86.4815C71.0774 86.4841 71.0929 86.4892 71.1059 86.4944C71.2353 86.5611 74.291 88.1571 74.8944 89.0243C75.2 89.4605 75.1404 89.8095 75.0342 90.025C74.8193 90.4689 74.2004 90.7768 73.4157 90.8307C73.3873 90.8307 73.3536 90.8333 73.3199 90.8333ZM68.739 86.579C67.9544 86.579 67.3303 86.656 67.2293 86.8613C67.0609 87.2077 66.9133 87.6798 66.8564 88.0647C66.7916 88.4829 66.8357 88.7703 66.9703 88.8344C67.3976 89.0397 72.0096 90.5793 73.3096 90.5793C73.3432 90.5793 73.3717 90.5792 73.4002 90.5767C74.0916 90.5279 74.6277 90.2739 74.8038 89.9147C74.9125 89.6915 74.8711 89.44 74.6846 89.1706C74.1408 88.3905 71.2794 86.8767 71.0074 86.733C70.3083 86.6432 69.4563 86.579 68.739 86.579Z" fill="#3F4553"/>
<path d="M66.7524 87.9082C68.0005 88.4496 71.4447 89.9096 72.6333 90.061C73.6018 90.1841 74.4926 89.8224 74.9846 89.5632C75.0649 90.1816 74.3657 90.6357 73.4101 90.7025C72.2267 90.7846 67.3557 89.1604 66.9155 88.95C66.6695 88.8319 66.6592 88.3906 66.7524 87.9082Z" fill="#F1BD54"/>
<path d="M73.3195 90.8333C71.9471 90.8333 67.2988 89.2732 66.8586 89.0654C66.5841 88.9345 66.5038 88.5265 66.6255 87.8876C66.6333 87.8491 66.6566 87.8158 66.6929 87.7978C66.7291 87.7799 66.768 87.7773 66.8042 87.7927C67.8763 88.2571 71.4654 89.7838 72.6489 89.9352C73.5966 90.0558 74.4823 89.6838 74.9251 89.4503C74.9639 89.4297 75.0079 89.4297 75.0442 89.4503C75.083 89.4708 75.1089 89.5067 75.1141 89.5478C75.1452 89.789 75.0753 90.0199 74.9095 90.2175C74.6247 90.5613 74.0809 90.7845 73.418 90.8307C73.3869 90.8307 73.3532 90.8333 73.3195 90.8333ZM66.8534 88.0929C66.7964 88.4932 66.8405 88.7703 66.9725 88.8344C67.3998 89.0397 72.0118 90.5767 73.3118 90.5793C73.3454 90.5793 73.3739 90.5793 73.4024 90.5767C73.9851 90.5356 74.4745 90.3406 74.7101 90.0584C74.7827 89.9711 74.8293 89.8762 74.85 89.7761C74.3424 90.0148 73.5112 90.3047 72.6152 90.1918C71.4706 90.043 68.3165 88.7241 66.8534 88.0929Z" fill="#3F4553"/>
<path d="M57.3547 54.5001C57.3547 54.5001 54.4881 66.7908 54.0893 68.5458C53.6905 70.3009 53.3979 72.2741 53.864 73.4544C54.3301 74.6347 55.8243 86.2171 55.8243 86.2171L60.1178 87.3769C60.1178 87.3769 60.1722 79.9358 60.0298 77.0107C59.8873 74.0856 59.7216 70.3881 59.7216 70.3881L64.2844 59.1213L65.038 60.1092L68.4536 70.2085L66.4441 87.1357L70.5279 86.076C70.5279 86.076 74.0367 75.3095 74.609 73.0695C75.1787 70.8295 75.4532 69.3233 75.0078 68.2944C74.5624 67.2654 71.6725 55.7831 71.6725 55.7831L57.3547 54.5001Z" fill="#3F4553"/>
<path d="M60.1152 87.5027C60.1049 87.5027 60.0919 87.5001 60.0816 87.4975L55.7881 86.3377C55.7389 86.3249 55.7 86.2813 55.6949 86.23C55.6793 86.1145 54.1955 74.6501 53.7423 73.498C53.3539 72.5102 53.4238 70.8808 53.9624 68.5151C54.356 66.7805 57.1994 54.5925 57.2279 54.4694C57.2434 54.4078 57.3004 54.3642 57.3651 54.3693L71.6777 55.6523C71.732 55.6574 71.7786 55.6959 71.7916 55.7498C71.8201 55.8652 74.6841 67.2347 75.1218 68.2405C75.5698 69.272 75.3289 70.7423 74.7282 73.0977C74.1636 75.3172 70.6807 86.0042 70.647 86.1119C70.6341 86.153 70.6004 86.1864 70.5564 86.1966L66.4726 87.2563C66.4312 87.2666 66.3872 87.2563 66.3535 87.2281C66.3198 87.1999 66.3043 87.1588 66.3095 87.1152L68.3164 70.2188L64.9163 60.1657L64.3129 59.3754L59.8511 70.4087C59.8666 70.7525 60.022 74.2242 60.1593 77.003C60.3017 79.8974 60.2473 87.3025 60.2473 87.3769C60.2473 87.418 60.2292 87.4539 60.1955 87.477C60.1722 87.495 60.1437 87.5027 60.1152 87.5027ZM55.9409 86.1145L59.9884 87.2076C59.9961 86.0889 60.0298 79.6587 59.9003 77.0133C59.7579 74.0882 59.5921 70.3907 59.5921 70.3907C59.5921 70.3728 59.5947 70.3548 59.6025 70.3368L64.1653 59.07C64.1835 59.0264 64.2223 58.9956 64.2689 58.9905C64.3181 58.9853 64.3621 59.0033 64.3906 59.0418L65.1442 60.0297C65.1519 60.0399 65.1597 60.0528 65.1623 60.0656L68.5779 70.1649C68.5831 70.1829 68.5857 70.2009 68.5831 70.2214L66.5943 86.9613L70.4269 85.9657C70.7247 85.0522 73.9435 75.153 74.4822 73.0336C75.0674 70.7346 75.3056 69.3028 74.8887 68.3406C74.4589 67.3527 71.8589 57.0481 71.5689 55.8986L57.4583 54.6336C57.1735 55.8575 54.5917 66.9242 54.2188 68.569C53.6931 70.8834 53.618 72.464 53.9883 73.4031C54.4337 74.5475 55.7933 84.9778 55.9409 86.1145Z" fill="#3F4553"/>
<path d="M67.8188 84.5647C67.8136 84.5647 67.8085 84.5647 67.8033 84.5647C67.7334 84.557 67.6816 84.4928 67.6893 84.421C67.7049 84.2978 69.1835 72.0791 69.2612 71.3965C69.3026 71.0476 69.313 70.9424 69.5538 70.9295C69.6678 70.9244 69.9086 70.9116 70.4369 70.56C70.5638 70.4754 70.6466 70.4138 70.6984 70.3727C70.6285 70.3727 70.5405 70.3753 70.4654 70.3779C70.1442 70.3881 69.704 70.4035 69.3907 70.2675C68.663 69.9519 66.7416 63.5885 66.3635 62.3133C66.3428 62.2466 66.3816 62.1747 66.4515 62.1542C66.5188 62.1337 66.5914 62.1722 66.6121 62.2414C67.6919 65.8799 69.0696 69.8467 69.4943 70.0315C69.7558 70.1444 70.1624 70.1315 70.4576 70.1213C70.7968 70.111 70.9859 70.1033 71.0376 70.2573C71.0817 70.3907 70.9755 70.5113 70.5845 70.773C69.9966 71.1656 69.7092 71.181 69.5694 71.1861C69.5642 71.1861 69.559 71.1861 69.5538 71.1861C69.5435 71.2323 69.5331 71.3221 69.5228 71.4247C69.4451 72.1098 67.9638 84.3286 67.9483 84.4518C67.9405 84.5159 67.8836 84.5647 67.8188 84.5647Z" fill="#4E5567"/>
<path d="M59.8663 81.8809C59.8016 81.8809 59.7446 81.8322 59.7369 81.768L59.6281 80.852C59.6203 80.7827 59.6721 80.7185 59.742 80.7108C59.8119 80.7032 59.8767 80.7545 59.8845 80.8237L59.9932 81.7398C60.001 81.8091 59.9492 81.8732 59.8793 81.8809C59.8767 81.8809 59.8715 81.8809 59.8663 81.8809Z" fill="#4E5567"/>
<path d="M59.5997 79.5973C59.535 79.5973 59.478 79.5485 59.4702 79.4844L58.5043 71.2658C58.3334 71.2299 57.9372 71.1427 57.4167 70.999C57.3235 70.9733 57.1267 70.9195 57.1189 70.7655C57.1085 70.5936 57.3131 70.5115 57.7637 70.3319C58.1133 70.1933 58.5509 70.0188 58.9497 69.7699C59.4262 69.4749 60.5578 67.0219 62.052 63.0422C62.0779 62.9755 62.1504 62.9421 62.2178 62.9678C62.2851 62.9934 62.3188 63.0653 62.2929 63.132C61.2052 66.0263 59.7654 69.5647 59.0844 69.988C58.6649 70.2472 58.1988 70.4345 57.8569 70.5705C57.7093 70.6295 57.5488 70.6937 57.4478 70.7424C57.4581 70.745 57.4685 70.7475 57.4814 70.7527C58.1729 70.9425 58.639 71.0323 58.6442 71.0349C58.6985 71.0452 58.7426 71.0914 58.7477 71.1452L59.724 79.4562C59.7318 79.5254 59.68 79.5896 59.6101 79.5973C59.6101 79.5973 59.6049 79.5973 59.5997 79.5973Z" fill="#4E5567"/>
<path d="M62.6683 61.8744C62.6527 61.8744 62.6398 61.8719 62.6242 61.8667C62.5569 61.8436 62.5232 61.7692 62.5465 61.7025C62.7226 61.2201 62.8262 60.925 62.8262 60.925C62.8495 60.8583 62.9246 60.8224 62.992 60.8455C63.0593 60.8686 63.0956 60.943 63.0722 61.0097C63.0722 61.0097 62.9687 61.3048 62.7926 61.7898C62.7718 61.8411 62.7226 61.8744 62.6683 61.8744Z" fill="#4E5567"/>
<path d="M66.0269 34.5016C66.0269 34.5016 59.0791 33.37 56.2798 32.8722C53.4805 32.3745 51.0748 31.9049 51.0748 31.9049L49.8551 35.7768C49.8551 35.7768 55.4097 37.6294 56.8728 38.063C58.3359 38.4967 58.9134 38.7327 58.9134 38.7327C58.9134 38.7327 59.105 48.0803 58.5043 50.0919C57.9035 52.1036 56.5517 56.1474 56.5517 56.1474L63.7093 60.1194L65.1465 57.923L65.2578 59.9988C65.2578 59.9988 67.5082 59.868 69.5358 59.2239C71.5634 58.5799 72.7909 57.805 72.7909 57.805L71.1828 50.8053L73.3761 41.7759C73.3761 41.7759 84.4284 39.6 84.4931 38.8944C84.5579 38.1888 82.973 35.6024 82.973 35.6024L67.9976 34.635L66.0269 34.5016Z" fill="#FFF9F1"/>
<path d="M63.7098 60.2504C63.6891 60.2504 63.6658 60.2452 63.6477 60.235L56.4901 56.263C56.4358 56.2322 56.4099 56.168 56.4306 56.1116C56.4435 56.0705 57.7901 52.0472 58.3831 50.0586C58.9399 48.1907 58.8052 39.7669 58.7871 38.8226C58.5851 38.7456 57.9817 38.525 56.8371 38.1863C55.3896 37.7578 49.8712 35.918 49.8168 35.9001C49.7495 35.877 49.7132 35.8077 49.734 35.741L50.9537 31.8691C50.9744 31.8075 51.0365 31.7664 51.1013 31.7818C51.1246 31.7869 53.538 32.2565 56.3037 32.7466C59.0357 33.2315 65.8048 34.3349 66.043 34.3759L68.0085 34.5119L82.984 35.4793C83.0254 35.4818 83.0643 35.5049 83.0876 35.5408C83.2507 35.8103 84.6931 38.1863 84.6258 38.9124C84.6076 39.0997 84.5766 39.4461 78.9417 40.7316C76.4635 41.2961 73.9619 41.799 73.4855 41.894L71.318 50.8156L72.9183 57.7845C72.9313 57.8384 72.908 57.8923 72.8614 57.9205C72.8484 57.9282 71.5951 58.7134 69.5752 59.3549C67.5554 59.9963 65.2895 60.1349 65.2662 60.1349C65.2325 60.1375 65.1988 60.1246 65.173 60.1015C65.1471 60.0784 65.1315 60.0477 65.1289 60.0117L65.0383 58.3285L63.8186 60.1939C63.7927 60.2298 63.7513 60.2504 63.7098 60.2504ZM56.7077 56.0911L63.6658 59.9527L65.0357 57.859C65.0668 57.8128 65.1238 57.7922 65.1781 57.8051C65.2325 57.8205 65.2714 57.8667 65.2739 57.9231L65.3801 59.868C65.8877 59.8296 67.7832 59.6525 69.4949 59.1085C71.1989 58.5671 72.3435 57.9257 72.6438 57.7486L71.0564 50.8412C71.0513 50.8207 71.0513 50.8028 71.0564 50.7822L73.2498 41.7529C73.2628 41.7041 73.3016 41.6682 73.3508 41.6579C78.5092 40.6418 84.1234 39.323 84.3694 38.8765C84.4134 38.3608 83.3543 36.4851 82.8985 35.7333L67.9904 34.7711L66.0172 34.6351C66.012 34.6351 66.0094 34.6351 66.0042 34.6325C65.9343 34.6223 59.0253 33.4933 56.2571 33.0032C53.8281 32.5721 51.6735 32.1564 51.1634 32.0589L50.0162 35.7025C50.8345 35.9745 55.5838 37.5525 56.9096 37.9476C58.3624 38.3787 58.9399 38.6122 58.9632 38.6225C59.0098 38.643 59.0409 38.6866 59.0435 38.7379C59.0512 39.1203 59.2273 48.1291 58.6291 50.1356C58.0879 51.9446 56.9226 55.4522 56.7077 56.0911Z" fill="#3F4553"/>
<path d="M63.5952 34.0193L63.2922 38.4506L66.9616 37.0265L70.8615 40.0081L70.7372 34.1835L63.5952 34.0193Z" fill="white"/>
<path d="M70.8619 40.1364C70.8334 40.1364 70.8049 40.1261 70.7816 40.1107L66.9413 37.1753L63.3392 38.5737C63.2977 38.5891 63.2511 38.584 63.2149 38.5583C63.1786 38.5327 63.1605 38.4891 63.1631 38.4454L63.4661 34.0142C63.4712 33.9449 63.536 33.8961 63.5981 33.8936L70.7376 34.0578C70.8075 34.0603 70.8619 34.1142 70.8644 34.1835L70.9887 40.0081C70.9887 40.0568 70.9629 40.103 70.9188 40.1261C70.9007 40.1312 70.8826 40.1364 70.8619 40.1364ZM66.962 36.8982C66.9905 36.8982 67.0189 36.9085 67.0423 36.9239L70.7272 39.7412L70.6107 34.3092L63.7173 34.1501L63.435 38.2581L66.9154 36.9085C66.9309 36.9008 66.9464 36.8982 66.962 36.8982Z" fill="#3F4553"/>
<path d="M65.2891 57.6306C65.2865 57.6306 65.2814 57.6306 65.2788 57.6306C65.2063 57.6254 65.1545 57.5639 65.1597 57.492L66.5994 40.5212C66.6046 40.4494 66.6694 40.4006 66.7393 40.4032C66.8118 40.4083 66.8636 40.4699 66.8584 40.5417L65.4186 57.5125C65.4108 57.5818 65.3539 57.6306 65.2891 57.6306Z" fill="#3F4553"/>
<path d="M73.3766 41.9066C73.3507 41.9066 73.3248 41.8989 73.3041 41.8835C73.2523 41.8476 73.2316 41.7809 73.26 41.7219L74.9925 38.0988C75.0235 38.0347 75.1012 38.009 75.166 38.0372C75.2307 38.068 75.2592 38.145 75.2281 38.2092L73.8505 41.0881L76.9942 37.755C77.0434 37.7037 77.1237 37.7011 77.1781 37.7499C77.2299 37.7986 77.2324 37.8782 77.1832 37.932L73.4724 41.8681C73.4465 41.8938 73.4102 41.9066 73.3766 41.9066Z" fill="#3F4553"/>
<path d="M58.9138 38.8636C58.8749 38.8636 58.8361 38.8456 58.8102 38.8123L55.9668 35.1123C55.9228 35.0558 55.9332 34.9763 55.9901 34.9327C56.0471 34.889 56.1274 34.8993 56.1714 34.9557L58.4192 37.8783L57.6345 35.9847C57.6086 35.9205 57.6397 35.8435 57.7044 35.8179C57.7692 35.7922 57.8469 35.823 57.8728 35.8872L59.0303 38.684C59.0536 38.743 59.0303 38.8123 58.9759 38.8431C58.9578 38.8559 58.9345 38.8636 58.9138 38.8636Z" fill="#3F4553"/>
<path d="M65.2789 34.3784L66.7265 40.5314L69.3213 34.7248L67.9954 34.6401L66.0247 34.5041C66.0273 34.5016 65.7451 34.4554 65.2789 34.3784Z" fill="white"/>
<path d="M66.7267 40.6597C66.7215 40.6597 66.7189 40.6597 66.7137 40.6597C66.6593 40.6546 66.6127 40.6161 66.5998 40.5622L65.1522 34.4092C65.1419 34.3681 65.1548 34.3245 65.1833 34.2911C65.2118 34.2578 65.2558 34.245 65.2998 34.2527L66.0482 34.3758L69.3318 34.5965C69.3732 34.599 69.412 34.6221 69.4353 34.6581C69.4561 34.694 69.4612 34.7376 69.4431 34.7761L66.8484 40.5827C66.8251 40.6289 66.7785 40.6597 66.7267 40.6597ZM65.45 34.5375L66.7655 40.1286L69.1298 34.8402L66.0171 34.6298L65.45 34.5375Z" fill="#3F4553"/>
<path d="M65.2789 34.3784L66.7265 40.5314L69.3213 34.7248L67.9954 34.6401L66.0247 34.5041C66.0273 34.5016 65.7451 34.4554 65.2789 34.3784Z" fill="#C6FF00"/>
<path d="M65.2789 34.3784L66.7265 40.5314L69.3213 34.7248L67.9954 34.6401L66.0247 34.5041C66.0273 34.5016 65.7451 34.4554 65.2789 34.3784Z" fill="#FED9CE"/>
<path d="M87.2338 37.4908C87.2338 37.4908 87.3607 38.5146 86.7858 38.9636C86.2135 39.4127 83.7922 40.1901 83.1138 39.7873C82.4353 39.3844 81.4746 37.2522 81.8501 35.7511C82.2256 34.2527 84.494 34.8095 84.494 34.8095C84.494 34.8095 86.7107 35.5125 87.2338 37.4908Z" fill="white"/>
<path d="M83.6805 40.026C83.4189 40.026 83.1988 39.9875 83.0486 39.8977C82.2925 39.4487 81.3524 37.2138 81.7253 35.7205C81.8937 35.0482 82.4375 34.6582 83.3024 34.5889C83.9316 34.5401 84.5013 34.6761 84.5247 34.6838C84.6256 34.7146 86.8242 35.4331 87.3576 37.455C87.3602 37.4601 87.3602 37.4653 87.3602 37.473C87.3654 37.5166 87.4871 38.5737 86.8656 39.0613C86.415 39.4179 84.7241 40.026 83.6805 40.026ZM83.5846 34.8378C82.9502 34.8378 82.1682 35.0046 81.9739 35.782C81.6088 37.2395 82.5721 39.3153 83.1807 39.6771C83.7944 40.0414 86.1405 39.305 86.7051 38.8637C87.1893 38.4839 87.1142 37.6064 87.1065 37.514C86.6041 35.6358 84.4755 34.9404 84.4547 34.9327C84.447 34.9302 84.0559 34.8378 83.5846 34.8378Z" fill="#575C69"/>
<path d="M85.1824 38.5763C84.1206 38.6354 83.1858 37.881 82.9165 36.8623C82.2406 34.2862 80.5937 28.223 79.967 27.8073C79.1694 27.2813 78.5583 27.1479 78.5686 26.6604C78.579 26.1754 78.6204 24.2305 78.6204 24.2305C78.6204 24.2305 78.9752 23.7019 79.2108 24.1945C79.4465 24.6846 79.3895 25.0721 79.3895 25.0721C79.3895 25.0721 79.7805 23.9867 79.7391 23.6454C79.6977 23.3042 79.6174 22.3805 79.6226 22.1367C79.6277 21.8929 79.9514 21.6825 80.4305 22.1778C80.9096 22.673 81.8444 23.7378 81.6631 24.2433C81.4819 24.7488 81.1582 27.2454 81.1582 27.2454C81.1582 27.2454 87.1556 35.9694 87.0417 36.7443C86.9588 37.3011 86.4746 38.5045 85.1824 38.5763Z" fill="#FED9CE"/>
<path d="M85.0659 38.7071C84.0171 38.7071 83.0719 37.9605 82.7922 36.893C81.4094 31.6201 80.2985 28.1793 79.8971 27.9124C79.6666 27.761 79.4517 27.643 79.2626 27.5378C78.781 27.271 78.4314 27.0785 78.4418 26.6577L78.4935 24.2278C78.4935 24.2047 78.5013 24.1791 78.5143 24.1585C78.535 24.1252 78.7344 23.8378 78.9907 23.8558C79.1306 23.866 79.2445 23.961 79.33 24.138C79.3844 24.2509 79.4232 24.3612 79.4543 24.4613C79.5501 24.1303 79.6278 23.7993 79.6122 23.6608C79.5708 23.3298 79.4905 22.3932 79.4957 22.134C79.4983 21.975 79.5967 21.8338 79.7443 21.7774C79.8738 21.7261 80.1509 21.7004 80.5264 22.0904C81.0857 22.6678 81.992 23.7198 81.7875 24.2894C81.6243 24.7384 81.3421 26.8681 81.2955 27.2171C82.3624 28.7694 87.2877 35.9899 87.1738 36.7673C87.0805 37.4037 86.5445 38.6302 85.1953 38.7046C85.1461 38.7071 85.1047 38.7071 85.0659 38.7071ZM78.7473 24.274L78.6981 26.6628C78.6929 26.9169 78.9182 27.0529 79.3869 27.3146C79.5812 27.4223 79.8013 27.5429 80.0395 27.6995C80.6481 28.0997 82.0076 32.8851 83.0434 36.8289C83.3024 37.8219 84.1984 38.5019 85.1746 38.448C86.358 38.3813 86.8293 37.2959 86.9122 36.7288C86.9899 36.2003 83.3567 30.6785 81.0494 27.3197C81.0313 27.2941 81.0235 27.2633 81.0287 27.2325C81.0417 27.1298 81.355 24.7179 81.5389 24.2022C81.6476 23.8968 81.1763 23.1373 80.3347 22.2675C80.1043 22.0288 79.9256 21.9801 79.8324 22.016C79.7728 22.0391 79.7495 22.0956 79.7495 22.1392C79.7443 22.3701 79.8194 23.2733 79.8634 23.63C79.9074 23.9918 79.5501 25.0001 79.5087 25.1156C79.4853 25.1772 79.4206 25.2131 79.3559 25.1977C79.2911 25.1823 79.2497 25.1207 79.2601 25.054C79.2601 25.0515 79.3067 24.6948 79.0943 24.2483C79.0555 24.1662 79.0089 24.1149 78.97 24.1123C78.9156 24.1047 78.8095 24.197 78.7473 24.274Z" fill="#3F4553"/>
<path d="M80.6739 25.1619C80.661 25.1619 80.648 25.1593 80.6377 25.1568C80.5703 25.1362 80.5289 25.0644 80.5522 24.9977L80.8319 24.0714C80.7723 23.938 80.6066 23.5479 80.5884 23.1913C80.5781 22.9937 80.6584 22.9039 80.7257 22.8629C80.8992 22.7577 81.1426 22.8911 81.1892 22.9167C81.2514 22.9527 81.2695 23.0322 81.2333 23.0912C81.197 23.1528 81.1167 23.1733 81.0572 23.1374C80.9795 23.0912 80.8811 23.0681 80.8578 23.081C80.8578 23.081 80.8396 23.1015 80.8448 23.1785C80.8655 23.5582 81.0831 24.0021 81.0857 24.0072C81.1012 24.0355 81.1038 24.0688 81.0934 24.0996L80.7982 25.0747C80.7801 25.126 80.7283 25.1619 80.6739 25.1619Z" fill="#263238"/>
<path d="M80.2311 25.0463C80.2207 25.0463 80.2104 25.0463 80.2 25.0437C80.1301 25.0258 80.0887 24.9565 80.1042 24.8898L80.3217 24.0097C80.257 23.8711 80.0861 23.4324 80.1871 22.9705C80.2337 22.7627 80.3269 22.6241 80.4667 22.5625C80.6584 22.4753 80.8474 22.5754 80.8681 22.5856C80.9303 22.619 80.9536 22.6985 80.9199 22.7601C80.8863 22.8217 80.8086 22.8448 80.7438 22.8114C80.7412 22.8089 80.6454 22.7627 80.5729 22.796C80.4978 22.8294 80.459 22.9397 80.4408 23.0244C80.3399 23.4811 80.5703 23.9301 80.5729 23.9353C80.5885 23.9635 80.591 23.9943 80.5833 24.0251L80.3554 24.9514C80.3424 25.0078 80.2881 25.0463 80.2311 25.0463Z" fill="#263238"/>
<path d="M79.8609 25.0206C79.8531 25.0206 79.8454 25.0206 79.8376 25.0181C79.7677 25.0052 79.7211 24.9385 79.7314 24.8692L79.9412 23.6966C79.9075 23.5632 79.7677 22.9833 79.747 22.5676C79.7366 22.3726 79.8169 22.2572 79.8868 22.193C80.0836 22.0108 80.4073 22.0468 80.4435 22.0519C80.5135 22.0622 80.5653 22.1237 80.5549 22.1956C80.5471 22.2649 80.4824 22.3162 80.4099 22.3059C80.3426 22.2982 80.1535 22.2957 80.0603 22.3803C80.0189 22.4188 80.0007 22.4753 80.0033 22.5548C80.0266 22.991 80.1949 23.6556 80.1975 23.6607C80.2027 23.6787 80.2027 23.6966 80.2001 23.7146L79.9852 24.9129C79.9774 24.977 79.923 25.0206 79.8609 25.0206Z" fill="#263238"/>
<path d="M69.0826 35.823C77.9511 35.823 85.1404 28.6994 85.1404 19.9119C85.1404 11.1245 77.9511 4.00085 69.0826 4.00085C60.214 4.00085 53.0247 11.1245 53.0247 19.9119C53.0247 28.6994 60.214 35.823 69.0826 35.823Z" fill="#FA6E5A"/>
<path opacity="0.3" d="M57.9996 19.2654C58.3207 11.5369 64.1575 5.32748 71.5922 4.19849C70.9862 4.10355 70.3699 4.03941 69.7432 4.01375C60.8817 3.65196 53.4031 10.4747 53.0354 19.2526C52.6702 28.0331 59.5559 35.4433 68.4148 35.8077C69.4765 35.8513 70.5149 35.7897 71.5274 35.6358C63.5827 34.399 57.6603 27.4249 57.9996 19.2654Z" fill="#AC3E2F"/>
<path d="M59.3514 21.3412C59.3514 21.3412 71.1365 19.8042 80.8888 22.2239C80.8888 22.2239 79.9747 31.9229 69.7926 31.6997C60.9647 31.5073 59.3514 21.3412 59.3514 21.3412Z" fill="#3F4553"/>
<path d="M70.2818 16.302C69.8959 16.302 69.5619 16.0197 69.5127 15.6297C69.2667 13.7335 67.5265 12.3043 65.4626 12.3043C63.624 12.3043 62.0055 13.4538 61.5265 15.096C61.4073 15.504 60.9749 15.74 60.5631 15.622C60.1514 15.504 59.9132 15.078 60.0323 14.6675C60.703 12.3685 62.9352 10.7648 65.4626 10.7648C68.3034 10.7648 70.7065 12.7713 71.0535 15.4347C71.1079 15.8555 70.8075 16.2429 70.3828 16.2968C70.3491 16.2994 70.3155 16.302 70.2818 16.302Z" fill="#3F4553"/>
<path d="M81.5958 18.1287C81.1763 18.1287 80.8319 17.7977 80.819 17.3795C80.7723 15.6886 79.3662 14.2773 77.5483 14.0977C75.9299 13.9386 74.3994 14.8059 73.8297 16.2094C73.6692 16.6046 73.216 16.7945 72.8198 16.6379C72.421 16.4789 72.2294 16.0324 72.3873 15.6372C73.2134 13.5999 75.3964 12.3375 77.7011 12.5659C80.2933 12.8225 82.3002 14.8752 82.3701 17.3359C82.383 17.7618 82.0438 18.1159 81.6139 18.1262C81.6114 18.1287 81.6036 18.1287 81.5958 18.1287Z" fill="#3F4553"/>
<path d="M60.8845 21.6389C60.9803 22.0238 61.6925 24.1304 65.8513 24.3023C70.4297 24.4897 75.0028 24.8463 77.3827 24.7745C78.8069 24.7309 79.488 23.5172 79.8065 22.5473C72.5971 20.9128 64.484 21.3285 60.8845 21.6389Z" fill="white"/>
<path d="M72.838 30.9223C72.8406 28.6412 70.3701 26.7117 67.2342 26.5834C65.4966 26.5115 63.9195 27.0119 62.8215 27.856C64.396 29.6445 66.6774 31.0891 69.9506 31.1609C71.0123 31.184 71.9705 31.0942 72.838 30.9223Z" fill="#4E5567"/>
<path d="M55.3347 86.6636L60.4647 88.2596L60.5061 86.1633L55.1276 85.0651L55.3347 86.6636Z" fill="#4E5567"/>
<path d="M60.465 88.3878C60.452 88.3878 60.4391 88.3853 60.4262 88.3827L55.2962 86.7867C55.247 86.7713 55.2134 86.7303 55.2056 86.6815L54.9984 85.0804C54.9932 85.0394 55.0088 84.9983 55.0399 84.9701C55.0709 84.9419 55.1124 84.929 55.1538 84.9393L60.5323 86.0375C60.5945 86.0503 60.6359 86.1042 60.6359 86.1658L60.5945 88.2621C60.5945 88.3032 60.5738 88.3391 60.5401 88.3647C60.5194 88.3801 60.4935 88.3878 60.465 88.3878ZM55.4516 86.5661L60.3381 88.0851L60.3744 86.2659L55.2781 85.2241L55.4516 86.5661Z" fill="#3F4553"/>
<path d="M65.8719 86.9741L66.5038 88.8318L71.556 86.7945L71.1754 85.0625L65.8719 86.9741Z" fill="#4E5567"/>
<path d="M66.5037 88.9576C66.4856 88.9576 66.4675 88.9525 66.4493 88.9448C66.4157 88.9294 66.3924 88.9037 66.3794 88.8704L65.7476 87.0152C65.7243 86.9485 65.7605 86.8767 65.8253 86.8536L71.1287 84.942C71.1649 84.9291 71.2038 84.9317 71.2349 84.9497C71.2685 84.9676 71.2918 84.9984 71.2996 85.0343L71.6803 86.7663C71.6932 86.8279 71.6595 86.8895 71.6026 86.9126L66.5503 88.9473C66.5374 88.955 66.5193 88.9576 66.5037 88.9576ZM66.035 87.0511L66.5814 88.66L71.4058 86.7176L71.0795 85.2345L66.035 87.0511Z" fill="#3F4553"/>
<path d="M47.0412 33.3474C47.0412 33.3474 46.6967 34.3199 47.1603 34.8818C47.6238 35.4437 49.8198 36.7138 50.5681 36.4624C51.3165 36.2135 52.7149 34.3301 52.6735 32.788C52.6294 31.2434 50.2936 31.3075 50.2936 31.3075C50.2936 31.3075 47.9786 31.5256 47.0412 33.3474Z" fill="white"/>
<path d="M50.3476 36.6211C49.3791 36.6211 47.4732 35.4613 47.0588 34.961C46.5565 34.3529 46.9009 33.347 46.9164 33.3034C46.919 33.2983 46.9216 33.2931 46.9242 33.288C47.8823 31.4226 50.1845 31.1891 50.2803 31.1788C51.1452 31.1609 52.7637 31.4611 52.8025 32.7825C52.8465 34.3195 51.4456 36.3029 50.6091 36.5826C50.534 36.6083 50.446 36.6211 50.3476 36.6211ZM47.1598 33.3958C47.1314 33.4856 46.8698 34.3246 47.2608 34.7993C47.7166 35.351 49.8504 36.5646 50.5289 36.3414C51.2021 36.1156 52.5876 34.2938 52.5461 32.7928C52.5073 31.3944 50.3217 31.438 50.2984 31.438C50.2829 31.438 48.0558 31.6689 47.1598 33.3958Z" fill="#3F4553"/>
<path d="M48.2758 34.6967C49.3013 34.979 50.376 34.4402 50.8576 33.501C52.0721 31.1276 54.988 25.5519 55.6898 25.2799C56.5832 24.9335 57.2073 24.9335 57.3031 24.4563C57.3989 23.979 57.777 22.0726 57.777 22.0726C57.777 22.0726 57.5439 21.4824 57.2098 21.9135C56.8758 22.342 56.8473 22.7346 56.8473 22.7346C56.8473 22.7346 56.6997 21.5928 56.8136 21.2669C56.9276 20.9436 57.2047 20.0558 57.2513 19.8172C57.2979 19.5785 57.0286 19.304 56.4537 19.6863C55.8788 20.0686 54.7368 20.9102 54.8041 21.4439C54.8741 21.9776 54.6488 24.4845 54.6488 24.4845C54.6488 24.4845 46.9086 31.7383 46.8542 32.5209C46.8153 33.0777 47.0277 34.3529 48.2758 34.6967Z" fill="#FED9CE"/>
<path d="M48.8325 34.902C48.6357 34.902 48.4389 34.8764 48.2421 34.8225C46.9396 34.4633 46.6806 33.1547 46.7246 32.5106C46.779 31.7255 53.1468 25.7136 54.5244 24.4229C54.5555 24.0714 54.7368 21.9314 54.6746 21.4593C54.5969 20.8615 55.7104 20.025 56.3785 19.5785C56.8317 19.2783 57.0933 19.363 57.2098 19.44C57.3419 19.5272 57.4066 19.6837 57.3755 19.8428C57.3263 20.0968 57.0441 20.9949 56.9327 21.3105C56.8861 21.4439 56.8913 21.7826 56.9146 22.1265C56.9638 22.0341 57.0259 21.9366 57.1036 21.8365C57.2227 21.6826 57.3548 21.6133 57.4946 21.6338C57.7458 21.6697 57.8805 21.993 57.8934 22.029C57.9012 22.052 57.9038 22.0751 57.8986 22.1008L57.4299 24.4794C57.347 24.8925 56.9664 25.0054 56.4381 25.1645C56.2309 25.2261 55.9953 25.2979 55.7363 25.398C55.2857 25.5724 53.4601 28.7003 50.9741 33.5575C50.5468 34.394 49.7026 34.902 48.8325 34.902ZM48.312 34.5736C49.2521 34.8327 50.2749 34.3581 50.7436 33.442C52.603 29.8087 54.962 25.4211 55.6431 25.1593C55.9098 25.0567 56.1507 24.9849 56.363 24.9207C56.8783 24.7668 57.1269 24.6821 57.1761 24.4306L57.6422 22.0854C57.6008 21.9982 57.5231 21.8904 57.461 21.8827C57.4195 21.875 57.3678 21.9161 57.3108 21.9879C57.0052 22.3779 56.9741 22.7371 56.9741 22.7397C56.969 22.8064 56.9146 22.8577 56.8472 22.8577C56.7722 22.8603 56.7229 22.8116 56.7152 22.7448C56.6996 22.6242 56.5676 21.562 56.6893 21.2181C56.8084 20.8794 57.0777 20.0122 57.1217 19.7864C57.1295 19.7427 57.1217 19.6837 57.0674 19.6478C56.9845 19.5939 56.8006 19.6016 56.5236 19.7864C55.5136 20.4586 54.8895 21.1001 54.931 21.4208C55.0009 21.9622 54.786 24.3844 54.7782 24.4896C54.7756 24.5204 54.7601 24.5512 54.7393 24.5718C51.7613 27.3634 47.0224 31.9923 46.9862 32.5234C46.9422 33.0982 47.17 34.2606 48.312 34.5736Z" fill="#3F4553"/>
<path d="M55.8478 22.6832C55.8452 22.6832 55.8426 22.6832 55.8426 22.6832C55.7701 22.6806 55.7157 22.619 55.7209 22.5498C55.7209 22.5421 55.7546 21.8441 55.7365 21.5029C55.7157 21.1334 56.2699 19.7889 56.3346 19.6375C56.3605 19.5708 56.4382 19.54 56.503 19.5682C56.5677 19.5939 56.6014 19.6708 56.5729 19.735C56.3424 20.2892 55.9825 21.254 55.9954 21.4901C56.0135 21.8441 55.9799 22.5344 55.9799 22.5626C55.9747 22.6293 55.9177 22.6832 55.8478 22.6832Z" fill="#263238"/>
<path d="M55.4176 22.5395L55.1587 22.5344C55.1587 22.5344 55.1768 21.7851 55.1898 21.5054C55.2027 21.2206 55.4902 20.338 55.5212 20.2405C55.5419 20.1737 55.617 20.1353 55.6844 20.1583C55.7517 20.1789 55.7906 20.2533 55.7672 20.32C55.6818 20.5817 55.4565 21.3053 55.4461 21.5183C55.4358 21.7954 55.4176 22.5395 55.4176 22.5395Z" fill="#263238"/>
</g>
</svg>
