<svg width="119" height="85" viewBox="0 0 119 85" fill="none" xmlns="http://www.w3.org/2000/svg">
<g clip-path="url(#clip0_10_958)">
<path d="M29.065 77.72C29.065 78.1248 26.6934 78.4512 23.7694 78.4512C20.8455 78.4512 18.4739 78.1248 18.4739 77.72C18.4739 77.3152 20.8455 76.9889 23.7694 76.9889C26.6934 76.9889 29.065 77.3152 29.065 77.72Z" fill="#FDF9E7"/>
<path d="M40.9233 84.9999C51.288 84.9999 59.6902 83.8381 59.6902 82.4049C59.6902 80.9717 51.288 79.8098 40.9233 79.8098C30.5586 79.8098 22.1564 80.9717 22.1564 82.4049C22.1564 83.8381 30.5586 84.9999 40.9233 84.9999Z" fill="#F05D48"/>
<path d="M89.4852 84.112C101.822 84.112 111.822 82.7295 111.822 81.0242C111.822 79.3189 101.822 77.9365 89.4852 77.9365C77.149 77.9365 67.1484 79.3189 67.1484 81.0242C67.1484 82.7295 77.149 84.112 89.4852 84.112Z" fill="#F05D48"/>
<path d="M60.8323 78.9091C74.5887 78.9091 85.7405 77.368 85.7405 75.4668C85.7405 73.5657 74.5887 72.0245 60.8323 72.0245C47.0759 72.0245 35.9242 73.5657 35.9242 75.4668C35.9242 77.368 47.0759 78.9091 60.8323 78.9091Z" fill="#F05D48"/>
<path d="M117.57 74.7076C117.57 75.5862 112.412 76.3017 106.046 76.3017C99.6829 76.3017 94.5215 75.5893 94.5215 74.7076C94.5215 73.829 99.6797 73.1135 106.046 73.1135C112.408 73.1135 117.57 73.8258 117.57 74.7076Z" fill="#F05D48"/>
<path d="M18.0778 69.8878C12.1457 68.526 6.58174 63.8724 3.64843 58.4376C0.718248 53.0027 -0.417628 46.4476 1.32051 40.5169C3.05553 34.5862 7.89861 29.484 13.9119 28.2006C21.2295 26.6379 28.6096 30.6921 34.1985 35.6908C36.4827 37.7336 38.6359 39.9803 41.279 41.5242C43.9252 43.0649 47.2361 43.8243 50.0571 42.6381C53.4429 41.2135 55.181 37.5296 56.8286 34.2348C60.8853 26.1201 66.209 18.5201 73.224 12.7997C80.2389 7.07609 89.0482 3.32941 98.079 3.36079C103.705 3.37962 109.578 5.01448 113.498 9.07181C118.466 14.2149 119.333 22.2417 117.851 29.2549C116.369 36.2682 112.902 42.6664 110.146 49.278C107.391 55.8896 105.3 63.1664 106.776 70.1797L18.0778 69.8878Z" fill="#F05D48"/>
<path d="M55.7051 26.6315C57.4214 23.798 58.9099 20.7762 59.5683 17.5284C60.4296 13.2797 59.6931 8.79559 56.7661 5.48194C52.6407 0.815856 44.1497 -1.39638 38.333 0.93196C35.9365 1.89216 33.8551 3.90671 33.3059 6.43901C32.3728 10.7254 35.6244 14.4344 37.6403 17.8548C38.7231 19.6936 39.5313 21.8336 39.6093 23.9894C39.6811 26.0479 38.3986 27.9495 38.7106 30.0268C38.8854 31.1941 39.5844 32.239 40.4893 32.9952C42.4677 34.6489 45.2637 35.2514 47.7446 34.6144C51.5797 33.6322 53.7828 29.8071 55.7051 26.6315Z" fill="#F05D48"/>
<path d="M46.9177 13.8069H4.33802C4.25688 13.8069 4.18823 13.8728 4.18823 13.9575V47.5678C4.18823 47.6494 4.25376 47.7184 4.33802 47.7184H46.9177C46.9989 47.7184 47.0675 47.6525 47.0675 47.5678V13.9575C47.0675 13.8759 46.9989 13.8069 46.9177 13.8069ZM34.0081 30.6136H30.0419V26.7383H34.0081V30.6136ZM34.3077 26.7383H38.2739V30.6136H34.3077V26.7383ZM25.4797 30.9148V34.7902H21.5135V30.9148H25.4797ZM21.5135 30.6136V26.7383H25.4797V30.6136H21.5135ZM25.7792 30.9148H29.7454V34.7902H25.7792V30.9148ZM25.7792 30.6136V26.7383H29.7454V30.6136H25.7792ZM30.0419 26.4402V22.5648H34.0081V26.4402H30.0419ZM29.7454 26.4402H25.7792V22.5648H29.7454V26.4402ZM25.4797 26.4402H21.5135V22.5648H25.4797V26.4402ZM21.2139 26.4402H17.2477V22.5648H21.2139V26.4402ZM21.2139 26.7383V30.6136H17.2477V26.7383H21.2139ZM16.9512 30.6136H12.985V26.7383H16.9512V30.6136ZM12.6855 30.6136H8.71925V26.7383H12.6855V30.6136ZM12.6855 30.9148V34.7902H8.71925V30.9148H12.6855ZM12.985 30.9148H16.9512V34.7902H12.985V30.9148ZM17.2477 30.9148H21.2139V34.7902H17.2477V30.9148ZM21.2139 35.0883V38.9636H17.2477V35.0883H21.2139ZM21.5135 35.0883H25.4797V38.9636H21.5135V35.0883ZM25.7792 35.0883H29.7454V38.9636H25.7792V35.0883ZM30.0419 35.0883H34.0081V38.9636H30.0419V35.0883ZM30.0419 34.787V30.9148H34.0081V34.7902H30.0419V34.787ZM34.3077 30.9148H38.2739V34.7902H34.3077V30.9148ZM38.5703 30.9148H42.5365V34.7902H38.5703V30.9148ZM38.5703 30.6136V26.7383H42.5365V30.6136H38.5703ZM38.5703 26.4402V22.5648H42.5365V26.4402H38.5703ZM38.2739 26.4402H34.3077V22.5648H38.2739V26.4402ZM34.3077 22.2636V18.3914H38.2739V22.2667H34.3077V22.2636ZM34.0081 22.2636H30.0419V18.3914H34.0081V22.2636ZM29.7454 22.2636H25.7792V18.3914H29.7454V22.2636ZM25.4797 22.2636H21.5135V18.3914H25.4797V22.2636ZM21.2139 22.2636H17.2477V18.3914H21.2139V22.2636ZM16.9512 22.2636H12.985V18.3914H16.9512V22.2636ZM16.9512 22.5648V26.4402H12.985V22.5648H16.9512ZM12.6855 26.4402H8.71925V22.5648H12.6855V26.4402ZM8.41968 26.4402H4.4878V22.5648H8.41968V26.4402ZM8.41968 26.7383V30.6136H4.4878V26.7383H8.41968ZM8.41968 30.9148V34.7902H4.4878V30.9148H8.41968ZM8.41968 35.0883V38.9636H4.4878V35.0883H8.41968ZM8.71925 35.0883H12.6855V38.9636H8.71925V35.0883ZM12.985 35.0883H16.9512V38.9636H12.985V35.0883ZM16.9512 39.2617V43.137H12.985V39.2617H16.9512ZM17.2477 39.2617H21.2139V43.137H17.2477V39.2617ZM21.5135 39.2617H25.4797V43.137H21.5135V39.2617ZM25.7792 39.2617H29.7454V43.137H25.7792V39.2617ZM30.0419 39.2617H34.0081V43.137H30.0419V39.2617ZM34.3077 39.2617H38.2739V43.137H34.3077V39.2617ZM34.3077 38.9636V35.0883H38.2739V38.9636H34.3077ZM38.5703 35.0883H42.5365V38.9636H38.5703V35.0883ZM42.8361 35.0883H46.768V38.9636H42.8361V35.0883ZM42.8361 34.787V30.9148H46.768V34.7902H42.8361V34.787ZM42.8361 30.6136V26.7383H46.768V30.6136H42.8361ZM42.8361 26.4402V22.5648H46.768V26.4402H42.8361ZM42.8361 22.2636V18.3914H46.768V22.2667H42.8361V22.2636ZM42.5365 22.2636H38.5703V18.3914H42.5365V22.2636ZM38.5703 18.0901V14.1081H42.5365V18.0901H38.5703ZM38.2739 18.0901H34.3077V14.1081H38.2739V18.0901ZM34.0081 18.0901H30.0419V14.1081H34.0081V18.0901ZM29.7454 18.0901H25.7792V14.1081H29.7454V18.0901ZM25.4797 18.0901H21.5135V14.1081H25.4797V18.0901ZM21.2139 18.0901H17.2477V14.1081H21.2139V18.0901ZM16.9512 18.0901H12.985V14.1081H16.9512V18.0901ZM12.6855 18.0901H8.71925V14.1081H12.6855V18.0901ZM12.6855 18.3914V22.2667H8.71925V18.3914H12.6855ZM8.41968 22.2636H4.4878V18.3914H8.41968V22.2636ZM4.4878 39.2617H8.41968V43.137H4.4878V39.2617ZM8.71925 39.2617H12.6855V43.137H8.71925V39.2617ZM12.6855 43.4383V47.4203H8.71925V43.4383H12.6855ZM12.985 43.4383H16.9512V47.4203H12.985V43.4383ZM17.2477 43.4383H21.2139V47.4203H17.2477V43.4383ZM21.5135 43.4383H25.4797V47.4203H21.5135V43.4383ZM25.7792 43.4383H29.7454V47.4203H25.7792V43.4383ZM30.0419 43.4383H34.0081V47.4203H30.0419V43.4383ZM34.3077 43.4383H38.2739V47.4203H34.3077V43.4383ZM38.5703 43.4383H42.5365V47.4203H38.5703V43.4383ZM38.5703 43.137V39.2617H42.5365V43.137H38.5703ZM42.8361 39.2617H46.768V43.137H42.8361V39.2617ZM46.768 18.0901H42.8361V14.1081H46.768V18.0901ZM8.41968 14.1081V18.0901H4.4878V14.1081H8.41968ZM4.4878 43.4383H8.41968V47.4203H4.4878V43.4383ZM42.8361 47.4203V43.4383H46.768V47.4203H42.8361Z" fill="#E7DFC2"/>
<path d="M21.7505 23.4183C21.7505 23.4183 22.7023 31.9629 27.4236 33.4503L36.1112 30.9996C36.1112 30.9996 30.9249 28.599 30.3944 23.4183H21.7505Z" fill="#FEDEA6"/>
<path d="M17.2478 31.3167C17.2478 31.3167 16.5239 41.0442 12.929 42.7355L6.31348 39.9459C6.31348 39.9459 10.2641 37.2159 10.6666 31.3167H17.2478Z" fill="#F7F4E3"/>
<path d="M39.5883 16.6177L33.8024 18.3094L35.8045 25.2334L41.5904 23.5416L39.5883 16.6177Z" fill="#F7F4E3"/>
<path d="M39.2875 17.3037L34.4244 18.7256L35.7174 23.1969L40.5804 21.775L39.2875 17.3037Z" fill="#FDFDFD"/>
<path d="M23.1468 37.6213L18.6958 36.3947L17.2451 41.7178L21.696 42.9444L23.1468 37.6213Z" fill="#D2CDB8"/>
<path d="M22.6787 37.9474L18.938 36.9165L18.0002 40.3573L21.741 41.3882L22.6787 37.9474Z" fill="#E7DFC2"/>
<path d="M93.0112 34.9344C92.3778 34.9344 91.7412 34.9313 91.1077 34.9313C90.7957 34.9313 90.4961 35.2074 90.5117 35.5306C90.5273 35.857 90.7738 36.13 91.1077 36.13C91.7412 36.13 92.3778 36.1331 93.0112 36.1331C93.3233 36.1331 93.6229 35.857 93.6073 35.5338C93.5917 35.2105 93.3451 34.9376 93.0112 34.9344Z" fill="#CCC6AD"/>
<path d="M111.644 50.8595C105.802 45.638 99.9606 40.4196 94.1189 35.1981C93.2608 34.4325 91.9907 35.7002 92.8551 36.469L110.38 52.1304C111.235 52.8991 112.505 51.6314 111.644 50.8595Z" fill="#CCC6AD"/>
<path d="M114.271 73.0163H112.586C111.042 72.5707 108.576 72.2852 105.796 72.2852C103.016 72.2852 100.554 72.5738 99.0058 73.0163H97.3207C97.2427 73.4713 97.3207 74.1083 97.3207 74.1083C97.3207 75.1156 101.115 75.9314 105.793 75.9314C110.474 75.9314 114.265 75.1156 114.265 74.1083C114.424 73.4336 114.271 73.0163 114.271 73.0163Z" fill="#CCC6AD"/>
<path d="M114.272 73.0165C114.272 74.0238 110.48 74.8427 105.803 74.8427C101.122 74.8427 97.3303 74.0238 97.3303 73.0165C97.3303 72.0124 101.125 71.1934 105.803 71.1934C106.143 71.1934 106.477 71.1965 106.804 71.2059C107.107 71.2153 107.403 71.2247 107.697 71.2404C111.463 71.4224 114.272 72.1536 114.272 73.0165Z" fill="#E7DFC2"/>
<path d="M107.696 71.2372L106.82 72.7559L106.804 72.781V71.2058C107.104 71.2152 107.403 71.2215 107.696 71.2372Z" fill="#E7DFC2"/>
<path d="M110.371 51.2612L105.079 72.3009C104.795 73.4243 106.52 73.9044 106.804 72.7779C108.567 65.7647 110.334 58.7514 112.097 51.7382C112.381 50.6148 110.655 50.1378 110.371 51.2612Z" fill="#E7DFC2"/>
<path d="M112.037 50.4641C106.195 45.2426 100.354 40.0242 94.5121 34.8027C93.654 34.0371 92.3839 35.3048 93.2483 36.0767L110.773 51.7381C111.628 52.5037 112.898 51.236 112.037 50.4641Z" fill="#E7DFC2"/>
<path d="M76.4169 34.9314C76.4169 34.9314 81.5283 26.5626 88.1438 30.5509C94.7594 34.5392 89.8289 43.0147 89.8289 43.0147L76.4169 34.9314Z" fill="#E7DFC2"/>
<path d="M89.8283 43.018C89.46 43.6361 87.1165 42.9301 84.2363 41.4176C83.6153 41.0913 82.9693 40.7273 82.314 40.3319C81.6587 39.9365 81.0346 39.5349 80.4573 39.1395C77.7736 37.2975 76.0511 35.5528 76.4193 34.9347C76.7626 34.3604 78.819 34.9315 81.4309 36.2369C82.2235 36.6323 83.0723 37.0967 83.9367 37.6207C84.8011 38.1416 85.6062 38.6719 86.3301 39.1928C88.6955 40.8873 90.1684 42.4406 89.8283 43.018Z" fill="#C1B894"/>
<path d="M86.3236 39.1865C86.0833 40.2565 85.2782 41.1132 84.236 41.4144C83.9707 41.4929 83.6868 41.5337 83.3934 41.5337C81.9455 41.5337 80.7379 40.5044 80.4539 39.1332C80.4133 38.9323 80.3915 38.7221 80.3915 38.5087C80.3915 37.5956 80.7909 36.7829 81.4275 36.2306C82.2201 36.626 83.0689 37.0904 83.9333 37.6144C84.7946 38.1384 85.5997 38.6688 86.3236 39.1865Z" fill="#FAC978"/>
<path d="M93.5229 33.9836C91.6038 33.9836 91.6007 36.9835 93.5229 36.9835C95.4421 36.9835 95.4452 33.9836 93.5229 33.9836Z" fill="#E7DFC2"/>
<path d="M93.5229 34.8654C92.7334 34.8654 92.7302 36.1017 93.5229 36.1017C94.3155 36.1017 94.3155 34.8654 93.5229 34.8654Z" fill="#E7DFC2"/>
<path d="M111.07 49.4725C108.602 49.4725 108.599 53.329 111.07 53.329C113.538 53.329 113.542 49.4725 111.07 49.4725Z" fill="#E7DFC2"/>
<path d="M111.07 50.621C110.071 50.621 110.068 52.1837 111.07 52.1837C112.068 52.1837 112.071 50.621 111.07 50.621Z" fill="#E7DFC2"/>
<path d="M29.0591 68.9309H18.4805C18.4805 68.9309 18.1934 75.2883 21.367 77.5414C21.6291 77.7265 21.9568 77.8238 22.2907 77.8238H23.7698H25.2489C25.5828 77.8238 25.9105 77.7265 26.1726 77.5414C29.3462 75.2915 29.0591 68.9309 29.0591 68.9309Z" fill="#536969"/>
<path d="M29.0652 68.9338C29.0652 69.1221 27.3364 69.2853 25.0085 69.3261C24.6122 69.3355 24.1941 69.3386 23.7666 69.3386C23.4014 69.3386 23.0488 69.3355 22.7025 69.3292C20.2903 69.2947 18.4741 69.1284 18.4741 68.9338C18.4741 68.755 20.0125 68.6012 22.1376 68.5479C22.6494 68.5353 23.1986 68.5291 23.7697 68.5291C24.219 68.5291 24.6559 68.5322 25.0709 68.5416C27.3645 68.5855 29.0652 68.7456 29.0652 68.9338Z" fill="#405050"/>
<path d="M30.5757 70.7947C30.014 70.1138 29.1028 69.9914 28.2759 70.0197C27.5113 70.0448 27.5082 71.2435 28.2759 71.2184C28.8781 71.1995 29.5241 71.2152 29.833 71.8177C30.1201 72.37 30.0702 73.0886 29.7893 73.6346C29.1184 74.9525 27.5862 75.3165 26.2257 75.1313C25.9074 75.0874 25.6296 75.4389 25.6296 75.7307C25.6296 76.0916 25.9042 76.2861 26.2257 76.33C27.6923 76.5277 29.3056 76.1229 30.3104 74.9713C31.3028 73.8323 31.5867 72.0217 30.5757 70.7947Z" fill="#536969"/>
<path opacity="0.5" d="M26.7529 65.3473C25.951 66.1569 25.0866 67.0826 25.0616 68.2279C25.0585 68.3566 25.0679 68.4852 25.0741 68.617C25.0897 68.89 25.1053 69.163 25.0148 69.4015C24.6185 69.4109 24.2003 69.414 23.7728 69.414C23.4077 69.414 23.0551 69.4109 22.7087 69.4046C22.4809 69.1944 22.2875 68.9182 22.1408 68.6233C21.9879 68.3409 21.8755 68.0428 21.8069 67.776C21.6758 67.2708 21.6665 66.7311 21.7975 66.2259C22.1377 64.9048 23.3235 63.8254 23.2985 62.4635C23.2829 61.5818 22.7524 60.7973 22.1626 60.1478C21.5697 59.5013 20.8863 58.9208 20.4432 58.1615C19.6849 56.8686 19.7723 55.1145 20.6929 53.9347C21.6103 52.7548 23.3235 52.2559 24.709 52.8019C26.0976 53.351 27.0213 54.9263 26.7779 56.4042C26.6188 57.3676 26.029 58.3529 26.4034 59.2566C26.6094 59.7492 27.0588 60.085 27.4363 60.4647C27.9606 60.9981 28.3663 61.6979 28.3819 62.4478C28.4068 63.5901 27.5549 64.5377 26.7529 65.3473Z" fill="#54C1BB"/>
<path d="M34.342 70.3208C34.342 70.3208 27.611 43.4978 30.6286 40.2564C33.6461 37.0149 58.7353 35.515 61.4844 38.0253C64.2336 40.5356 64.0121 70.2863 64.0121 70.2863L34.342 70.3208Z" fill="#54C1BB"/>
<path d="M61.4874 38.0253C61.4031 37.95 61.297 37.8747 61.1722 37.8056C52.8466 37.2879 37.9679 38.7407 35.6868 41.1915C33.0094 44.0721 38.0147 65.5417 39.1693 70.3145L64.0119 70.2863C64.0119 70.2863 64.2366 40.5356 61.4874 38.0253Z" fill="#8DD1CD"/>
<path d="M69.0861 47.9944C69.0861 47.9944 74.263 63.6338 75.6548 64.0229C77.0466 64.412 91.3074 67.1137 91.3074 67.1137L90.6115 70.6125C90.6115 70.6125 73.2364 71.1585 69.0861 68.2026C64.9327 65.2467 69.0861 47.9944 69.0861 47.9944Z" fill="#DDBB8F"/>
<path d="M69.0861 47.9944C69.0861 47.9944 64.9326 65.2467 69.0861 68.2026C70.6776 69.3354 74.2069 69.9536 77.9578 70.2862L78.9626 65.2467L78.819 65.1588L78.7129 64.6724C77.1683 64.3618 76.0074 64.117 75.6579 64.0197C74.2631 63.6338 69.0861 47.9944 69.0861 47.9944Z" fill="#405050"/>
<path d="M80.4387 65.0177C79.7677 65.73 79.3153 66.6149 79.0625 67.5406C78.8097 68.4663 78.7473 69.4296 78.7941 70.3836C78.8004 70.4871 78.6943 70.6001 78.5882 70.6252C78.4821 70.6503 78.3697 70.6283 78.2605 70.6126C78.1513 70.5969 78.0327 70.5907 77.9391 70.6472C77.8455 70.7036 77.7924 70.8135 77.6926 70.8543C77.5646 70.9045 77.4273 70.8323 77.2994 70.7852C77.0217 70.6817 76.7127 70.7036 76.4163 70.6817C76.1198 70.6628 75.7953 70.5844 75.6237 70.3522C75.4988 70.1859 75.4801 69.9694 75.4645 69.7654C75.3927 68.8177 75.3303 67.8136 75.7766 66.9632C76.0605 66.4235 76.5286 65.9811 76.772 65.4257C76.8906 65.1558 76.9499 64.864 77.1122 64.6161C77.2713 64.3682 77.574 64.1673 77.8736 64.2332C78.1232 64.2897 78.298 64.5125 78.5414 64.5816C78.7629 64.6412 78.9938 64.5659 79.2216 64.5408C79.7022 64.4874 80.1328 64.6537 80.4387 65.0177Z" fill="#536969"/>
<path d="M43.2759 70.3205H69.6007C68.8643 65.1806 68.1809 59.4916 68.2589 56.5419C68.3244 54.1257 69.0827 48.0319 69.0827 48.0319C68.7925 47.6867 62.2924 42.6252 57 42.7821C48.0222 43.052 43.46 49.4283 43.46 49.4283C43.46 49.4283 43.7627 54.1571 43.9842 56.6141C44.2495 59.5386 43.7596 65.1994 43.2759 70.3205Z" fill="#F7F4E3"/>
<path d="M68.2558 57.0973C68.2558 56.8902 68.2558 56.6926 68.262 56.5043C68.3244 54.1822 69.0266 48.4743 69.0827 48.0256C68.8081 47.7118 64.1304 44.0624 59.5027 43.0426L59.5433 47.5079C59.5433 47.5079 61.2658 58.1329 62.0272 70.2829H69.5976C68.908 65.4599 68.2652 60.16 68.2558 57.0973Z" fill="#405050"/>
<path d="M60.1082 42.4025L64.2647 47.3761L61.1816 46.4441L59.5402 47.5079L57.671 42.8135L60.1082 42.4025Z" fill="#536969"/>
<path d="M43.2759 70.2862H55.3336C54.0979 59.4165 53.6954 49.1084 53.6954 49.1084L52.341 43.4852C46.4495 45.2236 43.46 49.3939 43.46 49.3939C43.46 49.3939 43.7627 54.1228 43.9842 56.5798C44.2495 59.5043 43.7596 65.162 43.2759 70.2862Z" fill="#405050"/>
<path d="M68.0469 31.1688C70.0971 29.7316 71.6043 27.3907 72.1535 24.7831C72.3282 23.9579 72.4094 23.0949 72.2471 22.2634C72.088 21.4318 71.6604 20.6348 70.9989 20.1923C70.3373 19.7499 69.4261 19.7279 68.8239 20.2488C68.412 19.524 67.532 19.1976 66.7706 19.3357C66.0091 19.4738 65.3351 19.9413 64.7016 20.4214C62.2083 19.32 59.2033 19.957 57.2592 21.9559C55.6084 22.2414 54.123 23.5217 53.4583 25.2005C52.7937 26.8793 52.7843 28.8122 53.1588 30.6071C53.4271 31.8874 53.9139 33.1708 54.8189 34.0337C55.908 35.0692 57.4339 35.3422 58.8662 35.3203C62.2052 35.2669 65.2446 33.1331 68.0469 31.1688Z" fill="#405050"/>
<path d="M54.9781 29.1072C54.3696 34.9845 52.853 45.3867 52.853 45.3867C54.1761 47.7402 59.1659 47.4421 59.0504 46.6545C58.9849 46.2089 59.091 45.4338 59.35 44.7372C59.5497 44.1975 59.843 43.7017 60.2175 43.4381C60.3735 43.3283 60.6513 43.2938 61.0101 43.2906C61.0694 43.2938 61.1006 43.2906 61.1006 43.2906C62.7514 43.3032 65.9499 43.937 67.3448 41.9288C69.0798 39.431 69.2702 32.4773 69.0829 29.126C68.9737 27.2088 67.3354 24.5196 64.037 23.9359C60.0053 23.2205 55.5897 23.1922 54.9781 29.1072Z" fill="#FDBCA0"/>
<path d="M55.5521 41.6526C55.5521 41.6526 56.8003 43.4632 59.3498 44.734C59.5495 44.1943 59.8429 43.6985 60.2173 43.4349C60.3733 43.3251 60.6511 43.2906 61.0099 43.2874C60.5169 43.2749 58.0642 43.1243 55.5521 41.6526Z" fill="#F0A38B"/>
<path d="M65.0073 35.6844C65.232 35.6812 65.466 35.6875 65.6532 35.8287C65.7999 35.9385 65.8686 36.1205 65.8561 36.3025C65.8218 36.7167 65.4504 36.949 65.0822 37.0368C64.9636 37.0651 64.9074 36.8831 65.026 36.8548C65.3069 36.7889 65.622 36.6352 65.6657 36.3151C65.6845 36.1864 65.6408 36.0546 65.5347 35.9762C65.388 35.8695 65.1914 35.8758 65.0167 35.8758C64.8918 35.8789 64.8856 35.6875 65.0073 35.6844Z" fill="#3F4553"/>
<path d="M62.6608 33.4C62.6483 33.7515 62.8699 34.0433 63.1569 34.0527C63.444 34.0621 63.6843 33.786 63.6968 33.4345C63.7093 33.0831 63.4877 32.7913 63.2006 32.7818C62.9135 32.7724 62.6733 33.0486 62.6608 33.4Z" fill="#3F4553"/>
<path d="M66.1183 33.7357C66.1058 34.0872 66.3274 34.379 66.6145 34.3884C66.9016 34.3978 67.1418 34.1217 67.1543 33.7702C67.1668 33.4188 66.9452 33.127 66.6582 33.1175C66.3742 33.1081 66.1308 33.3843 66.1183 33.7357Z" fill="#3F4553"/>
<path d="M61.7773 30.4252C62.3952 30.0392 63.1784 29.9639 63.8525 30.262C63.9461 30.3028 64.0023 30.4095 63.9648 30.5099C63.9305 30.6041 63.815 30.6637 63.7183 30.6229C63.1784 30.3844 62.5231 30.4095 62.0176 30.7264C61.9302 30.7798 61.821 30.7861 61.7492 30.6982C61.6899 30.6229 61.6899 30.4817 61.7773 30.4252Z" fill="#3F4553"/>
<path d="M68.3589 31.0433C67.8658 30.5036 67.1325 30.2212 66.4054 30.3247C66.3024 30.3404 66.2244 30.4252 66.2338 30.5318C66.2432 30.6323 66.3368 30.7201 66.4398 30.7044C67.0233 30.6197 67.6474 30.8237 68.05 31.263C68.1186 31.3383 68.2247 31.3728 68.3152 31.3069C68.3901 31.2567 68.4275 31.1218 68.3589 31.0433Z" fill="#3F4553"/>
<path d="M61.0381 34.787C61.0163 35.0569 61.4094 35.3111 61.915 35.355C62.4236 35.3989 62.8542 35.2169 62.8761 34.9471C62.8979 34.6772 62.5047 34.423 61.9992 34.3791C61.4906 34.3352 61.0599 34.5172 61.0381 34.787Z" fill="#FBAD8B"/>
<path d="M66.6393 35.2858C66.6175 35.5557 67.0106 35.8098 67.5162 35.8538C68.0248 35.8977 68.4555 35.7157 68.4773 35.4458C68.4991 35.176 68.106 34.9218 67.6004 34.8779C67.0918 34.8339 66.6611 35.0159 66.6393 35.2858Z" fill="#FBAD8B"/>
<path d="M65.9591 38.9226C65.8998 39.2552 65.7156 39.5565 65.4629 39.7793C65.4161 39.8232 65.3724 39.8577 65.3225 39.8922C65.001 40.1244 64.6016 40.2374 64.2053 40.25C63.6249 40.2719 63.032 40.0711 62.6138 39.6663C62.4516 39.5094 62.3174 39.3243 62.2238 39.1203C62.0677 38.7971 62.0053 38.43 62.0677 38.0785C62.1021 37.8808 62.1988 37.6706 62.386 37.6204C62.5077 37.589 62.6263 37.6298 62.7387 37.6957C62.7979 37.7302 62.8541 37.771 62.9072 37.8087C63.3409 38.1319 63.809 38.4268 64.3332 38.5524C64.7015 38.6402 65.104 38.6339 65.4598 38.499C65.5783 38.4519 65.7562 38.295 65.8873 38.3766C65.8904 38.3798 65.8904 38.3798 65.8935 38.3798C66.0308 38.4865 65.9871 38.7814 65.9591 38.9226Z" fill="#4E5567"/>
<path d="M65.884 38.3828C65.859 38.4738 65.8122 38.5648 65.7529 38.6401C65.6218 38.8033 65.4253 38.91 65.2255 38.9759C64.5515 39.1987 63.787 39.023 63.2034 38.6182C63.0162 38.4864 62.8383 38.3263 62.7541 38.1098C62.7041 37.9812 62.6948 37.8337 62.7353 37.7019C62.7946 37.7364 62.8508 37.7772 62.9039 37.8149C63.3376 38.1381 63.8057 38.433 64.3299 38.5586C64.6982 38.6464 65.1007 38.6401 65.4565 38.5052C65.575 38.4581 65.7529 38.3012 65.884 38.3828Z" fill="white"/>
<path d="M65.4632 39.7826C65.4164 39.8265 65.3727 39.861 65.3228 39.8955C65.0014 40.1278 64.602 40.2407 64.2057 40.2533C63.6252 40.2752 63.0323 40.0744 62.6142 39.6696C62.4519 39.5127 62.3177 39.3276 62.2241 39.1236C62.6735 39.0765 63.1322 39.0703 63.5847 39.1048C64.1245 39.1456 64.6737 39.2491 65.1356 39.5284C65.2479 39.6037 65.3603 39.6853 65.4632 39.7826Z" fill="#3F4553"/>
<path d="M65.828 27.8268C64.4113 28.1186 62.8479 27.4942 62.0178 26.3017C61.9148 26.6626 61.6153 26.9607 61.2533 27.0643C60.8944 27.1678 60.4825 27.0705 60.2048 26.8164C60.1486 27.9774 59.8459 29.1478 59.1813 30.0955C58.5166 31.0463 57.4618 31.7523 56.3104 31.8433C55.6675 31.8935 54.9841 31.7398 54.5036 31.3036C54.0573 30.8957 53.8358 30.2963 53.7016 29.7064C53.3802 28.2849 53.4769 26.7536 54.0604 25.4169C54.6409 24.0801 55.7175 22.9504 57.0562 22.3856C58.3356 21.8428 59.771 21.8302 61.1597 21.8773C62.5889 21.9275 64.0306 22.0404 65.388 22.4954C66.4895 22.8626 67.5349 23.4713 68.3057 24.3531C68.4555 24.5257 68.7176 24.7673 68.7145 25.0089C68.7114 25.2443 68.546 25.5518 68.443 25.7589C68.2027 26.2453 67.8595 26.6752 67.4475 27.0235C66.9857 27.422 66.424 27.7044 65.828 27.8268Z" fill="#405050"/>
<path d="M55.5772 31.9186C55.0935 31.3475 54.3914 30.9145 53.6238 30.9772C52.8655 31.04 52.2695 31.5578 52.076 32.2952C51.948 32.791 51.9886 33.315 52.0822 33.8202C52.179 34.3505 52.3288 34.8745 52.5815 35.3484C53.059 36.2427 54.0544 37.0585 55.1248 36.7039C56.5508 36.2301 56.6476 34.4635 56.2918 33.2303C56.1545 32.7721 55.9049 32.3077 55.5772 31.9186Z" fill="#FDBCA0"/>
<path d="M53.6924 32.2543C53.5613 32.1852 53.449 32.3829 53.5769 32.452C54.4881 32.9258 54.9968 33.9456 54.8127 34.9654C54.7877 35.1098 55.0062 35.1694 55.0311 35.0251C55.234 33.9111 54.7003 32.7783 53.6924 32.2543Z" fill="#F0A38B"/>
<path d="M54.7347 33.4374C54.3477 33.2774 53.9202 33.2429 53.5145 33.3276C53.4552 33.3401 53.4209 33.4123 53.4365 33.4688C53.4552 33.5316 53.5145 33.5598 53.5769 33.5472C53.9451 33.4719 54.329 33.5127 54.6785 33.6571C54.7346 33.679 54.8033 33.632 54.8189 33.5786C54.8314 33.5127 54.7908 33.4625 54.7347 33.4374Z" fill="#F0A38B"/>
<path d="M53.3367 42.4025L50.7966 43.4819L48.5342 49.9335L52.3912 47.8468L53.6987 49.1082L53.3367 42.4025Z" fill="#536969"/>
<path d="M43.4633 49.3953C43.4633 49.3953 33.4526 67.1151 35.6183 70.1495C37.7839 73.1838 57.1219 76.1398 57.1219 76.1398L57.9177 72.2048C57.9177 72.2048 43.8378 68.3389 43.5476 67.2312L43.9033 62.791C43.9002 62.791 45.061 50.9799 43.4633 49.3953Z" fill="#FDBCA0"/>
<path d="M43.5445 67.2297L43.9002 62.7896C43.9002 62.7896 45.061 50.9784 43.4633 49.3906C43.4633 49.3906 33.4526 67.1105 35.6183 70.1448C36.3173 71.1239 38.8137 72.0966 41.8687 72.9658L42.8142 72.6363L44.6741 67.964C44.0094 67.6659 43.5913 67.4117 43.5445 67.2297Z" fill="#405050"/>
<path d="M46.9364 68.4816C45.3855 69.8654 44.3557 71.8298 44.0936 73.8976C43.6848 73.9039 43.3072 73.7345 42.9702 73.5023C42.5739 73.7721 42.0496 73.7125 41.5784 73.6403C41.3912 73.6121 41.1821 73.5713 41.0729 73.4175C41.0011 73.3171 40.9887 73.1885 40.9762 73.0661C40.9294 72.5829 40.8826 72.0902 40.998 71.6195C41.1104 71.1614 41.3694 70.7535 41.6253 70.3549C42.0684 69.6677 42.5115 68.9774 42.9546 68.2902C43.1075 68.0549 43.2604 67.8132 43.482 67.6438C43.7035 67.4712 44.0031 67.3771 44.2652 67.4712C44.4275 67.5308 44.5586 67.6532 44.7115 67.7348C44.9673 67.8697 45.2669 67.8791 45.554 67.8697C45.8411 67.8603 46.1344 67.8321 46.4122 67.9074C46.6899 67.9827 46.8771 68.1961 46.9364 68.4816Z" fill="#536969"/>
<path d="M43.9345 52.3247C43.894 56.1624 43.7473 60.0001 43.4914 63.8315C43.4196 64.9203 43.3354 66.0092 43.2449 67.098C43.2199 67.3899 43.6755 67.3804 43.7005 67.0886C44.0188 63.2635 44.2279 59.429 44.3308 55.5913C44.3589 54.4993 44.3776 53.4073 44.3901 52.3184C44.3932 52.0203 43.9376 52.0297 43.9345 52.3247Z" fill="#A1B8B8"/>
<path d="M57.1188 76.1354C57.1188 76.1354 64.814 79.2859 65.1635 78.6426C65.513 78.0025 61.8651 76.7849 61.8651 76.7849C61.8651 76.7849 66.9797 77.8267 67.1139 77.2996C67.248 76.7755 62.327 75.4639 62.327 75.4639C62.327 75.4639 68.2029 76.5433 68.2747 75.9283C68.3465 75.3133 63.0915 74.1585 63.0915 74.1585C63.0915 74.1585 68.0282 74.4409 68.0625 73.9922C68.1218 73.1857 57.9145 72.2004 57.9145 72.2004L57.1188 76.1354Z" fill="#FDBCA0"/>
<path d="M58.6477 72.2788C58.6477 72.2788 62.5733 70.8479 62.9697 71.1585C63.366 71.4692 61.2378 73.035 61.2378 73.035L58.6477 72.2788Z" fill="#FDBCA0"/>
<path d="M47.0674 68.0709H26.7465C26.5312 68.0709 26.4032 68.2466 26.4625 68.4632L29.9981 81.382C30.0574 81.5985 30.2789 81.7742 30.4942 81.7742H50.8152C51.0305 81.7742 51.1584 81.5985 51.0991 81.382L47.5636 68.4632C47.5074 68.2466 47.2827 68.0709 47.0674 68.0709Z" fill="#E7DFC2"/>
<path d="M49.573 81.6174L46.571 70.6535C46.5211 70.4684 46.3308 70.3209 46.1498 70.3209H28.9057C28.7216 70.3209 28.6155 70.4684 28.6654 70.6535L31.6674 81.6174C31.6642 81.6112 31.6861 81.6896 31.711 81.7712H49.6198L49.573 81.6174Z" fill="#F7F4E3"/>
<path d="M28.2223 69.0405C28.2223 69.3073 28.007 69.5206 27.7449 69.5206C27.4797 69.5206 27.2675 69.3041 27.2675 69.0405C27.2675 68.7769 27.4828 68.5604 27.7449 68.5604C28.007 68.5604 28.2223 68.7769 28.2223 69.0405Z" fill="#405050"/>
<path d="M27.9667 69.0405C27.9667 69.1629 27.8668 69.2633 27.7451 69.2633C27.6234 69.2633 27.5236 69.1629 27.5236 69.0405C27.5236 68.9182 27.6234 68.8177 27.7451 68.8177C27.8668 68.8177 27.9667 68.9182 27.9667 69.0405Z" fill="#576E6E"/>
<path d="M45.7694 70.4716H28.5253C28.3412 70.4716 28.2351 70.619 28.285 70.8042L31.287 81.7681C31.2839 81.7555 31.3806 82.1007 31.3806 82.1007H49.2862L49.1957 81.7681L46.1938 70.8042C46.1407 70.619 45.9535 70.4716 45.7694 70.4716Z" fill="#EBB254"/>
<path d="M49.1926 81.7681L47.2609 74.7078H29.3522L31.2838 81.7681C31.2807 81.7555 31.3774 82.1007 31.3774 82.1007H49.2831L49.1926 81.7681Z" fill="#FEDEA6"/>
<path d="M45.8034 83.7983H27.9071L31.3865 82.1007H49.2828L45.8034 83.7983Z" fill="#EBB254"/>
<path d="M68.6242 49.5947L105.106 43.4977C105.702 43.3973 106.245 43.868 106.242 44.483L106.086 67.7601C106.083 68.2308 105.759 68.6324 105.306 68.7266L69.7164 76.132C68.8426 76.3391 67.8035 75.7806 67.8035 74.4909V50.5737C67.8066 50.0904 68.153 49.6762 68.6242 49.5947Z" fill="#FEDEA6"/>
<path d="M70.275 49.5287L105.106 43.7204C105.702 43.62 106.245 44.0875 106.242 44.6963L106.093 67.7977C106.089 68.2621 105.765 68.6606 105.312 68.7547L70.6307 75.9186C70.0253 76.0441 69.4574 75.5797 69.4574 74.9553V50.5015C69.4605 50.0151 69.8038 49.6071 70.275 49.5287Z" fill="#FAC978"/>
<path d="M86.0179 61.6411L83.9989 73.151L94.9707 70.8854L86.0179 61.6411Z" fill="#EBB254"/>
<path d="M85.5622 82.706L80.7472 81.0617C79.9764 80.7981 80.0232 79.6873 80.8127 79.4896L88.976 77.4343C89.1196 77.3997 89.2662 77.4029 89.4067 77.4437L94.1468 78.8683C94.93 79.1036 94.9206 80.2207 94.1343 80.4435L86.0459 82.7185C85.8867 82.7624 85.7182 82.7593 85.5622 82.706Z" fill="#EBB254"/>
<path d="M92.7647 60.5428C92.6711 60.1098 92.2561 59.8305 91.8223 59.9089L86.6859 60.844C86.3021 60.9131 86.0212 61.2488 86.015 61.6411L85.7997 82.7875L96.8464 79.6778L92.7647 60.5428ZM91.451 76.9855C89.9032 77.1455 88.4646 75.4605 88.2368 73.22C88.009 70.9827 89.0794 69.0372 90.6272 68.8803C92.1749 68.7202 93.6135 70.4053 93.8413 72.6458C94.0691 74.8831 92.9988 76.8255 91.451 76.9855Z" fill="#FEDEA6"/>
<path d="M89.8752 22.5742C84.6483 22.5742 80.395 18.2972 80.395 13.0412C80.395 7.78517 84.6483 3.50818 89.8752 3.50818C95.1021 3.50818 99.3554 7.78517 99.3554 13.0412C99.3554 18.2972 95.1021 22.5742 89.8752 22.5742ZM89.8752 6.20993C86.1275 6.20993 83.0787 9.27568 83.0787 13.0443C83.0787 16.813 86.1275 19.8787 89.8752 19.8787C93.623 19.8787 96.6717 16.813 96.6717 13.0443C96.6717 9.27568 93.623 6.20993 89.8752 6.20993Z" fill="#F5E2D5"/>
<path d="M86.3239 15.4479L85.9026 14.654L89.4943 12.7367L91.0109 7.02881L91.8753 7.26101L90.2589 13.3486L86.3239 15.4479Z" fill="#F5E2D5"/>
</g>
<defs>
<clipPath id="clip0_10_958">
<rect width="118" height="85" fill="white" transform="translate(0.5)"/>
</clipPath>
</defs>
</svg>
