<svg width="177" height="210" viewBox="0 0 177 210" fill="none" xmlns="http://www.w3.org/2000/svg">
<mask id="mask0_10_717" style="mask-type:alpha" maskUnits="userSpaceOnUse" x="0" y="0" width="177" height="210">
<rect x="0.5" width="176.435" height="210" rx="10" fill="#FA6E5A"/>
</mask>
<g mask="url(#mask0_10_717)">
<path d="M13.2731 35.4473C-12.2269 39.8272 -18.7269 24.8626 -23.2269 16.2853V-37.3683H64.7731V60.6317H49.2731C40.9397 50.047 38.7731 31.0675 13.2731 35.4473Z" fill="#808AFF"/>
<path d="M116.273 35.4473C141.773 39.8272 148.273 24.8626 152.773 16.2853V-37.3683H64.7731V60.6317H80.2731C88.6064 50.047 90.7731 31.0675 116.273 35.4473Z" fill="#808AFF"/>
<g clip-path="url(#clip0_10_717)">
<path d="M156.886 24.3394H153.5V41.3394H156.886V24.3394Z" fill="#9BA3FF"/>
<path d="M162.193 30.0536H158.807V41.3391H162.193V30.0536Z" fill="#9BA3FF"/>
<path d="M167.507 35.4393H164.121V41.3394H167.507V35.4393Z" fill="#9BA3FF"/>
</g>
<g clip-path="url(#clip1_10_717)">
<path d="M92 129.339C111.054 129.339 126.5 126.653 126.5 123.339C126.5 120.026 111.054 117.339 92 117.339C72.9462 117.339 57.5 120.026 57.5 123.339C57.5 126.653 72.9462 129.339 92 129.339Z" fill="#808AFF"/>
</g>
<path d="M86.1816 45.4954C86.1816 45.4954 84.8301 60.436 90.4284 60.2109C96.4338 59.9662 94.8185 45.4954 94.8185 45.4954C94.0336 43.163 93.721 41.7798 94.0727 39.3333H86.7809C87.1326 41.7798 86.9632 43.163 86.1816 45.4954Z" fill="#FDBCA0"/>
<path d="M86.9275 42.2233C87.7547 42.4713 88.5884 42.6996 89.4514 42.7714C90.2689 42.8399 91.1091 42.7877 91.9233 42.6996C92.6007 42.6246 93.3237 42.5039 94.0011 42.2788C93.8936 41.3915 93.9099 40.4781 94.076 39.3298H86.7842C86.9438 40.4553 86.9926 41.3556 86.9275 42.2233Z" fill="#F0A38B"/>
<path d="M90.4283 41.3721C92.5094 41.3721 94.5122 40.55 95.9778 39.069C97.7234 37.3075 99.0912 35.3437 99.4918 33.0373C100.006 30.0753 99.0065 27.1166 96.8245 24.7352H84.0288C81.8468 27.1133 80.847 30.0753 81.3616 33.0373C81.7621 35.3437 83.1332 37.3075 84.8756 39.069C86.3444 40.5468 88.3473 41.3721 90.4283 41.3721Z" fill="#FDBCA0"/>
<path d="M91.0635 47.2375C90.7997 47.5278 90.5522 47.8443 90.3177 48.1607C90.0344 47.965 89.8097 47.7268 89.5622 47.4822C89.5394 47.4593 89.4938 47.4822 89.5035 47.5148C89.6436 47.8997 89.9367 48.2129 90.2363 48.4804C90.3014 48.5358 90.3926 48.5424 90.4578 48.4804C90.7737 48.1705 91.0831 47.8084 91.3273 47.4365C91.4315 47.2832 91.1905 47.0972 91.0635 47.2375Z" fill="#DF8370"/>
<path d="M98.1047 46.6666C96.1604 46.833 94.2422 47.1494 92.35 47.6322C92.236 47.6616 92.2849 47.8345 92.3989 47.8084C94.2813 47.3908 96.1832 47.107 98.1047 46.9765C98.3066 46.9635 98.3033 46.6503 98.1047 46.6666Z" fill="#DF8370"/>
<path d="M82.7491 46.6666C84.6934 46.833 86.6116 47.1494 88.5037 47.6322C88.6177 47.6616 88.5689 47.8345 88.4549 47.8084C86.5725 47.3908 84.6706 47.107 82.7491 46.9765C82.5504 46.9635 82.5504 46.6503 82.7491 46.6666Z" fill="#DF8370"/>
<path d="M83.0844 19.8094C80.3651 21.3687 78.4501 23.8251 78.4175 27.1264C78.385 30.8485 82.9118 36.7758 82.8499 36.629C81.3453 33.008 80.9513 28.0235 84.7063 25.528C85.0808 25.28 85.5498 25.1365 85.8852 24.8462C85.8754 22.8791 84.791 20.974 83.0844 19.8094Z" fill="#3F4553"/>
<path d="M97.505 19.8094C100.224 21.3687 102.139 23.8251 102.172 27.1264C102.204 30.8485 99.9801 34.1595 97.7655 36.9715C98.3289 35.7449 99.6349 28.0202 95.8799 25.528C95.5053 25.28 95.0364 25.1365 94.7009 24.8462C94.714 22.8791 95.8017 20.974 97.505 19.8094Z" fill="#424495"/>
<path d="M136.55 17.8392C134.473 16.8051 132.046 16.5833 129.786 17.0433C128.692 17.2651 127.656 17.6533 126.669 18.1785C126.015 18.5243 125.351 19.0201 124.588 19.0788C123.664 19.1473 122.853 18.5438 122.165 18.0089C120.029 16.3452 117.857 14.887 115.108 14.4858C113.779 14.29 112.294 14.4336 111.265 15.2491C110.21 13.8529 108.637 12.858 106.904 12.4926C104.612 12.0098 102.433 12.6981 100.632 14.0813C99.6158 13.5822 97.8377 12.8645 97.6129 12.8025C90.8389 10.9366 81.5898 15.6699 82.7883 23.6523C83.8174 30.5126 92.4901 33.6834 98.4988 32.2741C99.7949 34.7305 102.902 35.3014 105.296 34.0226C105.478 34.1629 105.66 34.3032 105.846 34.4402C109.666 37.2456 114.112 39.0692 118.912 38.2406C120.736 37.9241 122.442 37.2652 124.012 36.3192C125.504 37.4414 127.467 37.7969 129.275 36.9292C130.62 36.2866 131.522 35.0991 131.844 33.7551C131.867 33.7551 131.89 33.7551 131.913 33.7551C135.906 33.7062 140.139 31.7196 141.159 27.5277C142.087 23.7176 140.022 19.5649 136.55 17.8392Z" fill="#4E5567"/>
<path d="M118.397 16.5964C119.71 17.6697 120.488 19.1409 119.671 20.7622C119.006 22.0833 117.811 23.0457 116.941 24.2168C115.922 25.5869 115.746 27.3451 117.417 28.3466C119.062 29.3318 121.123 28.1052 122.494 27.1755C124.188 26.024 126.005 22.6933 127.464 21.2645C133.945 14.9197 140.38 21.7017 140.406 21.7245C139.566 20.0739 138.224 18.6744 136.55 17.8393C134.472 16.8052 132.046 16.5834 129.786 17.0433C128.692 17.2652 127.656 17.6534 126.669 18.1786C126.015 18.5243 125.35 19.0202 124.588 19.0789C123.663 19.1474 122.852 18.5439 122.165 18.0089C120.029 16.3452 117.857 14.8871 115.108 14.4858C113.808 14.2966 112.359 14.4336 111.333 15.2035C113.571 14.3325 116.603 15.1252 118.397 16.5964Z" fill="#3F4553"/>
<path d="M135.658 32.6787C134.072 32.8647 132.587 32.7766 131.128 32.1274C130.499 33.7618 129.213 35.4124 127.395 35.6701C126.174 35.843 124.731 35.4613 124.481 34.1663C115.896 41.1668 106.272 33.3572 105.344 31.8926C102.667 33.6411 99.2931 31.5076 98.2933 28.7772C96.2546 29.5699 93.9032 29.3253 91.9231 28.4738C88.2333 26.8917 86.1881 22.5302 87.4777 18.6809C88.5524 15.4808 91.4151 13.2919 94.5871 12.4013C88.4026 12.3655 81.7622 16.815 82.788 23.6524C83.8172 30.5127 92.4866 33.6835 98.4985 32.2742C99.7947 34.7306 102.902 35.3015 105.295 34.0227C105.478 34.163 105.66 34.3033 105.846 34.4403C109.666 37.2457 114.111 39.0692 118.912 38.2407C120.735 37.9242 122.442 37.2653 124.012 36.3193C125.503 37.4414 127.467 37.797 129.275 36.9293C130.62 36.2866 131.522 35.0992 131.844 33.7552C131.867 33.7552 131.89 33.7552 131.913 33.7552C133.818 33.7324 135.775 33.2659 137.416 32.3329C136.84 32.5058 136.241 32.6102 135.658 32.6787Z" fill="#3F4553"/>
<path d="M88.1421 34.786C87.0022 34.9752 85.1491 35.0372 84.0972 33.9085C83.8888 33.6834 83.6054 33.9379 83.866 34.163C83.9083 34.1989 83.9506 34.2315 83.993 34.2641C83.8692 34.3 83.739 34.3163 83.6022 34.3065C83.5989 34.3065 83.5989 34.3098 83.6022 34.313C83.7683 34.3685 83.9376 34.3848 84.1037 34.3522C84.107 34.3554 84.1102 34.3587 84.1135 34.3587C83.9702 34.4533 83.7976 34.4925 83.6282 34.5479C83.625 34.5479 83.625 34.5512 83.6282 34.5544C83.8367 34.574 84.0549 34.5479 84.2275 34.437C84.247 34.45 84.2665 34.4566 84.2861 34.4696C84.1558 34.5707 84.0093 34.6458 83.8432 34.6849C83.8269 34.6882 83.8301 34.7143 83.8464 34.7143C84.0581 34.7241 84.26 34.6719 84.4294 34.5544C84.4652 34.574 84.5043 34.5903 84.5401 34.6099C84.4196 34.698 84.2959 34.7763 84.1558 34.8415C84.1428 34.848 84.1493 34.8709 84.1623 34.8709C84.348 34.8774 84.5108 34.7828 84.6574 34.6719C84.7029 34.6947 84.7485 34.711 84.7974 34.7306C84.7355 34.7926 84.6639 34.8513 84.5955 34.91C84.5857 34.9198 84.5955 34.9328 84.6085 34.9328C84.7257 34.9035 84.8332 34.8545 84.9244 34.786C85.9698 35.2166 87.1943 35.2297 88.243 34.8513C88.3537 34.8056 88.2691 34.7665 88.1421 34.786Z" fill="#3F4553"/>
<path d="M92.822 34.786C93.9618 34.9752 95.8149 35.0372 96.8668 33.9085C97.0752 33.6834 97.3586 33.9379 97.098 34.163C97.0557 34.1989 97.0134 34.2315 96.971 34.2641C97.098 34.3 97.225 34.3163 97.3618 34.3065C97.3651 34.3065 97.3651 34.3098 97.3618 34.313C97.1957 34.3685 97.0264 34.3848 96.8603 34.3522C96.857 34.3554 96.8538 34.3587 96.8505 34.3587C96.9938 34.4533 97.1664 34.4925 97.3358 34.5479C97.339 34.5479 97.339 34.5512 97.3358 34.5544C97.1273 34.574 96.9091 34.5479 96.7365 34.437C96.717 34.45 96.6975 34.4566 96.6779 34.4696C96.8082 34.5707 96.9547 34.6458 97.1208 34.6849C97.1371 34.6882 97.1339 34.7143 97.1176 34.7143C96.9059 34.7241 96.704 34.6719 96.5346 34.5544C96.4988 34.574 96.4597 34.5903 96.4239 34.6099C96.5444 34.698 96.6681 34.7763 96.8082 34.8415C96.8212 34.848 96.8147 34.8709 96.8017 34.8709C96.616 34.8774 96.4532 34.7828 96.3067 34.6719C96.2611 34.6947 96.2155 34.711 96.1699 34.7306C96.2317 34.7926 96.3034 34.8513 96.3718 34.91C96.3816 34.9198 96.3718 34.9328 96.3588 34.9328C96.2415 34.9035 96.134 34.8545 96.0429 34.786C94.9974 35.2166 93.7729 35.2297 92.721 34.8513C92.6135 34.8056 92.6949 34.7665 92.822 34.786Z" fill="#3F4553"/>
<path d="M91.2001 37.1641C90.666 37.4414 90.1352 37.5523 89.5848 37.2196C89.5457 37.1968 89.5001 37.2522 89.5359 37.2848C90.0082 37.7057 90.8484 37.8133 91.3206 37.3207C91.3988 37.2359 91.3011 37.112 91.2001 37.1641Z" fill="#3F4553"/>
<path d="M92.4213 39.0887C91.7537 39.2877 91.0958 39.3627 90.4445 39.3334C89.7931 39.3627 89.1353 39.2877 88.4677 39.0887C88.4514 39.0822 88.4383 39.1115 88.4546 39.1181C89.0962 39.3921 89.7703 39.5389 90.4445 39.5552C91.1186 39.5389 91.7928 39.3921 92.4343 39.1181C92.4506 39.1115 92.4376 39.0854 92.4213 39.0887Z" fill="#3F4553"/>
<path d="M87.383 36.3845C87.3277 36.3584 87.2691 36.3356 87.2104 36.3193C86.4647 36.1268 85.5821 35.7615 84.8037 35.8952C84.2533 35.9898 84.1263 36.6586 84.439 37.0533C84.7744 37.4774 85.4323 37.5981 85.9403 37.6372C86.4516 37.6763 87.2528 37.7318 87.6338 37.3306C87.979 36.9685 87.7445 36.5607 87.383 36.3845Z" fill="#FBAD8B"/>
<path d="M93.4794 36.3845C93.5348 36.3584 93.5934 36.3356 93.6521 36.3193C94.3978 36.1268 95.2804 35.7615 96.0588 35.8952C96.6092 35.9898 96.7362 36.6586 96.4235 37.0533C96.0881 37.4774 95.4302 37.5981 94.9222 37.6372C94.4109 37.6763 93.6097 37.7318 93.2287 37.3306C92.8835 36.9685 93.1212 36.5607 93.4794 36.3845Z" fill="#FBAD8B"/>
<path d="M80.5932 31.5009C79.8213 31.3868 78.9941 31.7064 79.1341 32.6231C79.2449 33.3538 80.0298 34.0813 81.2282 33.8627C80.9026 33.1059 80.6778 32.3099 80.5932 31.5009Z" fill="#F9CDB9"/>
<path d="M79.8473 32.2187C80.059 32.0425 80.3879 31.9642 80.6712 32.0099C80.6549 31.9218 80.6452 31.8305 80.6321 31.7424C80.2446 31.7065 79.7886 31.8664 79.5672 32.1469C79.222 32.5873 79.4825 33.0766 79.8636 33.3767C79.9189 33.4224 79.9971 33.3507 79.945 33.2952C79.6681 33.0016 79.476 32.5286 79.8473 32.2187Z" fill="#F8C4AB"/>
<path d="M80.8244 32.7079C80.6225 32.5252 80.3587 32.4241 80.0558 32.4372C79.9874 32.4404 79.9614 32.5546 80.0395 32.5644C80.3163 32.6035 80.5541 32.7471 80.7006 32.9689C80.5313 33.0602 80.4075 33.2592 80.5801 33.4223C80.7169 33.5528 80.9188 33.5822 81.111 33.5626C81.0035 33.2821 80.9025 32.9982 80.8244 32.7079Z" fill="#F8C4AB"/>
<path d="M80.525 33.6506C80.5217 33.6474 80.5152 33.6506 80.5185 33.6539C80.6422 33.9605 80.8181 34.6782 80.3947 34.825C80.1114 34.9229 80.0853 34.5575 80.1276 34.365C80.1667 34.1889 80.2644 34.0062 80.3458 33.8496C80.3458 33.8496 80.1504 33.8072 79.9713 33.7159C79.7271 33.9247 79.6391 34.2346 79.6815 34.5608C79.7206 34.8576 79.9094 35.1838 80.2449 35.1936C80.5445 35.2034 80.7595 34.9457 80.805 34.6717C80.8572 34.3161 80.7139 33.941 80.525 33.6506Z" fill="#FDCA27"/>
<path d="M142.845 89.8311C141.015 87.6487 137.055 87.4726 134.456 87.2018C126.643 86.3863 118.632 86.5885 110.815 87.2214C106.924 87.5378 103.051 88.0108 99.1954 88.6339C96.4044 89.0873 93.2877 89.4037 90.5 90.2975C87.7122 89.4037 84.5955 89.084 81.8045 88.6339C77.9518 88.0075 74.0763 87.5345 70.1845 87.2214C62.3683 86.5885 54.3535 86.3863 46.5439 87.2018C43.9483 87.4726 39.9848 87.6487 38.1546 89.8311C36.3862 91.9384 38.5682 94.4926 40.2486 95.8334C42.5707 97.6863 45.518 98.5997 48.3318 99.3989C51.8654 100.397 55.4804 101.076 59.1149 101.591C75.3822 103.888 84.2145 102.195 92.7178 102.09C93.0435 102.504 93.3496 102.935 93.6297 103.382C102.25 103.437 113.323 102.749 121.882 101.591C125.52 101.098 129.131 100.4 132.665 99.3989C135.482 98.6029 138.426 97.6895 140.748 95.8334C142.428 94.4926 144.611 91.9384 142.845 89.8311Z" fill="#93BFA8"/>
<path d="M131.303 91.3416C131.574 90.9958 133.212 90.5684 133.857 90.2814C130.818 90.526 127.767 90.8914 124.735 91.2046C118.967 91.7983 113.193 93.3282 107.728 95.2431C105.113 96.1597 102.504 97.122 99.9053 98.0876C97.8471 98.851 95.8116 99.6861 93.8804 100.727C94.1767 100.635 94.4731 100.544 94.7695 100.456C97.8503 99.5491 110.405 92.7475 133.652 91.9092C133.114 91.7917 131.199 91.4753 131.303 91.3416Z" fill="#66A986"/>
<path d="M50.0384 90.8618C49.7681 90.516 48.1299 90.0887 47.4851 89.8016C50.5236 90.0463 53.5752 90.4116 56.6072 90.7248C62.3749 91.3185 68.149 92.8485 73.6138 94.7633C76.229 95.68 78.8376 96.6423 81.4365 97.6079C83.4948 98.3712 85.5302 99.2063 87.4614 100.247C87.1651 100.156 86.8687 100.064 86.5724 99.9762C83.4915 99.0693 70.9368 92.2678 47.6903 91.4294C48.2244 91.312 50.1393 90.9956 50.0384 90.8618Z" fill="#66A986"/>
<path d="M98.3585 98.0746C97.0493 97.5494 95.6652 97.5364 94.3918 98.0811C92.2163 99.0174 89.5491 97.582 87.2889 97.8397C85.2078 98.0779 83.941 100.449 85.5335 101.963C85.9178 102.328 89.7803 103.731 95.8997 100.874C96.5706 100.56 97.2252 100.381 97.984 100.391C98.1598 100.394 98.3259 100.56 98.5116 100.541C98.9089 100.492 99.2346 100.42 99.456 100.035C99.9771 99.1283 99.1075 98.3747 98.3585 98.0746Z" fill="#FDB597"/>
<path d="M83.0843 102.886C84.1883 102.009 85.5138 101.598 86.8849 101.758C89.2363 102.032 91.3824 99.8916 93.6231 99.4904C95.6846 99.1218 97.5767 101.03 96.4825 102.942C96.2187 103.402 92.9164 105.852 86.2368 104.866C85.504 104.759 84.8266 104.775 84.1037 105C83.9376 105.052 83.8236 105.261 83.6379 105.294C83.2439 105.362 82.9117 105.385 82.5893 105.082C81.8337 104.361 82.4525 103.389 83.0843 102.886Z" fill="#FDBCA0"/>
<path d="M127.467 49.2958C126.714 49.684 125.923 50.1211 125.184 50.5289C125.575 50.2092 127.743 47.9975 128.587 47.4527C128.678 47.394 128.463 46.4969 126.245 48.2715C125.584 48.8 124.803 49.335 124.181 49.9124C124.972 48.4085 125.633 46.8851 126.669 45.5085C126.711 45.453 126.698 45.3911 126.662 45.3487C126.451 45.1823 125.92 45.3715 125.682 45.6259C125.259 46.0761 123.65 47.8181 122.868 49.6547C122.881 49.0251 122.826 48.004 122.38 47.7952C122.1 47.6615 121.634 47.8377 121.334 47.8605C120.745 47.9029 119.973 47.9877 119.423 47.7528C119.341 47.7202 119.136 47.6941 119.211 47.9649C119.462 48.8522 120.699 48.9631 121.468 49.1588C121.728 49.7917 120.996 50.829 120.533 51.1422C119.781 51.6543 118.683 51.152 118.872 50.1472C119.038 49.2632 119.566 48.862 119.1 47.9942C118.947 47.7072 118.289 47.4462 118.436 47.9094C118.814 49.0936 117.729 50.0885 117.589 51.2335C117.478 52.1404 117.957 52.9461 118.439 53.6736C118.41 53.7486 118.387 53.8237 118.361 53.8954C117.706 55.0306 117.198 56.2278 116.83 57.4805C117.67 57.7578 120.139 57.5816 120.129 57.5621C120.139 57.5816 120.426 55.8266 121.083 55.0861C121.803 54.2738 122.709 53.6475 123.575 53.0081C125.395 51.6609 127.245 50.3528 129.121 49.0805C129.229 49.012 129.141 48.4314 127.467 49.2958Z" fill="#FDBCA0"/>
<path d="M53.7314 49.2958C54.4837 49.684 55.275 50.1211 56.0143 50.5289C55.6235 50.2092 53.4545 47.9975 52.611 47.4527C52.5199 47.394 52.7348 46.4969 54.9526 48.2715C55.6137 48.8 56.3954 49.335 57.0174 49.9124C56.226 48.4085 55.5649 46.8851 54.5293 45.5085C54.4869 45.453 54.4999 45.3911 54.5358 45.3487C54.7475 45.1823 55.2783 45.3715 55.516 45.6259C55.9394 46.0761 57.5482 47.8181 58.3299 49.6547C58.3168 49.0251 58.3722 48.004 58.8184 47.7952C59.0984 47.6615 59.5642 47.8377 59.8638 47.8605C60.4532 47.9029 61.2251 47.9877 61.7755 47.7528C61.8569 47.7202 62.0621 47.6941 61.9872 47.9649C61.7364 48.8522 60.4988 48.9631 59.7302 49.1588C59.4697 49.7917 60.2025 50.829 60.6649 51.1422C61.4172 51.6543 62.5148 51.152 62.3259 50.1472C62.1598 49.2632 61.6322 48.862 62.0979 47.9942C62.251 47.7072 62.9088 47.4462 62.7623 47.9094C62.3845 49.0936 63.469 50.0885 63.609 51.2335C63.7197 52.1404 63.241 52.9461 62.759 53.6736C62.7883 53.7486 62.8111 53.8237 62.8372 53.8954C63.4918 55.0306 63.9998 56.2278 64.3678 57.4805C63.5276 57.7578 61.059 57.5816 61.0688 57.5621C61.059 57.5816 60.7724 55.8266 60.1145 55.0861C59.3948 54.2738 58.4894 53.6475 57.6231 53.0081C55.8026 51.6609 53.9528 50.3528 52.0769 49.0805C51.9695 49.012 52.0574 48.4314 53.7314 49.2958Z" fill="#FDBCA0"/>
<path d="M115.951 56.3258C114.73 59.4802 110.588 71.126 108.858 76.0649C107.829 73.4226 105.048 61.9497 102.706 48.6304C101.977 44.4908 97.3164 45.0812 94.8217 45.4955C94.6426 48.2748 91.9493 55.98 90.5033 55.9963C89.0573 55.98 86.1914 48.8196 86.1849 45.4955C83.6935 45.0812 79.0299 44.4908 78.3004 48.6304C75.9555 61.9497 73.1775 73.4258 72.1484 76.0649C70.4158 71.126 66.2765 59.4802 65.0552 56.3258C63.4888 57.0663 61.7562 57.474 60.0269 57.5751C61.3654 61.1407 65.7848 86.3895 72.2982 86.3895C75.1218 86.3895 76.9097 83.3851 79.7887 72.2547C79.932 74.1141 79.9808 77.6862 79.9092 81.4409C79.8571 84.1452 77.991 87.2703 75.4931 86.6668C74.9883 86.5461 74.3304 86.9278 74.9557 87.6063C75.125 87.7922 75.3432 87.9292 75.568 88.0336C79.5575 89.9257 79.7138 92.7539 82.0684 94.4013C83.4916 95.3963 85.2437 95.7094 86.9144 96.0487C88.7251 96.414 90.5912 96.6881 92.4346 96.4108C95.4991 95.9508 97.8798 93.8989 100.417 92.294C101.833 91.3969 103.273 90.6792 104.937 90.4346C109.22 89.805 108.936 86.7777 108.041 86.8397C105.041 87.0452 101.091 83.2155 101.068 79.0008C101.052 76.1954 101.107 73.7064 101.218 72.2547C104.097 83.3851 105.885 86.3895 108.708 86.3895C115.222 86.3895 119.641 61.1407 120.98 57.5751C119.25 57.474 117.518 57.063 115.951 56.3258Z" fill="#F2EDE4"/>
<path d="M98.7202 67.3517C98.6877 67.3745 98.6616 67.3973 98.6355 67.4202C98.1047 67.9388 97.6911 68.5619 97.17 69.0904C96.6489 69.6156 95.9748 70.056 95.2355 70.0527C93.4606 70.0429 92.5715 67.9095 91.5033 66.8232C89.8619 65.1595 88.2694 68.9501 87.0481 69.6939C85.7943 70.4572 84.9442 69.9972 84.0193 69.0936C83.4527 68.5391 82.9707 67.916 82.4463 67.3223C82.3096 67.1657 81.9969 67.3321 82.0816 67.5343C82.6938 69.0088 84.078 71.4554 85.905 71.4946C87.0253 71.5174 87.9437 70.8748 88.6797 70.0853C89.0412 69.6971 90.0378 67.6126 90.6859 67.8867C90.8064 67.9388 90.891 68.0465 90.9725 68.1509C91.2949 68.575 91.5945 69.0219 91.9397 69.4264C92.1188 69.6352 92.6366 69.9809 92.6366 70.268C93.3694 71.015 94.3757 71.6022 95.4146 71.475C96.4763 71.3445 97.3166 70.5127 97.9321 69.6352C98.3685 69.0121 98.7365 68.3401 99.0264 67.6355C99.0687 67.5343 99.1045 67.4071 99.0296 67.3256C98.9482 67.2407 98.8244 67.2799 98.7202 67.3517Z" fill="#D9C9AC"/>
<g clip-path="url(#clip2_10_717)">
<path d="M158.49 84.2946L169.635 80.5589L164.048 64.1592L152.903 67.8949C152.466 68.0406 152.229 68.5101 152.38 68.9431L157.433 83.7725C157.58 84.2056 158.053 84.4403 158.49 84.2946Z" fill="#3F4553"/>
<path d="M158.498 83.9708L169.921 80.142L164.538 64.3453L153.115 68.1741C152.833 68.2672 152.682 68.5707 152.776 68.8541L157.812 83.6349C157.91 83.9141 158.216 84.0639 158.498 83.9708Z" fill="#DDDDE3"/>
<path d="M158.739 83.89L170.162 80.0612L164.779 64.2645L153.356 68.0933C153.074 68.1864 152.923 68.4899 153.017 68.7732L158.053 83.5541C158.151 83.8333 158.457 83.9871 158.739 83.89Z" fill="#E2E5FF"/>
<path d="M159.355 84.0032L170.5 80.2675L164.913 63.8718L153.768 67.6075C153.331 67.7532 153.094 68.2227 153.245 68.6558L158.298 83.4852C158.445 83.9182 158.918 84.1489 159.355 84.0032Z" fill="#4E5567"/>
<path d="M164.289 64.0813L164.049 64.1616L169.636 80.5615L169.876 80.4812L164.289 64.0813Z" fill="#3F4553"/>
<path d="M165.881 76.892L166.13 76.3659L166.652 76.633L162.571 64.657C162.497 64.4465 162.314 64.4627 162.102 64.5356C161.889 64.6084 161.73 64.7055 161.804 64.916L165.881 76.892Z" fill="#93BFA8"/>
<path d="M140.838 68.4295L148.339 59.6091L146.823 58.341L139.322 67.1614L140.838 68.4295Z" fill="#3F4553"/>
<path d="M139.32 67.1584L140.835 68.4253L138.647 69.6192C138.574 69.6597 138.476 69.5747 138.5 69.4978L139.32 67.1584Z" fill="#F2EDE4"/>
<path d="M138.651 69.6231L139.243 69.2993L138.729 68.8662L138.508 69.4976C138.48 69.5745 138.578 69.6595 138.651 69.6231Z" fill="#3F4553"/>
<path d="M140.336 68.0094L147.837 59.1891L147.322 58.7586L139.821 67.5789L140.336 68.0094Z" fill="#4E5567"/>
</g>
<g clip-path="url(#clip3_10_717)">
<path d="M58.0028 -16.6606C48.3335 -16.6606 40.5 -8.82713 40.5 0.842112C40.5 10.5058 48.3335 18.3449 58.0028 18.3449C67.6665 18.3449 75.5055 10.5114 75.5055 0.842112C75.5 -8.82713 67.6665 -16.6606 58.0028 -16.6606ZM58.0028 15.3846C49.9708 15.3846 43.4603 8.87409 43.4603 0.842112C43.4603 -7.18986 49.9708 -13.7003 58.0028 -13.7003C66.0347 -13.7003 72.5452 -7.18986 72.5452 0.842112C72.5452 8.87409 66.0347 15.3846 58.0028 15.3846Z" fill="#808AFF"/>
<path d="M71.4209 6.44911C74.5195 -0.960817 71.0244 -9.47965 63.6145 -12.5782C56.2046 -15.6768 47.6857 -12.1818 44.5872 -4.77184C41.4886 2.63809 44.9836 11.1569 52.3936 14.2555C59.8035 17.3541 68.3223 13.859 71.4209 6.44911Z" fill="#AEB4FC"/>
<path d="M71.2383 0.869005C71.2383 -0.150842 69.6506 -0.156355 69.6506 0.869005C69.6506 1.89437 71.2383 1.89437 71.2383 0.869005Z" fill="#808AFF"/>
<path d="M57.969 14.0776C58.9888 14.0776 58.9943 12.49 57.969 12.49C56.9491 12.49 56.9436 14.0776 57.969 14.0776Z" fill="#808AFF"/>
<path d="M44.7618 0.809189C44.7618 1.82903 46.3495 1.83455 46.3495 0.809189C46.3495 -0.210656 44.7618 -0.216169 44.7618 0.809189Z" fill="#808AFF"/>
<path d="M64.2544 5.09238C64.1607 5.09238 64.0669 5.07033 63.9843 5.0152L57.7274 1.29414C57.5675 1.20043 57.4683 1.02402 57.4683 0.836588V-9.16341C57.4683 -9.45558 57.7053 -9.69263 57.9975 -9.69263C58.2897 -9.69263 58.5267 -9.45558 58.5267 -9.16341V0.538905L64.5245 4.10561C64.7781 4.25445 64.8608 4.5797 64.7064 4.83328C64.6127 4.99866 64.4363 5.09238 64.2544 5.09238Z" fill="#808AFF"/>
</g>
<path d="M23.1207 36.7459L22.7715 34.7649L20.7463 35.11C20.425 34.1851 19.9013 33.3706 19.2239 32.7079L20.4111 31.0444L18.749 29.8917L17.5688 31.5483C16.7168 31.1342 15.7671 30.9064 14.7754 30.9133L14.4193 28.9047L12.415 29.2498L12.7642 31.2515C11.8284 31.569 11.0043 32.0867 10.3339 32.7563L8.65091 31.5828L7.48467 33.2256L9.1607 34.3922C8.74169 35.2343 8.51124 36.173 8.51822 37.1532L6.5 37.4983L6.84917 39.4793L8.87438 39.1342C9.19562 40.0591 9.71938 40.8736 10.3968 41.5363L9.20959 43.1998L10.8717 44.3525L12.0519 42.6959C12.9038 43.11 13.8536 43.3378 14.8452 43.3309L15.2014 45.3395L17.2057 44.9944L16.8565 42.9927C17.7923 42.6752 18.6163 42.1575 19.2867 41.4879L20.9697 42.6614L22.136 41.0186L20.46 39.852C20.879 39.0099 21.1094 38.0712 21.1024 37.091L23.1207 36.7459ZM15.1316 38.9616C14.105 39.1411 13.1273 38.4577 12.9457 37.4431C12.7642 36.4284 13.4555 35.462 14.4821 35.2826C15.5087 35.1031 16.4864 35.7865 16.6679 36.8011C16.8495 37.8158 16.1651 38.7822 15.1316 38.9616Z" fill="#9BA3FF"/>
<path d="M42.2278 32.7492V30.2574H39.6788C39.4903 29.0564 39.0224 27.952 38.338 26.9994L40.1467 25.2117L38.3659 23.4515L36.5642 25.2324C35.6074 24.549 34.4971 24.0727 33.282 23.8726V21.3394H30.7609V23.8588C29.5458 24.0451 28.4215 24.5076 27.4647 25.1841L25.656 23.3963L23.8752 25.1564L25.677 26.9373C24.9856 27.8829 24.5037 28.9804 24.3012 30.1815H21.7383V32.6733H24.2872C24.4758 33.8743 24.9437 34.9787 25.6281 35.9313L23.8194 37.719L25.6001 39.4792L27.4019 37.6983C28.3586 38.3817 29.469 38.8579 30.6841 39.0581V41.5913H33.2051V39.0719C34.4203 38.8855 35.5376 38.4231 36.5013 37.7466L38.31 39.5344L40.0908 37.7742L38.2891 35.9934C38.9805 35.0477 39.4623 33.9502 39.6648 32.7492H42.2278ZM31.983 33.7846C30.6911 33.7846 29.6366 32.7492 29.6366 31.4653C29.6366 30.1884 30.6841 29.1461 31.983 29.1461C33.275 29.1461 34.3295 30.1815 34.3295 31.4653C34.3225 32.7423 33.275 33.7846 31.983 33.7846Z" fill="#AEB4FC"/>
<g opacity="0.3">
<path d="M160.495 14.2365L141.766 10.0271C141.582 9.98703 141.466 9.80358 141.509 9.62013L143.867 -0.880106C143.907 -1.06356 144.091 -1.1803 144.274 -1.13694L163.003 3.07583C163.187 3.11585 163.303 3.29931 163.26 3.48276L160.898 13.983C160.858 14.1631 160.678 14.2799 160.495 14.2365Z" fill="#ECECEC"/>
<path d="M141.819 9.78024C141.769 9.77024 141.739 9.7202 141.753 9.67351L144.114 -0.826726C144.124 -0.876759 144.174 -0.906779 144.221 -0.893437L162.95 3.31933C163 3.32934 163.03 3.37937 163.017 3.42607L160.655 13.9263C160.645 13.9763 160.595 14.0064 160.548 13.993L141.819 9.78024Z" fill="#F5F4F5"/>
<path d="M160.367 2.47991L146.914 -0.54541L146.859 -0.30135L160.312 2.72397L160.367 2.47991Z" fill="#706F6E"/>
<path d="M145.605 0.964361L144.985 0.824269C144.908 0.807592 144.858 0.730874 144.875 0.650822L144.972 0.213868C144.988 0.137151 145.065 0.0871183 145.145 0.103796L145.765 0.243887C145.842 0.260565 145.892 0.337282 145.875 0.417335L145.779 0.854289C145.759 0.931006 145.682 0.981038 145.605 0.964361Z" fill="#585857"/>
<path d="M145.011 0.700831C145.001 0.697496 144.994 0.687489 144.998 0.677483L145.094 0.240528C145.098 0.230522 145.108 0.22385 145.118 0.227186L145.738 0.367279C145.748 0.370614 145.755 0.380621 145.752 0.390627L145.655 0.82758C145.651 0.837587 145.641 0.844258 145.631 0.840923L145.011 0.700831Z" fill="#5E5E5D"/>
<path d="M146.742 1.2179L146.122 1.07781C146.045 1.06113 145.995 0.984414 146.012 0.904362L146.108 0.467409C146.125 0.390692 146.202 0.340658 146.282 0.357336L146.902 0.497429C146.979 0.514106 147.029 0.590824 147.012 0.670876L146.916 1.10783C146.896 1.18788 146.819 1.23458 146.742 1.2179Z" fill="#585857"/>
<path d="M146.149 0.957545C146.139 0.95421 146.132 0.944202 146.135 0.934195L146.232 0.497242C146.235 0.487236 146.245 0.480564 146.255 0.4839L146.876 0.623993C146.886 0.627328 146.892 0.637335 146.889 0.647341L146.792 1.08429C146.789 1.0943 146.779 1.10097 146.769 1.09764L146.149 0.957545Z" fill="#5E5E5D"/>
<path d="M147.88 1.47462L147.259 1.33452C147.183 1.31785 147.133 1.24113 147.149 1.16108L147.246 0.724123C147.263 0.647406 147.339 0.597372 147.42 0.61405L148.04 0.754143C148.117 0.77082 148.167 0.847537 148.15 0.92759L148.053 1.36454C148.033 1.44126 147.957 1.49129 147.88 1.47462Z" fill="#585857"/>
<path d="M147.286 1.21121C147.276 1.20787 147.27 1.19787 147.273 1.18786L147.37 0.750904C147.373 0.740898 147.383 0.734226 147.393 0.737562L148.013 0.877655C148.023 0.88099 148.03 0.890997 148.027 0.901003L147.93 1.33796C147.927 1.34796 147.917 1.35463 147.907 1.3513L147.286 1.21121Z" fill="#5E5E5D"/>
<path d="M149.017 1.72803L148.397 1.58794C148.32 1.57126 148.27 1.49455 148.287 1.41449L148.384 0.977539C148.4 0.900822 148.477 0.85079 148.557 0.867468L149.177 1.00756C149.254 1.02424 149.304 1.10095 149.288 1.18101L149.191 1.61796C149.171 1.69801 149.094 1.74805 149.017 1.72803Z" fill="#585857"/>
<path d="M148.424 1.46792C148.414 1.46459 148.407 1.45458 148.41 1.44457L148.507 1.00762C148.51 0.997612 148.52 0.99094 148.53 0.994276L149.151 1.13437C149.161 1.1377 149.167 1.14771 149.164 1.15772L149.067 1.59467C149.064 1.60468 149.054 1.61135 149.044 1.60801L148.424 1.46792Z" fill="#5E5E5D"/>
<path d="M150.151 1.98499L149.531 1.8449C149.454 1.82822 149.404 1.7515 149.421 1.67145L149.518 1.2345C149.534 1.15778 149.611 1.10775 149.691 1.12443L150.311 1.26452C150.388 1.28119 150.438 1.35791 150.421 1.43796L150.325 1.87492C150.308 1.95497 150.231 2.00167 150.151 1.98499Z" fill="#585857"/>
<path d="M149.561 1.72488C149.551 1.72154 149.545 1.71154 149.548 1.70153L149.645 1.26458C149.648 1.25457 149.658 1.2479 149.668 1.25123L150.288 1.39133C150.298 1.39466 150.305 1.40467 150.302 1.41468L150.205 1.85163C150.202 1.86163 150.192 1.86831 150.182 1.86497L149.561 1.72488Z" fill="#5E5E5D"/>
<path d="M151.289 2.24171L150.668 2.10161C150.592 2.08494 150.542 2.00822 150.558 1.92817L150.655 1.49121C150.672 1.4145 150.749 1.36446 150.829 1.38114L151.449 1.52123C151.526 1.53791 151.576 1.61463 151.559 1.69468L151.462 2.13163C151.446 2.20835 151.369 2.25838 151.289 2.24171Z" fill="#585857"/>
<path d="M150.698 1.9783C150.688 1.97496 150.682 1.96495 150.685 1.95495L150.782 1.51799C150.785 1.50799 150.795 1.50132 150.805 1.50465L151.425 1.64474C151.435 1.64808 151.442 1.65809 151.439 1.66809L151.342 2.10505C151.339 2.11505 151.329 2.12172 151.319 2.11839L150.698 1.9783Z" fill="#5E5E5D"/>
<path d="M152.426 2.49537L151.806 2.35528C151.729 2.3386 151.679 2.26188 151.696 2.18183L151.793 1.74487C151.809 1.66816 151.886 1.61812 151.966 1.6348L152.586 1.77489C152.663 1.79157 152.713 1.86829 152.696 1.94834L152.6 2.38529C152.583 2.46535 152.503 2.51538 152.426 2.49537Z" fill="#585857"/>
<path d="M151.836 2.23513C151.826 2.2318 151.819 2.22179 151.822 2.21178L151.919 1.77483C151.922 1.76482 151.932 1.75815 151.942 1.76149L152.563 1.90158C152.573 1.90491 152.58 1.91492 152.576 1.92493L152.479 2.36188C152.476 2.37189 152.466 2.37856 152.456 2.37522L151.836 2.23513Z" fill="#5E5E5D"/>
<path d="M153.564 2.7522L152.943 2.61211C152.867 2.59543 152.817 2.51872 152.833 2.43866L152.93 2.00171C152.947 1.92499 153.024 1.87496 153.104 1.89164L153.724 2.03173C153.801 2.04841 153.851 2.12512 153.834 2.20518L153.737 2.64213C153.717 2.72218 153.641 2.76888 153.564 2.7522Z" fill="#585857"/>
<path d="M152.973 2.49197C152.963 2.48863 152.957 2.47863 152.96 2.46862L153.057 2.03167C153.06 2.02166 153.07 2.01499 153.08 2.01832L153.7 2.15842C153.71 2.16175 153.717 2.17176 153.714 2.18176L153.617 2.61872C153.614 2.62873 153.604 2.6354 153.594 2.63206L152.973 2.49197Z" fill="#5E5E5D"/>
<path d="M154.701 3.00904L154.081 2.86895C154.004 2.85227 153.954 2.77555 153.971 2.6955L154.068 2.25855C154.084 2.18183 154.161 2.1318 154.241 2.14847L154.861 2.28857C154.938 2.30524 154.988 2.38196 154.972 2.46201L154.875 2.89897C154.855 2.97568 154.778 3.02572 154.701 3.00904Z" fill="#585857"/>
<path d="M154.107 2.74551C154.097 2.74217 154.091 2.73217 154.094 2.72216L154.191 2.28521C154.194 2.2752 154.204 2.26853 154.214 2.27186L154.834 2.41196C154.844 2.41529 154.851 2.4253 154.848 2.4353L154.751 2.87226C154.748 2.88226 154.738 2.88894 154.728 2.8856L154.107 2.74551Z" fill="#5E5E5D"/>
<path d="M155.838 3.26258L155.218 3.12249C155.141 3.10581 155.091 3.02909 155.108 2.94904L155.205 2.51209C155.221 2.43537 155.298 2.38534 155.378 2.40201L155.999 2.54211C156.075 2.55878 156.125 2.6355 156.109 2.71555L156.012 3.15251C155.992 3.23256 155.915 3.28259 155.838 3.26258Z" fill="#585857"/>
<path d="M155.245 3.00247C155.235 2.99913 155.228 2.98912 155.231 2.97912L155.328 2.54216C155.332 2.53216 155.342 2.52549 155.352 2.52882L155.972 2.66891C155.982 2.67225 155.989 2.68226 155.985 2.69226L155.889 3.12922C155.885 3.13922 155.875 3.14589 155.865 3.14256L155.245 3.00247Z" fill="#5E5E5D"/>
<path d="M156.976 3.51929L156.356 3.3792C156.279 3.36252 156.229 3.28581 156.246 3.20575L156.342 2.7688C156.359 2.69208 156.436 2.64205 156.516 2.65873L157.136 2.79882C157.213 2.8155 157.263 2.89221 157.246 2.97227L157.149 3.40922C157.129 3.48927 157.053 3.53597 156.976 3.51929Z" fill="#585857"/>
<path d="M156.382 3.25918C156.372 3.25584 156.365 3.24584 156.369 3.23583L156.465 2.79888C156.469 2.78887 156.479 2.7822 156.489 2.78554L157.109 2.92563C157.119 2.92896 157.126 2.93897 157.122 2.94898L157.026 3.38593C157.022 3.39594 157.012 3.40261 157.002 3.39927L156.382 3.25918Z" fill="#5E5E5D"/>
<path d="M158.113 3.77625L157.493 3.63616C157.416 3.61948 157.366 3.54276 157.383 3.46271L157.479 3.02576C157.496 2.94904 157.573 2.89901 157.653 2.91569L158.273 3.05578C158.35 3.07245 158.4 3.14917 158.383 3.22922L158.287 3.66618C158.267 3.7429 158.19 3.79293 158.113 3.77625Z" fill="#585857"/>
<path d="M157.519 3.5126C157.509 3.50926 157.503 3.49926 157.506 3.48925L157.603 3.0523C157.606 3.04229 157.616 3.03562 157.626 3.03895L158.246 3.17905C158.256 3.18238 158.263 3.19239 158.26 3.20239L158.163 3.63935C158.16 3.64935 158.15 3.65603 158.14 3.65269L157.519 3.5126Z" fill="#5E5E5D"/>
<path d="M159.251 4.02967L158.63 3.88958C158.553 3.8729 158.503 3.79618 158.52 3.71613L158.617 3.27918C158.633 3.20246 158.71 3.15243 158.79 3.1691L159.411 3.3092C159.487 3.32587 159.537 3.40259 159.521 3.48264L159.424 3.9196C159.404 3.99965 159.327 4.04968 159.251 4.02967Z" fill="#585857"/>
<path d="M158.657 3.76956C158.647 3.76622 158.64 3.75621 158.644 3.74621L158.74 3.30925C158.744 3.29925 158.754 3.29258 158.764 3.29591L159.384 3.436C159.394 3.43934 159.401 3.44935 159.397 3.45935L159.301 3.89631C159.297 3.90631 159.287 3.91298 159.277 3.90965L158.657 3.76956Z" fill="#5E5E5D"/>
<path d="M160.388 4.28638L159.768 4.14629C159.691 4.12961 159.641 4.0529 159.658 3.97284L159.754 3.53589C159.771 3.45917 159.848 3.40914 159.928 3.42582L160.548 3.56591C160.625 3.58259 160.675 3.6593 160.658 3.73936L160.562 4.17631C160.542 4.25636 160.465 4.30306 160.388 4.28638Z" fill="#585857"/>
<path d="M159.794 4.02639C159.784 4.02306 159.778 4.01305 159.781 4.00304L159.878 3.56609C159.881 3.55608 159.891 3.54941 159.901 3.55275L160.522 3.69284C160.532 3.69617 160.538 3.70618 160.535 3.71619L160.438 4.15314C160.435 4.16315 160.425 4.16982 160.415 4.16648L159.794 4.02639Z" fill="#5E5E5D"/>
<path d="M161.522 4.54334L160.902 4.40325C160.825 4.38657 160.775 4.30985 160.792 4.2298L160.888 3.79285C160.905 3.71613 160.982 3.6661 161.062 3.68278L161.682 3.82287C161.759 3.83954 161.809 3.91626 161.792 3.99631L161.695 4.43327C161.679 4.50999 161.602 4.56002 161.522 4.54334Z" fill="#585857"/>
<path d="M160.932 4.27981C160.922 4.27648 160.915 4.26647 160.919 4.25646L161.015 3.81951C161.019 3.8095 161.029 3.80283 161.039 3.80617L161.659 3.94626C161.669 3.94959 161.676 3.9596 161.672 3.96961L161.576 4.40656C161.572 4.41657 161.562 4.42324 161.552 4.4199L160.932 4.27981Z" fill="#5E5E5D"/>
<path d="M144.971 0.974485L145.738 1.14793C145.825 1.16795 145.882 1.25467 145.862 1.34473L145.692 2.09856C145.672 2.18528 145.585 2.24198 145.495 2.22197L144.728 2.04852C144.641 2.02851 144.584 1.94179 144.604 1.85173L144.774 1.0979C144.794 1.01118 144.881 0.954472 144.971 0.974485Z" fill="#585857"/>
<path d="M144.758 1.92481C144.738 1.92147 144.725 1.89812 144.728 1.87811L144.898 1.12428C144.901 1.10427 144.925 1.09093 144.945 1.09426L145.712 1.26771C145.732 1.27104 145.745 1.29439 145.742 1.31441L145.572 2.06823C145.568 2.08825 145.545 2.10159 145.525 2.09825L144.758 1.92481Z" fill="#5E5E5D"/>
<path d="M146.282 1.27104L147.049 1.44448C147.136 1.4645 147.192 1.55122 147.172 1.64128L147.002 2.39511C146.982 2.48183 146.896 2.53854 146.805 2.51852L146.038 2.34508C145.952 2.32506 145.895 2.23834 145.915 2.14828L146.085 1.39445C146.105 1.30439 146.192 1.25102 146.282 1.27104Z" fill="#585857"/>
<path d="M146.069 2.22168C146.049 2.21835 146.035 2.195 146.039 2.17498L146.209 1.42116C146.212 1.40114 146.235 1.3878 146.255 1.39114L147.023 1.56458C147.043 1.56792 147.056 1.59127 147.053 1.61128L146.882 2.36511C146.879 2.38512 146.856 2.39846 146.836 2.39513L146.069 2.22168Z" fill="#5E5E5D"/>
<path d="M147.593 1.56482L148.361 1.73826C148.447 1.75828 148.504 1.845 148.484 1.93506L148.314 2.68889C148.294 2.77561 148.207 2.83232 148.117 2.8123L147.35 2.63886C147.263 2.61884 147.206 2.53212 147.226 2.44206L147.397 1.68823C147.417 1.60151 147.507 1.5448 147.593 1.56482Z" fill="#585857"/>
<path d="M147.38 2.51526C147.36 2.51193 147.346 2.48858 147.35 2.46856L147.52 1.71473C147.523 1.69472 147.546 1.68138 147.566 1.68471L148.334 1.85816C148.354 1.8615 148.367 1.88485 148.364 1.90486L148.194 2.65869C148.19 2.6787 148.167 2.69204 148.147 2.68871L147.38 2.51526Z" fill="#5E5E5D"/>
<path d="M148.904 1.8584L149.671 2.03184C149.758 2.05186 149.814 2.13858 149.794 2.22864L149.624 2.98247C149.604 3.06919 149.518 3.1259 149.428 3.10588L148.66 2.93244C148.574 2.91242 148.517 2.8257 148.537 2.73564L148.707 1.98181C148.727 1.89509 148.817 1.83838 148.904 1.8584Z" fill="#585857"/>
<path d="M148.691 2.81213C148.671 2.8088 148.657 2.78545 148.661 2.76544L148.831 2.01161C148.834 1.9916 148.857 1.97825 148.877 1.98159L149.645 2.15504C149.665 2.15837 149.678 2.18172 149.675 2.20173L149.505 2.95556C149.501 2.97558 149.478 2.98892 149.458 2.98558L148.691 2.81213Z" fill="#5E5E5D"/>
<path d="M150.215 2.15519L150.982 2.32864C151.068 2.34865 151.125 2.43538 151.105 2.52544L150.935 3.27927C150.915 3.36599 150.828 3.42269 150.738 3.40268L149.971 3.22923C149.884 3.20922 149.828 3.1225 149.848 3.03244L150.018 2.27861C150.041 2.18855 150.128 2.13518 150.215 2.15519Z" fill="#585857"/>
<path d="M150.001 3.10559C149.981 3.10226 149.968 3.07891 149.971 3.0589L150.141 2.30507C150.145 2.28505 150.168 2.27171 150.188 2.27505L150.955 2.44849C150.975 2.45183 150.989 2.47518 150.985 2.49519L150.815 3.24902C150.812 3.26903 150.788 3.28238 150.768 3.27904L150.001 3.10559Z" fill="#5E5E5D"/>
<path d="M151.526 2.44873L152.293 2.62218C152.379 2.64219 152.436 2.72891 152.416 2.81897L152.246 3.5728C152.226 3.65952 152.139 3.71623 152.049 3.69622L151.282 3.52277C151.195 3.50275 151.139 3.41603 151.159 3.32597L151.329 2.57214C151.352 2.48542 151.439 2.42871 151.526 2.44873Z" fill="#585857"/>
<path d="M151.312 3.39942C151.292 3.39608 151.279 3.37273 151.282 3.35272L151.452 2.59889C151.455 2.57888 151.479 2.56553 151.499 2.56887L152.266 2.74232C152.286 2.74565 152.299 2.769 152.296 2.78901L152.126 3.54284C152.122 3.56286 152.099 3.5762 152.079 3.57286L151.312 3.39942Z" fill="#5E5E5D"/>
<path d="M152.837 2.7454L153.604 2.91885C153.691 2.93886 153.747 3.02559 153.727 3.11565L153.557 3.86948C153.537 3.9562 153.45 4.0129 153.36 3.99289L152.593 3.81944C152.506 3.79943 152.45 3.71271 152.47 3.62265L152.64 2.86882C152.663 2.77876 152.75 2.72539 152.837 2.7454Z" fill="#585857"/>
<path d="M152.623 3.69605C152.603 3.69271 152.59 3.66936 152.593 3.64935L152.763 2.89552C152.766 2.87551 152.79 2.86217 152.81 2.8655L153.577 3.03895C153.597 3.04228 153.61 3.06563 153.607 3.08565L153.437 3.83947C153.433 3.85949 153.41 3.87283 153.39 3.86949L152.623 3.69605Z" fill="#5E5E5D"/>
<path d="M154.151 3.03918L154.918 3.21263C155.005 3.23264 155.061 3.31937 155.041 3.40943L154.871 4.16325C154.851 4.24998 154.765 4.30668 154.675 4.28667L153.907 4.11322C153.821 4.09321 153.764 4.00648 153.784 3.91643L153.954 3.1626C153.974 3.07587 154.061 3.01917 154.151 3.03918Z" fill="#585857"/>
<path d="M153.934 3.98975C153.914 3.98641 153.901 3.96306 153.904 3.94305L154.074 3.18922C154.077 3.16921 154.101 3.15587 154.121 3.1592L154.888 3.33265C154.908 3.33599 154.921 3.35933 154.918 3.37935L154.748 4.13317C154.745 4.15319 154.721 4.16653 154.701 4.16319L153.934 3.98975Z" fill="#5E5E5D"/>
<path d="M155.461 3.33252L156.229 3.50596C156.315 3.52598 156.372 3.6127 156.352 3.70276L156.182 4.45659C156.162 4.54331 156.075 4.60002 155.985 4.58L155.218 4.40656C155.131 4.38654 155.074 4.29982 155.094 4.20976L155.265 3.45593C155.285 3.36921 155.371 3.3125 155.461 3.33252Z" fill="#585857"/>
<path d="M155.248 4.28638C155.228 4.28304 155.215 4.25969 155.218 4.23968L155.388 3.48585C155.392 3.46584 155.415 3.4525 155.435 3.45583L156.202 3.62928C156.222 3.63262 156.235 3.65596 156.232 3.67598L156.062 4.42981C156.059 4.44982 156.035 4.46316 156.015 4.45983L155.248 4.28638Z" fill="#5E5E5D"/>
<path d="M156.772 3.62956L157.54 3.80301C157.626 3.82302 157.683 3.90974 157.663 3.9998L157.493 4.75363C157.473 4.84035 157.386 4.89706 157.296 4.87704L156.529 4.7036C156.442 4.68358 156.386 4.59686 156.406 4.5068L156.576 3.75297C156.596 3.66291 156.682 3.60954 156.772 3.62956Z" fill="#585857"/>
<path d="M156.559 4.5802C156.539 4.57687 156.525 4.55352 156.529 4.5335L156.699 3.77968C156.702 3.75966 156.726 3.74632 156.746 3.74966L157.513 3.9231C157.533 3.92644 157.546 3.94979 157.543 3.9698L157.373 4.72363C157.369 4.74364 157.346 4.75698 157.326 4.75365L156.559 4.5802Z" fill="#5E5E5D"/>
<path d="M158.083 3.92285L158.85 4.0963C158.937 4.11631 158.994 4.20303 158.974 4.29309L158.804 5.04692C158.784 5.13364 158.697 5.19035 158.607 5.17033L157.843 4.99689C157.756 4.97687 157.7 4.89015 157.72 4.80009L157.89 4.04626C157.907 3.95954 157.993 3.90284 158.083 3.92285Z" fill="#585857"/>
<path d="M157.87 4.87366C157.85 4.87032 157.836 4.84697 157.84 4.82696L158.01 4.07313C158.013 4.05312 158.037 4.03978 158.057 4.04311L158.824 4.21656C158.844 4.2199 158.857 4.24324 158.854 4.26326L158.68 5.01709C158.677 5.0371 158.654 5.05044 158.634 5.04711L157.87 4.87366Z" fill="#5E5E5D"/>
<path d="M159.394 4.21989L160.161 4.39334C160.248 4.41335 160.305 4.50007 160.285 4.59013L160.115 5.34396C160.095 5.43069 160.008 5.48739 159.918 5.46738L159.151 5.29393C159.064 5.27392 159.007 5.18719 159.027 5.09713L159.197 4.3433C159.217 4.25324 159.307 4.19988 159.394 4.21989Z" fill="#585857"/>
<path d="M159.181 5.17053C159.161 5.1672 159.147 5.14385 159.151 5.12384L159.321 4.37001C159.324 4.34999 159.348 4.33665 159.368 4.33999L160.135 4.51344C160.155 4.51677 160.168 4.54012 160.165 4.56013L159.995 5.31396C159.991 5.33397 159.968 5.34732 159.948 5.34398L159.181 5.17053Z" fill="#5E5E5D"/>
<path d="M160.705 4.5133L161.472 4.68675C161.559 4.70676 161.615 4.79349 161.595 4.88355L161.425 5.63737C161.405 5.7241 161.318 5.7808 161.228 5.76079L160.461 5.58734C160.374 5.56733 160.318 5.4806 160.338 5.39055L160.511 4.63672C160.528 4.54999 160.618 4.49329 160.705 4.5133Z" fill="#585857"/>
<path d="M160.491 5.46411C160.471 5.46078 160.458 5.43743 160.461 5.41742L160.632 4.66359C160.635 4.64357 160.658 4.63023 160.678 4.63357L161.445 4.80701C161.465 4.81035 161.479 4.8337 161.475 4.85371L161.305 5.60754C161.302 5.62755 161.279 5.6409 161.259 5.63756L160.491 5.46411Z" fill="#5E5E5D"/>
<path d="M144.694 2.19519L145.461 2.36864C145.548 2.38865 145.605 2.47537 145.585 2.56543L145.415 3.31926C145.395 3.40598 145.308 3.46269 145.218 3.44267L144.451 3.26923C144.364 3.24921 144.307 3.16249 144.327 3.07243L144.501 2.3186C144.521 2.23188 144.607 2.17517 144.694 2.19519Z" fill="#585857"/>
<path d="M144.481 3.14575C144.461 3.14242 144.448 3.11907 144.451 3.09906L144.621 2.34523C144.624 2.32521 144.648 2.31187 144.668 2.31521L145.435 2.48865C145.455 2.49199 145.468 2.51534 145.465 2.53535L145.295 3.28918C145.292 3.30919 145.268 3.32254 145.248 3.3192L144.481 3.14575Z" fill="#5E5E5D"/>
<path d="M146.009 2.49198L146.776 2.66543C146.863 2.68545 146.919 2.77217 146.899 2.86223L146.729 3.61606C146.709 3.70278 146.623 3.75948 146.533 3.73947L145.765 3.56602C145.679 3.54601 145.622 3.45929 145.642 3.36923L145.812 2.6154C145.832 2.52534 145.919 2.47197 146.009 2.49198Z" fill="#585857"/>
<path d="M145.792 3.44263C145.772 3.43929 145.759 3.41594 145.762 3.39593L145.932 2.6421C145.935 2.62209 145.959 2.60875 145.979 2.61208L146.746 2.78553C146.766 2.78887 146.779 2.81221 146.776 2.83223L146.606 3.58606C146.603 3.60607 146.579 3.61941 146.559 3.61608L145.792 3.44263Z" fill="#5E5E5D"/>
<path d="M147.319 2.78552L148.087 2.95897C148.173 2.97898 148.23 3.0657 148.21 3.15576L148.04 3.90959C148.02 3.99632 147.933 4.05302 147.843 4.03301L147.076 3.85956C146.989 3.83955 146.932 3.75282 146.953 3.66276L147.123 2.90893C147.143 2.82221 147.229 2.76551 147.319 2.78552Z" fill="#585857"/>
<path d="M147.106 3.73621C147.086 3.73287 147.073 3.70952 147.076 3.68951L147.246 2.93568C147.25 2.91567 147.273 2.90233 147.293 2.90566L148.06 3.07911C148.08 3.08245 148.094 3.10579 148.09 3.12581L147.92 3.87964C147.917 3.89965 147.893 3.91299 147.873 3.90966L147.106 3.73621Z" fill="#5E5E5D"/>
<path d="M148.63 3.0791L149.397 3.25255C149.484 3.27256 149.541 3.35928 149.521 3.44934L149.351 4.20317C149.331 4.2899 149.244 4.3466 149.154 4.32659L148.387 4.15314C148.3 4.13313 148.243 4.0464 148.263 3.95634L148.433 3.20251C148.453 3.11579 148.54 3.05909 148.63 3.0791Z" fill="#585857"/>
<path d="M148.417 4.02967C148.397 4.02633 148.383 4.00298 148.387 3.98297L148.557 3.22914C148.56 3.20913 148.584 3.19578 148.604 3.19912L149.371 3.37257C149.391 3.3759 149.404 3.39925 149.401 3.41926L149.231 4.17309C149.227 4.19311 149.204 4.20645 149.184 4.20311L148.417 4.02967Z" fill="#5E5E5D"/>
<path d="M149.941 3.3759L150.709 3.54934C150.795 3.56936 150.852 3.65608 150.832 3.74614L150.662 4.49997C150.642 4.58669 150.555 4.64339 150.465 4.62338L149.698 4.44993C149.611 4.42992 149.555 4.3432 149.575 4.25314L149.745 3.49931C149.765 3.40925 149.855 3.35588 149.941 3.3759Z" fill="#585857"/>
<path d="M149.728 4.32654C149.708 4.3232 149.694 4.29986 149.698 4.27984L149.868 3.52601C149.871 3.506 149.895 3.49266 149.915 3.49599L150.682 3.66944C150.702 3.67278 150.715 3.69613 150.712 3.71614L150.542 4.46997C150.538 4.48998 150.515 4.50332 150.495 4.49999L149.728 4.32654Z" fill="#5E5E5D"/>
<path d="M151.252 3.66931L152.019 3.84276C152.106 3.86277 152.163 3.94949 152.143 4.03955L151.973 4.79338C151.953 4.88011 151.866 4.93681 151.776 4.9168L151.009 4.74335C150.922 4.72334 150.865 4.63661 150.885 4.54655L151.055 3.79272C151.075 3.706 151.165 3.6493 151.252 3.66931Z" fill="#585857"/>
<path d="M151.039 4.62012C151.019 4.61678 151.005 4.59343 151.009 4.57342L151.179 3.81959C151.182 3.79958 151.206 3.78624 151.226 3.78957L151.993 3.96302C152.013 3.96636 152.026 3.9897 152.023 4.00972L151.853 4.76355C151.849 4.78356 151.826 4.7969 151.806 4.79357L151.039 4.62012Z" fill="#5E5E5D"/>
<path d="M152.563 3.96635L153.33 4.1398C153.417 4.15981 153.473 4.24653 153.453 4.33659L153.283 5.09042C153.263 5.17715 153.176 5.23385 153.086 5.21384L152.319 5.04039C152.232 5.02038 152.176 4.93365 152.196 4.84359L152.366 4.08977C152.389 3.99971 152.476 3.94634 152.563 3.96635Z" fill="#585857"/>
<path d="M152.35 4.91699C152.329 4.91366 152.316 4.89031 152.319 4.8703L152.49 4.11647C152.493 4.09645 152.516 4.08311 152.536 4.08645L153.303 4.2599C153.323 4.26323 153.337 4.28658 153.333 4.30659L153.163 5.06042C153.16 5.08044 153.137 5.09378 153.117 5.09044L152.35 4.91699Z" fill="#5E5E5D"/>
<path d="M153.874 4.25964L154.641 4.43309C154.728 4.4531 154.784 4.53983 154.764 4.62988L154.594 5.38371C154.574 5.47044 154.487 5.52714 154.397 5.50713L153.63 5.33368C153.544 5.31367 153.487 5.22694 153.507 5.13688L153.677 4.38306C153.7 4.29633 153.787 4.23963 153.874 4.25964Z" fill="#585857"/>
<path d="M153.66 5.21045C153.64 5.20712 153.627 5.18377 153.63 5.16375L153.8 4.40993C153.803 4.38991 153.827 4.37657 153.847 4.37991L154.614 4.55335C154.634 4.55669 154.647 4.58004 154.644 4.60005L154.474 5.35388C154.471 5.37389 154.447 5.38723 154.427 5.3839L153.66 5.21045Z" fill="#5E5E5D"/>
<path d="M155.185 4.55346L155.952 4.72691C156.039 4.74693 156.095 4.83365 156.075 4.92371L155.905 5.67754C155.885 5.76426 155.799 5.82096 155.709 5.80095L154.941 5.6275C154.855 5.60749 154.798 5.52077 154.818 5.43071L154.988 4.67688C155.011 4.59015 155.098 4.53345 155.185 4.55346Z" fill="#585857"/>
<path d="M154.971 5.50403C154.951 5.50069 154.938 5.47735 154.941 5.45733L155.111 4.7035C155.115 4.68349 155.138 4.67015 155.158 4.67348L155.925 4.84693C155.945 4.85027 155.958 4.87362 155.955 4.89363L155.785 5.64746C155.782 5.66747 155.758 5.68081 155.738 5.67748L154.971 5.50403Z" fill="#5E5E5D"/>
<path d="M156.495 4.85026L157.263 5.02371C157.349 5.04372 157.406 5.13045 157.386 5.2205L157.216 5.97433C157.196 6.06106 157.109 6.11776 157.019 6.09775L156.252 5.9243C156.165 5.90429 156.109 5.81756 156.129 5.7275L156.299 4.97368C156.322 4.88362 156.409 4.83025 156.495 4.85026Z" fill="#585857"/>
<path d="M156.282 5.8009C156.262 5.79757 156.249 5.77422 156.252 5.75421L156.422 5.00038C156.426 4.98037 156.449 4.96702 156.469 4.97036L157.236 5.14381C157.256 5.14714 157.27 5.17049 157.266 5.1905L157.096 5.94433C157.093 5.96435 157.069 5.97769 157.049 5.97435L156.282 5.8009Z" fill="#5E5E5D"/>
<path d="M157.81 5.1438L158.577 5.31724C158.664 5.33726 158.72 5.42398 158.7 5.51404L158.53 6.26787C158.51 6.35459 158.423 6.4113 158.333 6.39128L157.566 6.21783C157.479 6.19782 157.423 6.1111 157.443 6.02104L157.613 5.26721C157.633 5.18049 157.72 5.12378 157.81 5.1438Z" fill="#585857"/>
<path d="M157.593 6.09436C157.573 6.09103 157.559 6.06768 157.563 6.04766L157.733 5.29384C157.736 5.27382 157.76 5.26048 157.78 5.26382L158.547 5.43726C158.567 5.4406 158.58 5.46395 158.577 5.48396L158.407 6.23779C158.403 6.2578 158.38 6.27114 158.36 6.26781L157.593 6.09436Z" fill="#5E5E5D"/>
<path d="M159.121 5.44059L159.888 5.61404C159.975 5.63405 160.031 5.72078 160.011 5.81084L159.841 6.56466C159.821 6.65139 159.734 6.70809 159.644 6.68808L158.877 6.51463C158.79 6.49462 158.734 6.4079 158.754 6.31784L158.924 5.56401C158.944 5.47395 159.031 5.42058 159.121 5.44059Z" fill="#585857"/>
<path d="M158.907 6.39124C158.887 6.3879 158.874 6.36455 158.877 6.34454L159.047 5.59071C159.051 5.5707 159.074 5.55736 159.094 5.56069L159.861 5.73414C159.881 5.73747 159.895 5.76082 159.891 5.78084L159.721 6.53466C159.718 6.55468 159.695 6.56802 159.675 6.56468L158.907 6.39124Z" fill="#5E5E5D"/>
<path d="M160.432 5.73425L161.199 5.9077C161.286 5.92771 161.342 6.01443 161.322 6.10449L161.152 6.85832C161.132 6.94505 161.045 7.00175 160.955 6.98174L160.188 6.80829C160.102 6.78828 160.045 6.70155 160.065 6.61149L160.235 5.85766C160.255 5.77094 160.342 5.71424 160.432 5.73425Z" fill="#585857"/>
<path d="M160.218 6.68482C160.198 6.68148 160.185 6.65813 160.188 6.63812L160.358 5.88429C160.361 5.86428 160.385 5.85094 160.405 5.85427L161.172 6.02772C161.192 6.03105 161.205 6.0544 161.202 6.07442L161.032 6.82824C161.029 6.84826 161.005 6.8616 160.985 6.85826L160.218 6.68482Z" fill="#5E5E5D"/>
<path d="M144.421 3.41589L145.188 3.58934C145.275 3.60935 145.332 3.69608 145.312 3.78613L145.142 4.53996C145.122 4.62669 145.035 4.68339 144.945 4.66338L144.178 4.48993C144.091 4.46992 144.034 4.38319 144.054 4.29313L144.224 3.53931C144.248 3.45258 144.335 3.39588 144.421 3.41589Z" fill="#585857"/>
<path d="M144.208 4.36646C144.188 4.36312 144.174 4.33977 144.178 4.31976L144.348 3.56593C144.351 3.54592 144.374 3.53258 144.394 3.53591L145.161 3.70936C145.182 3.71269 145.195 3.73604 145.192 3.75606L145.021 4.50988C145.018 4.5299 144.995 4.54324 144.975 4.5399L144.208 4.36646Z" fill="#5E5E5D"/>
<path d="M145.732 3.70934L146.499 3.88279C146.586 3.9028 146.642 3.98952 146.622 4.07958L146.452 4.83341C146.432 4.92014 146.346 4.97684 146.255 4.95683L145.488 4.78338C145.402 4.76337 145.345 4.67664 145.365 4.58658L145.535 3.83276C145.558 3.74603 145.645 3.69266 145.732 3.70934Z" fill="#585857"/>
<path d="M145.519 4.66358C145.499 4.66024 145.485 4.63689 145.489 4.61688L145.659 3.86305C145.662 3.84304 145.685 3.82969 145.705 3.83303L146.473 4.00648C146.493 4.00981 146.506 4.03316 146.503 4.05317L146.332 4.807C146.329 4.82702 146.306 4.84036 146.286 4.83702L145.519 4.66358Z" fill="#5E5E5D"/>
<path d="M147.042 4.00635L147.81 4.17979C147.896 4.19981 147.953 4.28653 147.933 4.37659L147.763 5.13042C147.743 5.21714 147.656 5.27384 147.566 5.25383L146.799 5.08038C146.712 5.06037 146.656 4.97365 146.676 4.88359L146.846 4.12976C146.869 4.04304 146.956 3.98633 147.042 4.00635Z" fill="#585857"/>
<path d="M146.829 4.95691C146.809 4.95357 146.796 4.93023 146.799 4.91021L146.969 4.15638C146.973 4.13637 146.996 4.12303 147.016 4.12637L147.783 4.29981C147.803 4.30315 147.816 4.3265 147.813 4.34651L147.643 5.10034C147.64 5.12035 147.616 5.13369 147.596 5.13036L146.829 4.95691Z" fill="#5E5E5D"/>
<path d="M148.357 4.2998L149.124 4.47325C149.211 4.49326 149.268 4.57999 149.248 4.67005L149.077 5.42388C149.057 5.5106 148.971 5.5673 148.881 5.54729L148.114 5.37384C148.027 5.35383 147.97 5.2671 147.99 5.17705L148.16 4.42322C148.18 4.33649 148.267 4.27979 148.357 4.2998Z" fill="#585857"/>
<path d="M148.14 5.25037C148.12 5.24703 148.107 5.22368 148.11 5.20367L148.28 4.44984C148.284 4.42983 148.307 4.41649 148.327 4.41982L149.094 4.59327C149.114 4.59661 149.127 4.61995 149.124 4.63997L148.954 5.3938C148.951 5.41381 148.927 5.42715 148.907 5.42382L148.14 5.25037Z" fill="#5E5E5D"/>
<path d="M149.668 4.59684L150.435 4.77029C150.522 4.7903 150.578 4.87703 150.558 4.96709L150.388 5.72091C150.368 5.80764 150.281 5.86434 150.191 5.84433L149.424 5.67088C149.337 5.65087 149.281 5.56414 149.301 5.47409L149.471 4.72026C149.491 4.6302 149.578 4.57683 149.668 4.59684Z" fill="#585857"/>
<path d="M149.454 5.54724C149.434 5.54391 149.421 5.52056 149.424 5.50055L149.594 4.74672C149.598 4.7267 149.621 4.71336 149.641 4.7167L150.408 4.89014C150.428 4.89348 150.442 4.91683 150.438 4.93684L150.268 5.69067C150.265 5.71068 150.242 5.72403 150.222 5.72069L149.454 5.54724Z" fill="#5E5E5D"/>
<path d="M150.979 4.89026L151.746 5.0637C151.833 5.08372 151.889 5.17044 151.869 5.2605L151.699 6.01433C151.679 6.10105 151.592 6.15776 151.502 6.13774L150.735 5.9643C150.649 5.94428 150.592 5.85756 150.612 5.7675L150.782 5.01367C150.802 4.92695 150.889 4.87024 150.979 4.89026Z" fill="#585857"/>
<path d="M150.765 5.84082C150.745 5.83749 150.732 5.81414 150.735 5.79413L150.905 5.0403C150.908 5.02028 150.932 5.00694 150.952 5.01028L151.719 5.18372C151.739 5.18706 151.752 5.21041 151.749 5.23042L151.579 5.98425C151.576 6.00426 151.552 6.01761 151.532 6.01427L150.765 5.84082Z" fill="#5E5E5D"/>
<path d="M152.29 5.18359L153.057 5.35703C153.144 5.37705 153.2 5.46377 153.18 5.55383L153.01 6.30766C152.99 6.39438 152.903 6.45109 152.813 6.43107L152.046 6.25762C151.96 6.23761 151.903 6.15089 151.923 6.06083L152.093 5.307C152.113 5.22028 152.2 5.16691 152.29 5.18359Z" fill="#585857"/>
<path d="M152.076 6.1377C152.056 6.13436 152.043 6.11101 152.046 6.091L152.216 5.33717C152.219 5.31716 152.243 5.30382 152.263 5.30715L153.03 5.4806C153.05 5.48393 153.063 5.50728 153.06 5.5273L152.89 6.28113C152.887 6.30114 152.863 6.31448 152.843 6.31115L152.076 6.1377Z" fill="#5E5E5D"/>
<path d="M153.6 5.48051L154.367 5.65396C154.454 5.67397 154.511 5.76069 154.491 5.85075L154.321 6.60458C154.301 6.69131 154.214 6.74801 154.124 6.728L153.357 6.55455C153.27 6.53454 153.213 6.44781 153.233 6.35775L153.404 5.60392C153.424 5.51387 153.514 5.4605 153.6 5.48051Z" fill="#585857"/>
<path d="M153.387 6.43115C153.367 6.42782 153.354 6.40447 153.357 6.38446L153.527 5.63063C153.531 5.61062 153.554 5.59727 153.574 5.60061L154.341 5.77406C154.361 5.77739 154.374 5.80074 154.371 5.82075L154.201 6.57458C154.198 6.59459 154.174 6.60794 154.154 6.6046L153.387 6.43115Z" fill="#5E5E5D"/>
<path d="M154.911 5.77417L155.678 5.94762C155.765 5.96763 155.822 6.05435 155.802 6.14441L155.631 6.89824C155.611 6.98496 155.525 7.04167 155.435 7.02165L154.667 6.84821C154.581 6.82819 154.524 6.74147 154.544 6.65141L154.714 5.89758C154.734 5.81086 154.824 5.75415 154.911 5.77417Z" fill="#585857"/>
<path d="M154.698 6.72473C154.678 6.7214 154.664 6.69805 154.668 6.67804L154.838 5.92421C154.841 5.90419 154.864 5.89085 154.884 5.89419L155.652 6.06764C155.672 6.07097 155.685 6.09432 155.682 6.11433L155.508 6.86816C155.505 6.88817 155.481 6.90152 155.461 6.89818L154.698 6.72473Z" fill="#5E5E5D"/>
<path d="M156.222 6.07096L156.989 6.24441C157.076 6.26442 157.133 6.35115 157.113 6.44121L156.942 7.19504C156.922 7.28176 156.836 7.33846 156.746 7.31845L155.979 7.145C155.892 7.12499 155.835 7.03827 155.855 6.94821L156.025 6.19438C156.049 6.10432 156.135 6.05095 156.222 6.07096Z" fill="#585857"/>
<path d="M156.008 7.02161C155.988 7.01827 155.975 6.99826 155.978 6.97491L156.148 6.22108C156.152 6.20107 156.175 6.18773 156.195 6.19106L156.962 6.36451C156.982 6.36785 156.996 6.39119 156.992 6.41121L156.822 7.16504C156.819 7.18505 156.795 7.19839 156.775 7.19506L156.008 7.02161Z" fill="#5E5E5D"/>
<path d="M157.533 6.3645L158.3 6.53795C158.387 6.55796 158.444 6.64468 158.424 6.73474L158.254 7.48857C158.234 7.57529 158.147 7.632 158.057 7.61199L157.29 7.43854C157.203 7.41852 157.146 7.3318 157.166 7.24174L157.336 6.48791C157.36 6.40119 157.446 6.34449 157.533 6.3645Z" fill="#585857"/>
<path d="M157.319 7.31506C157.299 7.31173 157.286 7.28838 157.289 7.26837L157.459 6.51454C157.463 6.49453 157.486 6.48118 157.506 6.48452L158.273 6.65797C158.293 6.6613 158.307 6.68465 158.303 6.70466L158.133 7.45849C158.13 7.47851 158.107 7.49185 158.087 7.48851L157.319 7.31506Z" fill="#5E5E5D"/>
<path d="M158.844 6.65808L159.611 6.83153C159.697 6.85154 159.754 6.93826 159.734 7.02832L159.564 7.78215C159.544 7.86888 159.457 7.92558 159.367 7.90557L158.6 7.73212C158.513 7.7121 158.457 7.62538 158.477 7.53532L158.647 6.78149C158.67 6.69477 158.757 6.63807 158.844 6.65808Z" fill="#585857"/>
<path d="M158.63 7.61194C158.61 7.6086 158.597 7.58526 158.6 7.56524L158.77 6.81141C158.774 6.7914 158.797 6.77806 158.817 6.78139L159.584 6.95484C159.604 6.95818 159.618 6.98153 159.614 7.00154L159.444 7.75203C159.441 7.77205 159.418 7.78539 159.398 7.78205L158.63 7.61194Z" fill="#5E5E5D"/>
<path d="M160.158 6.95488L160.925 7.12832C161.012 7.14834 161.068 7.23506 161.048 7.32512L160.878 8.07895C160.858 8.16567 160.772 8.22237 160.681 8.20236L159.914 8.02891C159.828 8.0089 159.771 7.92218 159.791 7.83212L159.961 7.07829C159.981 6.98823 160.068 6.93486 160.158 6.95488Z" fill="#585857"/>
<path d="M159.941 7.90552C159.921 7.90218 159.908 7.87884 159.911 7.85882L160.081 7.10499C160.084 7.08498 160.108 7.07164 160.128 7.07497L160.895 7.24842C160.915 7.25176 160.928 7.27511 160.925 7.29512L160.755 8.04895C160.751 8.06896 160.728 8.0823 160.708 8.07897L159.941 7.90552Z" fill="#5E5E5D"/>
<path d="M144.147 4.63684L144.914 4.81029C145.001 4.8303 145.058 4.91702 145.038 5.00708L144.868 5.76091C144.848 5.84763 144.761 5.90434 144.671 5.88432L143.904 5.71088C143.817 5.69086 143.76 5.60414 143.78 5.51408L143.951 4.76025C143.971 4.67353 144.061 4.61683 144.147 4.63684Z" fill="#585857"/>
<path d="M143.934 5.5874C143.914 5.58407 143.901 5.56072 143.904 5.54071L144.074 4.78688C144.078 4.76687 144.101 4.75352 144.121 4.75686L144.888 4.93031C144.908 4.93364 144.921 4.95699 144.918 4.977L144.748 5.73083C144.745 5.75084 144.721 5.76419 144.701 5.76085L143.934 5.5874Z" fill="#5E5E5D"/>
<path d="M145.458 4.9303L146.226 5.10374C146.312 5.12375 146.369 5.21048 146.349 5.30054L146.179 6.05437C146.159 6.14109 146.072 6.19779 145.982 6.17778L145.215 6.00433C145.128 5.98432 145.071 5.8976 145.091 5.80754L145.262 5.05371C145.282 4.96699 145.372 4.91028 145.458 4.9303Z" fill="#585857"/>
<path d="M145.245 5.88098C145.225 5.87765 145.212 5.8543 145.215 5.83429L145.385 5.08046C145.389 5.06044 145.412 5.0471 145.432 5.05044L146.199 5.22389C146.219 5.22722 146.232 5.25057 146.229 5.27058L146.059 6.02441C146.056 6.04442 146.032 6.05777 146.012 6.05443L145.245 5.88098Z" fill="#5E5E5D"/>
<path d="M146.769 5.22721L147.537 5.40066C147.623 5.42067 147.68 5.5074 147.66 5.59746L147.49 6.35129C147.47 6.43801 147.383 6.49471 147.293 6.4747L146.526 6.30125C146.439 6.28124 146.382 6.19452 146.402 6.10446L146.576 5.35063C146.596 5.26057 146.683 5.2072 146.769 5.22721Z" fill="#585857"/>
<path d="M146.556 6.17761C146.536 6.17428 146.522 6.15093 146.526 6.13092L146.696 5.37709C146.699 5.35708 146.722 5.34373 146.742 5.34707L147.51 5.52051C147.53 5.52385 147.543 5.5472 147.54 5.56721L147.37 6.32104C147.366 6.34105 147.343 6.3544 147.323 6.35106L146.556 6.17761Z" fill="#5E5E5D"/>
<path d="M148.08 5.52075L148.847 5.6942C148.934 5.71421 148.991 5.80093 148.971 5.89099L148.801 6.64482C148.781 6.73155 148.694 6.78825 148.604 6.76824L147.837 6.59479C147.75 6.57478 147.693 6.48805 147.713 6.39799L147.883 5.64416C147.907 5.55744 147.993 5.50074 148.08 5.52075Z" fill="#585857"/>
<path d="M147.867 6.47132C147.847 6.46798 147.833 6.44463 147.837 6.42462L148.007 5.67079C148.01 5.65078 148.033 5.63743 148.054 5.64077L148.821 5.81422C148.841 5.81755 148.854 5.8409 148.851 5.86091L148.681 6.61474C148.677 6.63476 148.654 6.6481 148.634 6.64476L147.867 6.47132Z" fill="#5E5E5D"/>
<path d="M154.09 6.87162L149.384 5.81426C149.297 5.79425 149.214 5.84762 149.194 5.93434L149.01 6.74487C148.997 6.80491 149.034 6.86495 149.094 6.87829L153.844 7.94566C153.93 7.96567 154.02 7.90897 154.04 7.82225L154.211 7.06842C154.234 6.98169 154.18 6.89163 154.09 6.87162Z" fill="#585857"/>
<path d="M149.141 6.75809L149.321 5.9609C149.324 5.94422 149.344 5.93087 149.361 5.93755L154.067 6.99491C154.087 6.99824 154.101 7.02159 154.097 7.0416L153.927 7.79543C153.924 7.81545 153.9 7.82879 153.88 7.82545L149.141 6.75809Z" fill="#5E5E5D"/>
<path d="M154.638 6.99511L155.405 7.16856C155.492 7.18858 155.548 7.2753 155.528 7.36536L155.358 8.11919C155.338 8.20591 155.252 8.26261 155.162 8.2426L154.394 8.06915C154.308 8.04914 154.251 7.96242 154.271 7.87236L154.441 7.11853C154.461 7.03181 154.548 6.9751 154.638 6.99511Z" fill="#585857"/>
<path d="M154.424 7.94568C154.404 7.94234 154.391 7.919 154.394 7.89898L154.564 7.14515C154.568 7.12514 154.591 7.1118 154.611 7.11513L155.378 7.28858C155.398 7.29192 155.412 7.31527 155.408 7.33528L155.238 8.08911C155.235 8.10912 155.211 8.12246 155.191 8.11913L154.424 7.94568Z" fill="#5E5E5D"/>
<path d="M155.949 7.29191L156.716 7.46536C156.802 7.48537 156.859 7.5721 156.839 7.66215L156.669 8.41598C156.649 8.50271 156.562 8.55941 156.472 8.5394L155.705 8.36595C155.618 8.34594 155.562 8.25921 155.582 8.16915L155.752 7.41533C155.772 7.32527 155.862 7.2719 155.949 7.29191Z" fill="#585857"/>
<path d="M155.735 8.24255C155.715 8.23922 155.702 8.21587 155.705 8.19586L155.875 7.44203C155.879 7.42202 155.902 7.40867 155.922 7.41201L156.689 7.58546C156.709 7.58879 156.723 7.61214 156.719 7.63215L156.549 8.38598C156.546 8.406 156.522 8.41934 156.502 8.416L155.735 8.24255Z" fill="#5E5E5D"/>
<path d="M157.259 7.58545L158.026 7.75889C158.113 7.77891 158.17 7.86563 158.15 7.95569L157.98 8.70952C157.96 8.79624 157.873 8.85295 157.783 8.83293L157.016 8.65949C156.929 8.63947 156.872 8.55275 156.892 8.46269L157.062 7.70886C157.082 7.62214 157.172 7.56543 157.259 7.58545Z" fill="#585857"/>
<path d="M157.046 8.53601C157.026 8.53268 157.013 8.50933 157.016 8.48931L157.186 7.73549C157.189 7.71547 157.213 7.70213 157.233 7.70547L158 7.87891C158.02 7.88225 158.033 7.9056 158.03 7.92561L157.86 8.67944C157.856 8.69945 157.836 8.71279 157.813 8.70946L157.046 8.53601Z" fill="#5E5E5D"/>
<path d="M158.57 7.87878L159.337 8.05223C159.424 8.07224 159.481 8.15896 159.461 8.24902L159.291 9.00285C159.271 9.08958 159.184 9.14628 159.094 9.12627L158.327 8.95282C158.24 8.93281 158.183 8.84608 158.203 8.75602L158.373 8.0022C158.397 7.91547 158.483 7.85877 158.57 7.87878Z" fill="#585857"/>
<path d="M158.356 8.82959C158.336 8.82626 158.323 8.80291 158.326 8.7829L158.497 8.02907C158.5 8.00905 158.523 7.99571 158.543 7.99905L159.31 8.17249C159.33 8.17583 159.344 8.19918 159.34 8.21919L159.17 8.97302C159.167 8.99303 159.144 9.00637 159.124 9.00304L158.356 8.82959Z" fill="#5E5E5D"/>
<path d="M159.881 8.17582L160.648 8.34927C160.735 8.36928 160.792 8.45601 160.772 8.54607L160.602 9.29989C160.582 9.38662 160.495 9.44332 160.405 9.42331L159.638 9.24986C159.551 9.22985 159.494 9.14312 159.514 9.05306L159.684 8.29924C159.708 8.20918 159.794 8.15581 159.881 8.17582Z" fill="#585857"/>
<path d="M159.668 9.12647C159.648 9.12313 159.635 9.09978 159.638 9.07977L159.808 8.32594C159.811 8.30593 159.835 8.29259 159.855 8.29592L160.622 8.46937C160.642 8.4727 160.655 8.49605 160.652 8.51607L160.482 9.26989C160.479 9.28991 160.455 9.30325 160.435 9.29991L159.668 9.12647Z" fill="#5E5E5D"/>
<path d="M153.854 8.99957L150.004 8.13567C149.831 8.09564 149.658 8.20571 149.621 8.37916L149.157 10.4372C149.117 10.6106 149.227 10.7841 149.401 10.8208L153.25 11.6847C153.423 11.7247 153.597 11.6146 153.634 11.4412L154.097 9.38315C154.137 9.2097 154.027 9.03959 153.854 8.99957Z" fill="#EDEDED"/>
<path d="M153.884 8.87614L150.034 8.01223C149.794 7.95887 149.554 8.10897 149.501 8.34912L149.037 10.4071C148.984 10.6473 149.134 10.8875 149.374 10.9408L153.223 11.8047C153.463 11.8581 153.704 11.708 153.757 11.4678L154.221 9.40982C154.274 9.16966 154.124 8.93284 153.884 8.87614ZM153.637 11.4412C153.597 11.6146 153.427 11.7247 153.253 11.6846L149.404 10.8207C149.231 10.7807 149.121 10.6106 149.161 10.4372L149.624 8.37914C149.664 8.2057 149.834 8.09562 150.008 8.13565L153.857 8.99955C154.03 9.03958 154.14 9.20969 154.1 9.38313L153.637 11.4412Z" fill="#9D9B9B"/>
<path d="M149.388 9.4231L149.161 10.4371C149.121 10.6105 149.231 10.784 149.404 10.8207L153.254 11.6846C153.427 11.7246 153.6 11.6145 153.637 11.4411L153.864 10.4271L149.388 9.4231Z" fill="#DFDFDE"/>
<path d="M151.609 9.92037L149.388 9.42004L149.161 10.434C149.121 10.6075 149.231 10.7809 149.404 10.8176L151.312 11.2479L151.609 9.92037Z" fill="#D9D9DA"/>
<path d="M163.09 3.0924L144.191 -1.15705C144.081 -1.18374 144.004 -1.28714 144.014 -1.40055L145.992 -12.2143C146.019 -12.5112 146.299 -12.7146 146.589 -12.6479L165.839 -8.31843C166.129 -8.25171 166.295 -7.94818 166.192 -7.668L163.354 2.94898C163.314 3.05571 163.203 3.11909 163.09 3.0924Z" fill="#E3E1E1"/>
<path d="M144.838 -2.19454L146.663 -11.3239C146.689 -11.6041 146.953 -11.7975 147.226 -11.7341L164.868 -7.76821C165.141 -7.70817 165.298 -7.41798 165.201 -7.15447L162.947 1.8748C162.867 2.09494 162.636 2.21835 162.406 2.16832L145.202 -1.70089C144.971 -1.75092 144.818 -1.96439 144.838 -2.19454Z" fill="#C7C7C6"/>
<path d="M144.965 -2.18117L146.789 -11.3172C146.809 -11.5206 146.999 -11.6607 147.199 -11.614L164.848 -7.64476C165.044 -7.6014 165.161 -7.39126 165.091 -7.20113L162.83 1.8348C162.773 1.99491 162.606 2.08497 162.439 2.04827L145.225 -1.82427C145.061 -1.86096 144.948 -2.01439 144.965 -2.18117Z" fill="#C6E6F2"/>
<path d="M160.351 2.47858L146.903 -0.546744L146.909 -0.77356L160.468 2.27511L160.351 2.47858Z" fill="#585857"/>
</g>
<path d="M36.3076 64.9767C35.4107 61.1852 31.6193 58.8468 27.8482 59.7473C24.0721 60.6479 21.7432 64.4548 22.6401 68.2412C23.272 70.902 25.3308 72.8463 27.8075 73.4552C27.9502 73.8339 28.2152 76.1313 28.6891 76.8681C28.9031 77.2007 29.1732 77.257 29.586 77.17C29.9172 78.352 31.3033 79.4368 32.4449 79.3293C33.2449 79.2526 33.8259 78.7 34.0858 77.958C34.2896 77.3798 34.4527 76.7146 34.5546 76.0699C35.105 76.0546 35.37 75.9983 35.3445 75.4815C35.2986 74.5861 34.3304 72.1198 34.2947 71.7411C36.0528 70.0679 36.909 67.5198 36.3076 64.9767Z" fill="#FDFFFC"/>
<path d="M32.6538 64.7209C32.5468 64.3372 32.1697 64.0813 31.7722 64.1785C31.4002 64.2655 31.1199 64.68 31.232 65.0638C31.2982 65.2991 31.4715 65.4884 31.6804 65.5754C31.5276 66.5681 31.3339 67.5454 31.2524 68.5483C31.1759 69.4795 31.0995 70.3903 30.8956 71.296C29.7898 69.6331 28.6891 67.9752 27.4711 66.3941C27.8075 66.0718 27.5527 65.3503 26.987 65.4833C26.3194 65.6419 26.564 66.6858 27.2367 66.5272C27.2418 66.5272 27.2469 66.522 27.252 66.5169C28.5158 68.3129 29.7541 70.1345 30.7835 72.0789C30.8956 72.2887 31.2014 72.2426 31.2728 72.0277C31.6091 71.0248 31.7059 70.0015 31.7773 68.9525C31.8588 67.8217 32.0779 66.7114 32.1697 65.5857C32.5111 65.4731 32.7557 65.0842 32.6538 64.7209Z" fill="#AEB4FC"/>
<path d="M24.1685 58.5399C22.7467 57.8337 21.3198 57.1225 19.898 56.4113C19.6024 56.268 19.3323 56.6927 19.6279 56.8513C21.014 57.6188 22.4052 58.3812 23.7914 59.1488C24.199 59.3739 24.5761 58.7445 24.1685 58.5399Z" fill="#808AFF"/>
<path d="M26.8441 53.116C26.7269 52.8551 26.3906 53.0444 26.416 53.2798C26.5893 54.7534 27.1346 56.2577 27.5626 57.6802C27.6697 58.0282 28.2047 57.9105 28.1181 57.5472C27.7665 56.0838 27.4607 54.4924 26.8441 53.116Z" fill="#808AFF"/>
<path d="M33.4692 52.6863C33.1023 53.0087 32.878 53.5204 32.6487 53.9502C32.4092 54.4004 32.1952 54.861 31.9913 55.3266C31.8282 55.7052 32.4551 55.9048 32.613 55.5159C32.8016 55.04 33.0054 54.5795 33.2398 54.1241C33.4386 53.7301 33.7291 53.3464 33.8463 52.9217C33.9125 52.6914 33.6373 52.5328 33.4692 52.6863Z" fill="#808AFF"/>
</g>
<defs>
<clipPath id="clip0_10_717">
<rect width="14" height="17" fill="white" transform="translate(153.5 24.3394)"/>
</clipPath>
<clipPath id="clip1_10_717">
<rect width="69" height="12" fill="white" transform="translate(57.5 117.339)"/>
</clipPath>
<clipPath id="clip2_10_717">
<rect width="32" height="26" fill="white" transform="translate(138.5 58.3394)"/>
</clipPath>
<clipPath id="clip3_10_717">
<rect width="35" height="35" fill="white" transform="translate(40.5 -16.6606)"/>
</clipPath>
</defs>
</svg>
