<svg width="140" height="123" viewBox="0 0 140 123" fill="none" xmlns="http://www.w3.org/2000/svg">
<path fill-rule="evenodd" clip-rule="evenodd" d="M44.3188 30.8276C46.3525 35.5671 50.4914 37.2273 54.0609 36.415C56.8657 35.7765 60.5169 29.8895 60.388 27.1707C60.0025 19.0155 51.0366 3.47932 46.1572 2.44739C42.2149 5.48735 41.0979 23.3184 44.3188 30.8276Z" fill="#FEDEA6"/>
<path d="M52.3094 36.8186C50.9995 36.8186 49.6961 36.5025 48.5165 35.8869C46.6155 34.8944 45.0976 33.1732 44.1261 30.9088C42.6209 27.3992 41.9366 21.2837 42.3426 14.9474C42.6618 9.95271 43.798 4.00226 46.0283 2.28109L46.1049 2.22144L46.1993 2.24174C51.191 3.2978 60.2055 18.9 60.5961 27.1593C60.7314 30.0177 57.0023 35.9568 54.1069 36.6168C53.5158 36.7526 52.912 36.8186 52.3094 36.8186ZM46.2096 2.67204C44.4733 4.11522 43.1558 8.80654 42.7613 14.974C42.3605 21.2494 43.0307 27.2925 44.5116 30.745C46.2325 34.756 49.4459 36.3959 52.349 36.3959C52.9209 36.3959 53.4801 36.3325 54.015 36.2106C56.7023 35.5988 60.3063 29.8438 60.1799 27.1783C60.0037 23.4402 57.933 17.717 54.7771 12.24C51.6825 6.86959 48.4131 3.22291 46.2096 2.67204Z" fill="#F5C371"/>
<path d="M46.2926 2.37786L45.8846 2.47168L53.7909 36.4401L54.1989 36.3463L46.2926 2.37786Z" fill="#F9CF88"/>
<path d="M49.2659 15.4818L48.9276 15.2355C48.9531 15.2013 51.4835 11.7615 53.1852 9.49072L53.521 9.73951C51.8205 12.009 49.2915 15.4475 49.2659 15.4818Z" fill="#F9CF88"/>
<path d="M54.3212 11.2816L49.3677 17.0675L49.6865 17.3374L54.6401 11.5515L54.3212 11.2816Z" fill="#F9CF88"/>
<path d="M42.4857 19.513L42.2808 19.8761L51.1576 24.8289L51.3625 24.4658L42.4857 19.513Z" fill="#F9CF88"/>
<path d="M59.533 23.1928L52.4681 30.3484L52.767 30.64L59.8318 23.4844L59.533 23.1928Z" fill="#F9CF88"/>
<path d="M42.924 25.2343L42.7771 25.6241L52.1827 29.1261L52.3296 28.7362L42.924 25.2343Z" fill="#F9CF88"/>
<path d="M48.1539 12.061C47.4263 11.4009 45.5087 9.65184 43.4291 7.6527L43.7202 7.35315C45.796 9.34721 47.7109 11.0938 48.4374 11.7525L48.1539 12.061Z" fill="#F9CF88"/>
<path fill-rule="evenodd" clip-rule="evenodd" d="M44.8054 26.328C44.0381 25.555 43.2032 24.7794 42.3159 24.0102C34.0816 16.8717 21.3802 10.298 16.7038 11.7806C14.2488 17.6701 24.2641 38.4231 32.667 44.7683C37.9715 48.7729 43.6551 48.0062 47.12 44.8406C47.7008 44.3101 48.2192 43.7109 48.6634 43.0573C50.8682 39.8079 51.2346 35.1711 48.2651 30.5166C47.4072 29.1686 46.2212 27.7534 44.8054 26.328Z" fill="#FEDEA6"/>
<path d="M40.2196 47.7079C37.5974 47.7079 34.9509 46.7534 32.5406 44.9345C28.6327 41.9834 23.9896 35.5696 20.4252 28.1938C17.6242 22.3994 15.1245 15.0248 16.5097 11.7005L16.5467 11.6117L16.6399 11.5825C18.8855 10.8704 23.0155 11.8985 28.2676 14.4765C33.2006 16.8983 38.371 20.3165 42.4525 23.854C43.3538 24.6359 44.1951 25.4191 44.9534 26.1819C46.4292 27.667 47.6024 29.0873 48.4425 30.4036C51.1911 34.7129 51.3379 39.4854 48.837 43.1727C48.3863 43.8378 47.8552 44.4509 47.2616 44.9929C45.4436 46.6531 43.0755 47.6152 40.5898 47.7015C40.4673 47.7054 40.3434 47.7079 40.2196 47.7079ZM16.8608 11.9506C15.8152 14.672 17.3178 20.8052 20.8018 28.0135C24.3394 35.3323 28.9353 41.6889 32.7933 44.6019C38.1936 48.6789 43.8083 47.5822 46.9782 44.687C47.5488 44.1653 48.0569 43.5776 48.4897 42.9404C50.8949 39.3953 50.7443 34.7928 48.0889 30.627C47.2654 29.3361 46.11 27.9386 44.6559 26.4751C43.9053 25.7199 43.0716 24.9431 42.178 24.1688C34.3228 17.3578 21.6176 10.5848 16.8608 11.9506Z" fill="#F5C371"/>
<path d="M16.8584 11.6396L16.5494 11.9207L46.9679 44.9821L47.2769 44.7011L16.8584 11.6396Z" fill="#F5C371"/>
<path d="M19.077 24.8745L19.0616 24.4582C22.718 24.3198 28.2241 24.1612 28.279 24.1599L28.2905 24.5762C28.2356 24.5788 22.732 24.7374 19.077 24.8745Z" fill="#F5C371"/>
<path d="M29.9157 25.9587L20.1465 26.9606L20.1894 27.3747L29.9586 26.3728L29.9157 25.9587Z" fill="#F5C371"/>
<path d="M37.5889 20.44L36.3986 33.3918L36.8156 33.4297L38.0059 20.4779L37.5889 20.44Z" fill="#F5C371"/>
<path d="M41.8032 38.8982L29.0371 41.1249L29.1095 41.535L41.8756 39.3083L41.8032 38.8982Z" fill="#F5C371"/>
<path d="M43.355 25.0729L40.2367 37.5256L40.643 37.6262L43.7613 25.1735L43.355 25.0729Z" fill="#F5C371"/>
<path d="M24.988 21.0388C24.8156 19.7923 24.3484 16.4998 23.7382 12.8683L24.1518 12.7998C24.7633 16.4363 25.2318 19.734 25.4042 20.9829L24.988 21.0388Z" fill="#F5C371"/>
<path fill-rule="evenodd" clip-rule="evenodd" d="M112.072 93.8867C106.988 92.8788 103.275 95.34 101.934 98.7277C100.881 101.389 103.707 107.709 106.037 109.139C113.024 113.426 130.984 114.839 134.596 111.416C134.297 106.465 120.125 95.4822 112.072 93.8867Z" fill="#FEDEA6"/>
<path d="M125.487 113.54C118.736 113.54 110.268 111.98 105.927 109.316C103.479 107.813 100.652 101.4 101.74 98.6516C102.447 96.8645 103.784 95.3806 105.502 94.4756C107.399 93.4754 109.685 93.2025 112.114 93.6836C115.878 94.4287 121.34 97.3214 126.372 101.231C130.338 104.313 134.637 108.604 134.806 111.407L134.813 111.503L134.743 111.571C133.312 112.921 129.739 113.54 125.487 113.54ZM109.844 93.8689C105.883 93.8689 103.166 96.1816 102.128 98.8039C101.12 101.355 103.862 107.561 106.146 108.962C109.349 110.927 115.269 112.459 121.598 112.962C127.805 113.454 132.678 112.83 134.379 111.332C134.16 109.092 131.01 105.362 126.113 101.557C121.13 97.6857 115.733 94.8247 112.031 94.091C111.266 93.9387 110.536 93.8689 109.844 93.8689Z" fill="#F5C371"/>
<path d="M102.071 98.495L101.918 98.8828L134.58 111.574L134.732 111.186L102.071 98.495Z" fill="#F5C371"/>
<path d="M124.384 113.342C123.461 110.665 122.034 106.649 122.02 106.609L122.414 106.47C122.428 106.511 123.855 110.528 124.78 113.208L124.384 113.342Z" fill="#F5C371"/>
<path d="M120.642 105.792L120.238 105.902L122.245 113.233L122.649 113.124L120.642 105.792Z" fill="#F5C371"/>
<path d="M122.314 98.4004L113.191 102.889L113.376 103.262L122.499 98.7735L122.314 98.4004Z" fill="#F5C371"/>
<path d="M107.87 100.845L107.46 100.925L109.412 110.763L109.823 110.682L107.87 100.845Z" fill="#F5C371"/>
<path d="M117.266 95.5538L109.049 101.297L109.29 101.637L117.506 95.8944L117.266 95.5538Z" fill="#F5C371"/>
<path d="M125.583 108.032L125.487 107.627C126.448 107.401 128.989 106.814 131.814 106.237L131.898 106.644C129.079 107.221 126.543 107.807 125.583 108.032Z" fill="#F5C371"/>
<path fill-rule="evenodd" clip-rule="evenodd" d="M111.18 87.7547C106.805 90.5179 105.829 94.8475 107.214 98.2187C108.303 100.866 114.738 103.495 117.415 102.928C125.446 101.228 139.411 89.9125 139.645 84.9572C135.989 81.5821 118.111 83.3769 111.18 87.7547Z" fill="#FEDEA6"/>
<path d="M116.566 103.215C113.458 103.215 108.039 100.771 107.022 98.2975C106.291 96.5192 106.226 94.5289 106.839 92.6935C107.516 90.6677 108.977 88.8996 111.069 87.5795C114.307 85.5334 120.267 83.8719 126.621 83.2423C131.63 82.7461 137.72 82.8958 139.789 84.8049L139.861 84.8709L139.856 84.9673C139.616 90.0356 125.593 101.41 117.459 103.131C117.191 103.188 116.891 103.215 116.566 103.215ZM131.418 83.4061C129.957 83.4061 128.358 83.4886 126.662 83.6561C120.369 84.2794 114.48 85.918 111.293 87.9311C106.862 90.7299 106.15 95.076 107.41 98.1401C108.453 100.677 114.748 103.279 117.373 102.724C121.053 101.944 126.399 98.9854 131.324 95.0011C136.153 91.0942 139.243 87.2952 139.432 85.0447C138.186 83.9785 135.281 83.4061 131.418 83.4061Z" fill="#F5C371"/>
<path d="M139.573 84.6909L107.143 97.9536L107.303 98.3386L139.733 85.076L139.573 84.6909Z" fill="#F5C371"/>
<path d="M133.601 93.3637C131.074 92.0626 127.251 90.1396 127.213 90.1193L127.402 89.7474C127.44 89.7665 131.264 91.6907 133.793 92.993L133.601 93.3637Z" fill="#F5C371"/>
<path d="M125.654 90.4811L125.438 90.8376L131.982 94.7605L132.198 94.4039L125.654 90.4811Z" fill="#F5C371"/>
<path d="M121.714 83.9751L118.236 93.486L118.629 93.6282L122.107 84.1174L121.714 83.9751Z" fill="#F5C371"/>
<path d="M112.973 95.6715L112.732 96.012L120.979 101.784L121.22 101.443L112.973 95.6715Z" fill="#F5C371"/>
<path d="M116.091 85.4004L114.14 95.1952L114.551 95.2761L116.502 85.4813L116.091 85.4004Z" fill="#F5C371"/>
<path d="M130.777 88.7004L130.426 88.4732C130.964 87.6507 132.392 85.4814 134.035 83.1218L134.38 83.3592C132.741 85.715 131.315 87.8791 130.777 88.7004Z" fill="#F5C371"/>
<path fill-rule="evenodd" clip-rule="evenodd" d="M59.4999 43C23.4999 30.0001 5.46124 38.0285 1.26672 64.4616C-2.92781 90.8947 22.3462 116.323 59.5001 121.5C89.2611 125.647 119.5 107 124.5 63.0001C129.5 19.0001 95.4999 56 59.4999 43Z" fill="#F5C371"/>
<path fill-rule="evenodd" clip-rule="evenodd" d="M54.9717 42.7314C54.6423 42.7885 54.3142 42.852 53.9862 42.918C53.1448 43.0855 52.3061 43.2683 51.4712 43.4638C50.3005 43.738 49.1362 44.0375 47.9808 44.3675C46.6633 44.7432 45.356 45.1583 44.0692 45.6292C42.6929 46.1331 41.3231 46.7043 40.0247 47.3846C39.9979 47.3986 39.966 47.3885 39.952 47.3618C39.9379 47.3351 39.9481 47.3034 39.975 47.2894C41.2771 46.6053 42.6508 46.0328 44.0321 45.5277C45.3203 45.0568 46.6314 44.6404 47.9502 44.2635C49.1068 43.9334 50.2737 43.6326 51.4456 43.3584C52.2818 43.163 53.1219 42.9789 53.9644 42.8126C54.2925 42.7479 54.6219 42.6832 54.9526 42.6261C54.9819 42.621 55.01 42.64 55.0151 42.6692C55.0215 42.6984 55.0011 42.7263 54.9717 42.7314Z" fill="white"/>
<path d="M40.0001 47.4185C39.9708 47.4185 39.9427 47.4033 39.9273 47.3753C39.9171 47.3563 39.9146 47.3347 39.921 47.3131C39.9273 47.2928 39.9414 47.2751 39.9605 47.2649C41.1351 46.648 42.4628 46.0718 44.0215 45.5018C45.2395 45.0563 46.5225 44.6425 47.9421 44.2376C49.063 43.9178 50.2401 43.6131 51.4389 43.3326C52.298 43.1321 53.1457 42.948 53.959 42.7868C54.2564 42.7272 54.6037 42.6599 54.9471 42.6002C54.9688 42.5964 54.9905 42.6015 55.0084 42.6142C55.0262 42.6269 55.0377 42.6459 55.0416 42.6662C55.0454 42.6878 55.0403 42.7094 55.0275 42.7272C55.0148 42.7449 54.9956 42.7564 54.9752 42.7602C54.6369 42.8186 54.2896 42.8871 53.9909 42.9455C53.1789 43.1067 52.3338 43.2895 51.4772 43.4913C50.2822 43.7705 49.1077 44.0752 47.9881 44.395C46.571 44.7999 45.2931 45.2124 44.079 45.6554C42.5279 46.2228 41.2065 46.7965 40.0384 47.4096C40.0269 47.4147 40.0129 47.4185 40.0001 47.4185ZM54.9624 42.6523C54.9611 42.6523 54.9599 42.6523 54.9573 42.6523C54.6139 42.7119 54.2679 42.7792 53.9705 42.8389C53.1585 43.0001 52.3121 43.1841 51.4529 43.3847C50.2554 43.6652 49.0796 43.9698 47.9587 44.2897C46.5404 44.6946 45.2586 45.1084 44.042 45.5526C42.4857 46.1225 41.1593 46.6975 39.9873 47.3131C39.981 47.3157 39.9771 47.322 39.9746 47.3284C39.972 47.3347 39.9733 47.3423 39.9759 47.3487C39.9822 47.3614 39.9988 47.3664 40.0116 47.3588C41.1823 46.7445 42.5062 46.1695 44.0598 45.6009C45.2752 45.1566 46.5544 44.7441 47.9728 44.3392C49.0937 44.0193 50.2682 43.7147 51.4644 43.4354C52.3223 43.2349 53.1687 43.0508 53.9807 42.8896C54.2794 42.83 54.6266 42.7627 54.9662 42.703C54.9726 42.7018 54.979 42.698 54.9828 42.6929C54.9867 42.6878 54.9879 42.6802 54.9867 42.6739C54.9854 42.6675 54.9816 42.6612 54.9764 42.6574C54.9726 42.6535 54.9675 42.6523 54.9624 42.6523Z" fill="white"/>
<path fill-rule="evenodd" clip-rule="evenodd" d="M87.3765 30.9709C90.1991 26.093 92.1013 20.9791 92.6873 19.315C92.8763 17.4123 89.6757 11.3426 89.6757 11.3426C86.8748 11.4898 77.1441 11.9277 72.9312 11.1864C72.9312 11.1864 70.3039 9.67218 68.2485 11.3756C66.1931 13.079 69.7332 15.4259 69.7332 15.4259L54.9624 42.6777C63.3372 52.3674 70.4941 47.0681 70.4941 47.0681L72.6261 40.709C77.5067 42.7792 81.9137 39.0716 85.3619 34.1455C85.9709 33.1846 86.6705 32.0663 87.3765 30.9709Z" fill="#FDBCA0"/>
<path fill-rule="evenodd" clip-rule="evenodd" d="M77.2513 111.155L73.235 116.599L91.3557 116.675C87.3215 113.42 77.2513 111.155 77.2513 111.155Z" fill="#FDBCA0"/>
<path fill-rule="evenodd" clip-rule="evenodd" d="M87.3765 30.9709C86.7496 32.0549 86.0768 33.1262 85.3632 34.1467C83.3027 37.4037 82.6771 39.6123 82.6771 40.5211C82.6771 41.4299 83.138 44.3684 83.138 44.3684L88.5395 44.2541C88.5395 44.2541 88.5395 41.3538 88.9953 39.9157C89.4523 38.4776 92.3452 26.1387 91.4311 25.9864C91.2192 25.9509 90.8898 26.1971 90.4825 26.635C90.4966 26.6439 90.1532 27.0133 89.9502 27.2595C89.197 28.2051 88.2803 29.5696 87.3765 30.9709Z" fill="#FDBCA0"/>
<path fill-rule="evenodd" clip-rule="evenodd" d="M69.1243 2.06528C59.2264 7.66667 40.0001 47.3359 40.0001 47.3359C45.8855 44.2465 54.9624 42.6776 54.9624 42.6776L69.7332 15.4259C69.7332 15.4259 66.1931 13.0789 68.2485 11.3756C70.3039 9.67216 72.9312 11.1864 72.9312 11.1864C77.1442 11.9277 86.8748 11.4885 89.6757 11.3426C89.6757 11.3426 92.8763 17.4123 92.6874 19.315C92.1001 20.979 90.1992 26.0943 87.3765 30.9709C89.0617 28.3575 90.789 25.8798 91.4324 25.9864C92.3465 26.1375 89.4523 38.4775 88.9966 39.9156C88.5395 41.3538 88.5408 44.2541 88.5408 44.2541L89.6821 44.23C89.6821 44.23 90.2439 49.4163 90.9166 56.8328C91.232 60.3005 91.5703 64.2569 91.8882 68.3974C92.9733 67.0024 95.3517 63.706 95.4692 61.4899C95.6211 58.6136 98.3621 34.9946 97.1441 18.9469C95.9249 2.89793 88.9966 4.03395 88.9966 4.03395C88.9966 4.03395 79.0221 -3.53612 69.1243 2.06528Z" fill="#3F4553"/>
<path fill-rule="evenodd" clip-rule="evenodd" d="M85.3631 34.1467C81.9149 39.0729 77.5079 42.7805 72.6272 40.7103L70.4952 47.0694C70.4952 47.0694 79.262 50.2883 81.237 54.5265C81.92 48.4047 82.5251 44.3823 82.5251 44.3823L83.1392 44.3696C83.1392 44.3696 82.6783 41.4299 82.6783 40.5224C82.677 39.6123 83.3013 37.4037 85.3631 34.1467Z" fill="#3F4553"/>
<path fill-rule="evenodd" clip-rule="evenodd" d="M36.3451 97.0986C34.8258 96.9641 33.2671 96.8549 31.6712 96.7724C32.6887 95.677 34.1288 92.8846 35.6582 89.4727C35.8612 91.7905 36.1765 95.2556 36.3451 97.0986ZM37.2987 49.0749C32.1206 53.3143 8.66989 89.6504 16.8928 107.516C16.8928 107.516 23.2888 113.875 73.2351 116.6L77.2514 111.156L78.2612 109.788C78.2612 109.788 74.8896 107.441 68.4132 104.728C68.4132 104.728 70.0639 101.124 71.9865 96.8029C71.9865 96.8029 78.8715 109.486 85.1143 112.967C76.8212 104.945 79.3323 71.5871 81.2371 54.5278C79.2634 50.2896 70.4954 47.0707 70.4954 47.0707C70.4954 47.0707 63.3385 52.37 54.9637 42.6802C54.9637 42.6802 45.8867 44.249 40.0014 47.3385C38.9826 47.8703 38.0609 48.4504 37.2987 49.0749Z" fill="#63A6DC"/>
<path fill-rule="evenodd" clip-rule="evenodd" d="M81.2359 54.5264C79.3311 71.5858 76.8199 104.944 85.113 112.966C85.113 112.966 91.3558 118.113 92.8789 102.974C93.6308 95.4967 92.8597 81.0788 91.8869 68.3986C91.569 64.2581 91.2307 60.3017 90.9154 56.834C90.2426 49.4175 89.6809 44.2312 89.6809 44.2312L88.5395 44.2553L83.1381 44.3696L82.524 44.3822C82.524 44.3822 81.9189 48.4046 81.2359 54.5264Z" fill="#63A6DC"/>
<path fill-rule="evenodd" clip-rule="evenodd" d="M73.4392 65.1086C73.6997 66.0149 73.9575 66.9212 74.2142 67.8287C74.7721 69.8025 75.3236 71.7788 75.861 73.7589C76.3564 75.5777 76.8441 77.4017 77.2947 79.232C77.4581 79.8984 77.619 80.5699 77.7582 81.2426C77.8054 81.4736 77.8514 81.7059 77.8871 81.9382C77.9088 82.0803 77.9331 82.239 77.9331 82.3837C77.9331 82.5373 77.8731 82.7505 77.8322 82.899C77.7505 83.191 77.6509 83.4804 77.5501 83.766C77.2398 84.643 76.8913 85.5125 76.5415 86.3744C76.0742 87.5231 75.5929 88.6654 75.1053 89.8053C74.5576 91.0873 74.0009 92.3654 73.4418 93.6411C72.9758 94.7035 72.506 95.7646 72.0336 96.8245C72.0221 96.8511 71.9902 96.8638 71.9621 96.8524C71.9353 96.841 71.9225 96.8092 71.934 96.7813C72.4051 95.7214 72.8749 94.6603 73.3409 93.5979C73.9014 92.3223 74.4567 91.0441 75.0044 89.7621C75.4908 88.6223 75.9734 87.4812 76.4394 86.3325C76.7892 85.4719 77.1364 84.6037 77.4467 83.7292C77.5475 83.4461 77.6458 83.158 77.7262 82.8698C77.7645 82.734 77.8233 82.5259 77.8233 82.3837C77.8233 82.2454 77.8003 82.0918 77.7786 81.9547C77.7428 81.7237 77.6969 81.4927 77.6496 81.2642C77.5118 80.5927 77.3509 79.9238 77.1875 79.2574C76.7381 77.4284 76.2491 75.6044 75.7551 73.7868C75.2163 71.8079 74.6661 69.8317 74.1082 67.8579C73.8516 66.9504 73.595 66.0441 73.3333 65.1378C73.3256 65.1099 73.3422 65.0794 73.3703 65.0718C73.4022 65.0642 73.4316 65.0807 73.4392 65.1086Z" fill="#A7D1F3"/>
<path d="M71.9852 96.8829C71.9737 96.8829 71.9635 96.8803 71.952 96.8753C71.9112 96.8575 71.892 96.8093 71.9099 96.7674C72.4103 95.6441 72.8699 94.6032 73.3168 93.584C73.9372 92.1687 74.4823 90.9147 74.9802 89.7494C75.5534 88.4078 76.0105 87.3175 76.4152 86.3211C76.7343 85.5354 77.102 84.6215 77.4212 83.719C77.5169 83.4474 77.6178 83.1554 77.7007 82.861C77.739 82.7239 77.7965 82.5195 77.7965 82.3824C77.7965 82.2441 77.7722 82.0854 77.7518 81.9572C77.7135 81.7123 77.6663 81.4711 77.6242 81.268C77.4837 80.5902 77.319 79.9035 77.162 79.2625C76.7075 77.4132 76.2045 75.5397 75.7296 73.7918C75.2368 71.978 74.6981 70.0385 74.0827 67.863C73.8402 67.0049 73.5785 66.0809 73.3078 65.1441C73.3014 65.1238 73.304 65.101 73.3155 65.0819C73.3257 65.0629 73.3436 65.0489 73.364 65.0426C73.3844 65.0362 73.4074 65.0388 73.4266 65.0502C73.4457 65.0604 73.4597 65.0781 73.4661 65.0984C73.7419 66.0542 74.0125 67.01 74.2411 67.8185C74.8551 69.9916 75.3939 71.9311 75.8879 73.7487C76.3641 75.4978 76.8671 77.3725 77.3216 79.2232C77.4799 79.8654 77.6446 80.5547 77.785 81.2337C77.8271 81.4394 77.8756 81.6831 77.9139 81.9306C77.9331 82.0562 77.9599 82.2289 77.9599 82.3799C77.9599 82.5386 77.8986 82.7569 77.8578 82.9016C77.7735 83.2011 77.6727 83.4956 77.5756 83.7698C77.2552 84.6761 76.8863 85.5925 76.5671 86.3795C76.1624 87.3771 75.7054 88.4674 75.1309 89.8104C74.6304 90.9794 74.0866 92.2347 73.4661 93.6474C73.0193 94.6642 72.5597 95.7062 72.058 96.8308C72.0465 96.8651 72.0171 96.8829 71.9852 96.8829ZM73.3883 65.0972C73.3857 65.0972 73.3831 65.0972 73.3806 65.0984C73.3742 65.101 73.3678 65.1048 73.3653 65.1111C73.3614 65.1175 73.3614 65.1238 73.3627 65.1302C73.6334 66.0682 73.8951 66.991 74.1376 67.8503C74.753 70.0258 75.2917 71.9653 75.7845 73.7792C76.2594 75.527 76.7624 77.4005 77.2169 79.2511C77.3739 79.8921 77.5399 80.5788 77.679 81.2578C77.7212 81.4622 77.7697 81.7034 77.808 81.9496C77.8284 82.0791 77.8527 82.239 77.8527 82.3824C77.8527 82.5271 77.7939 82.7353 77.7556 82.8737C77.6714 83.1719 77.5705 83.4651 77.4748 83.738C77.1543 84.6418 76.7867 85.557 76.4675 86.3426C76.0628 87.3403 75.6058 88.4294 75.0326 89.7723C74.5334 90.9388 73.9896 92.1928 73.3691 93.6081C72.9223 94.6273 72.4614 95.6682 71.9622 96.7915C71.9559 96.8042 71.9622 96.8194 71.975 96.8258C71.9878 96.8308 72.0031 96.8258 72.0095 96.8131C72.5099 95.6885 72.9708 94.6464 73.4163 93.6297C74.0355 92.2182 74.5806 90.9629 75.0798 89.7939C75.6543 88.4509 76.1101 87.3606 76.516 86.363C76.8352 85.576 77.2041 84.6608 77.5246 83.7558C77.6216 83.4829 77.7225 83.1884 77.8067 82.8914C77.8463 82.7493 77.9063 82.536 77.9063 82.3837C77.9063 82.2365 77.8795 82.0664 77.8603 81.9433C77.822 81.697 77.7735 81.4533 77.7314 81.249C77.591 80.5699 77.4263 79.8819 77.268 79.2397C76.8135 77.389 76.3105 75.5155 75.8343 73.7665C75.3402 71.9501 74.8015 70.0106 74.1874 67.8376C73.9589 67.029 73.6883 66.0733 73.4125 65.1175C73.4112 65.1111 73.4061 65.1061 73.3997 65.1022C73.3972 65.0984 73.3921 65.0972 73.3883 65.0972Z" fill="#A7D1F3"/>
<path fill-rule="evenodd" clip-rule="evenodd" d="M31.7886 96.7243C37.5067 97.02 43.207 97.6953 48.8242 98.7945C54.2934 99.8645 59.7038 101.339 64.9278 103.275C66.8696 103.995 68.7897 104.779 70.674 105.636C72.0835 106.277 73.475 106.96 74.8385 107.694C75.7015 108.158 76.5556 108.643 77.3892 109.158C77.6918 109.346 77.9994 109.539 78.2918 109.742C78.3046 109.751 78.3122 109.762 78.3135 109.778C78.3161 109.793 78.3122 109.806 78.3033 109.818L73.2784 116.632C73.2605 116.656 73.2273 116.661 73.2031 116.643C73.1788 116.626 73.1737 116.593 73.1916 116.568L78.1846 109.799C77.9075 109.609 77.6177 109.426 77.3318 109.25C76.5007 108.736 75.6479 108.251 74.7874 107.787C73.4265 107.055 72.0362 106.373 70.6294 105.734C68.7476 104.877 66.8301 104.094 64.8908 103.375C59.6719 101.442 54.2666 99.9699 48.8038 98.8999C43.1572 97.7943 37.4276 97.1178 31.6788 96.8258C31.6725 96.8271 31.6661 96.8258 31.6597 96.8246C30.0371 96.7421 28.4145 96.69 26.7906 96.6685C26.7612 96.6685 26.7369 96.6431 26.7369 96.6139C26.7369 96.5847 26.7625 96.5606 26.7918 96.5606C28.4119 96.5821 30.0307 96.6342 31.6495 96.7167C31.8729 96.473 32.0746 96.1975 32.261 95.9259C32.5138 95.5553 32.7487 95.1694 32.9734 94.781C33.5542 93.7745 34.0802 92.7248 34.5819 91.6776C35.1947 90.3981 35.7756 89.1022 36.3386 87.7999C36.9527 86.3808 37.5476 84.9529 38.1297 83.5198C39.4613 80.2438 40.7328 76.9398 41.9673 73.6257C42.5342 72.1013 43.0985 70.5743 43.6436 69.0423C43.6538 69.0143 43.6844 68.9991 43.7125 69.0093C43.7406 69.0194 43.7559 69.0499 43.7457 69.0778C43.2006 70.6098 42.6376 72.1381 42.0695 73.6625C40.835 76.9779 39.5634 80.2819 38.2319 83.5604C37.6497 84.9935 37.0548 86.4227 36.4395 87.8418C35.8752 89.1441 35.2943 90.4413 34.6815 91.722C34.1785 92.7717 33.6513 93.824 33.0691 94.833C32.8431 95.224 32.6082 95.6124 32.3529 95.9856C32.178 96.2382 31.9916 96.4933 31.7886 96.7243Z" fill="#A7D1F3"/>
<path fill-rule="evenodd" clip-rule="evenodd" d="M72.9196 11.2397C72.9145 11.2384 72.9094 11.2371 72.9042 11.2333C72.7664 11.1534 72.6068 11.0836 72.4613 11.0226C72.1038 10.8741 71.7259 10.7612 71.3455 10.6926C70.2348 10.4921 69.1662 10.6875 68.2841 11.4187C67.9126 11.7271 67.6534 12.1168 67.6598 12.6118C67.6662 13.1094 67.9394 13.593 68.2368 13.9776C68.5215 14.3469 68.87 14.6833 69.2301 14.979C69.3986 15.1186 69.5811 15.2608 69.7637 15.3814C69.788 15.3979 69.7956 15.4309 69.779 15.4563C69.7624 15.4804 69.7292 15.488 69.7037 15.4715C69.5173 15.3484 69.3322 15.2037 69.1611 15.0615C68.7947 14.7594 68.4411 14.418 68.1513 14.0423C67.4517 13.1373 67.2347 12.1485 68.2151 11.3349C69.1215 10.5835 70.2233 10.3804 71.3646 10.586C71.7527 10.6558 72.1383 10.7713 72.5034 10.9224C72.6515 10.9833 72.8111 11.0544 72.9515 11.1343C73.4724 11.2257 73.9996 11.2879 74.5256 11.3374C75.1537 11.3971 75.7844 11.4377 76.4137 11.4682C77.8398 11.5367 79.2709 11.5557 80.6982 11.5519C82.9221 11.5469 85.1498 11.4872 87.3725 11.3958C88.1359 11.3641 88.9006 11.3311 89.6641 11.2905C89.6717 11.2892 89.6781 11.2879 89.6858 11.2892C89.9385 11.2752 90.19 11.2613 90.4415 11.246C90.4709 11.2448 90.4964 11.2663 90.499 11.2968C90.5003 11.326 90.4786 11.3514 90.4479 11.3539C90.2207 11.3679 89.9922 11.3806 89.7649 11.3933C89.9692 11.7829 90.1658 12.1777 90.3598 12.5724C90.8079 13.4851 91.2369 14.4091 91.6301 15.3459C91.9378 16.0795 92.2327 16.8347 92.4599 17.5963C92.5774 17.9911 92.7216 18.5229 92.7484 18.9849C92.7765 18.9037 92.8046 18.8212 92.8314 18.7399C92.8404 18.712 92.871 18.6968 92.8991 18.7057C92.9272 18.7146 92.9425 18.745 92.9336 18.7729C92.8723 18.9595 92.8072 19.1461 92.7408 19.3314C92.7408 19.3327 92.7408 19.3327 92.7395 19.334C92.7357 19.3441 92.728 19.353 92.7191 19.3594C92.7089 19.3657 92.6974 19.3695 92.6846 19.3682C92.6795 19.3682 92.6744 19.367 92.6706 19.3644C92.6604 19.3606 92.6514 19.353 92.645 19.3441C92.6386 19.334 92.6348 19.3226 92.6361 19.3099C92.6591 19.0738 92.6284 18.8123 92.5889 18.5787C92.534 18.2589 92.4497 17.939 92.3565 17.628C92.1293 16.8703 91.8369 16.1176 91.5305 15.3877C91.1386 14.4523 90.7096 13.5295 90.2628 12.6194C90.0624 12.2107 89.8581 11.802 89.6475 11.3996C88.8917 11.4402 88.1334 11.4732 87.3776 11.5037C85.1537 11.5951 82.9246 11.6547 80.6994 11.6598C79.2709 11.6636 77.8372 11.6446 76.4099 11.576C75.778 11.5456 75.146 11.505 74.5166 11.4453C73.9843 11.3945 73.4507 11.3323 72.9247 11.2397C72.9208 11.2397 72.9208 11.2397 72.9196 11.2397Z" fill="white"/>
<path d="M92.6873 19.3962C92.6847 19.3962 92.6821 19.3962 92.6783 19.3962C92.6707 19.395 92.663 19.3937 92.6566 19.3912C92.6413 19.3848 92.6273 19.3747 92.6183 19.3594C92.6081 19.3442 92.603 19.3252 92.6055 19.3074C92.6247 19.1132 92.6094 18.8822 92.5583 18.5839C92.5098 18.3046 92.437 18.0038 92.3272 17.637C92.1332 16.9871 91.8791 16.2979 91.5025 15.4005C91.1425 14.5437 90.7289 13.6387 90.2361 12.6334C90.0727 12.3009 89.8569 11.8655 89.6284 11.4301C88.9773 11.4644 88.2815 11.4961 87.3764 11.5342C84.9252 11.6345 82.7396 11.6853 80.697 11.6903C79.0361 11.6942 77.6726 11.6675 76.4062 11.6066C75.704 11.5723 75.0849 11.5304 74.5116 11.4758C73.8899 11.4175 73.3831 11.3514 72.9171 11.2702H72.9133C72.9056 11.2689 72.8967 11.2651 72.8903 11.2613C72.7409 11.175 72.5673 11.1001 72.4499 11.0519C72.086 10.9008 71.7119 10.7904 71.3392 10.7231C70.1736 10.5124 69.1229 10.7612 68.3008 11.4428C67.8871 11.7855 67.6803 12.179 67.6867 12.6144C67.6918 13.0269 67.8846 13.4801 68.2573 13.9637C68.5139 14.2962 68.8472 14.6313 69.2467 14.9613C69.4523 15.1301 69.6208 15.2583 69.7778 15.3624C69.7957 15.3738 69.8085 15.3929 69.8123 15.4145C69.8161 15.436 69.8123 15.4576 69.8008 15.4754C69.7753 15.5122 69.7242 15.5223 69.6872 15.4982C69.5251 15.3903 69.3514 15.2596 69.1421 15.087C68.7323 14.7493 68.3914 14.4054 68.1271 14.0627C67.2986 12.9901 67.3216 12.0407 68.1948 11.3172C69.0552 10.6038 70.1519 10.3436 71.3673 10.5619C71.7515 10.6318 72.1371 10.7447 72.5111 10.9008C72.6975 10.9783 72.8405 11.0455 72.958 11.1128C73.415 11.1928 73.9142 11.2575 74.5257 11.3146C75.0938 11.3679 75.7117 11.4111 76.4126 11.4441C77.6752 11.505 79.0361 11.5304 80.6944 11.5279C82.7345 11.5228 84.9176 11.472 87.3675 11.3718C88.2867 11.3337 88.9926 11.3019 89.659 11.2664C89.6642 11.2639 89.6756 11.2639 89.6859 11.2651C89.9323 11.2512 90.1838 11.2372 90.4365 11.222C90.4582 11.2207 90.4799 11.2283 90.4953 11.2423C90.5119 11.2563 90.5221 11.2766 90.5233 11.2981C90.5259 11.3426 90.4914 11.3819 90.4467 11.3844C90.2335 11.3971 90.0203 11.4098 89.8059 11.4213C89.9757 11.7462 90.1544 12.1016 90.3804 12.5636C90.8744 13.5702 91.2893 14.4777 91.6506 15.3396C92.0298 16.2433 92.2864 16.9389 92.4817 17.5926C92.5826 17.9289 92.7153 18.4113 92.76 18.853C92.7728 18.8136 92.7868 18.7743 92.7996 18.7349C92.806 18.7146 92.8213 18.6981 92.8405 18.688C92.8596 18.6778 92.8826 18.6765 92.903 18.6829C92.9234 18.6892 92.94 18.7045 92.9502 18.7235C92.9605 18.7426 92.9617 18.7654 92.9553 18.7857C92.8928 18.9748 92.8264 19.1652 92.7626 19.3442C92.7549 19.3632 92.7447 19.3759 92.7294 19.3861C92.7192 19.3912 92.7039 19.3962 92.6873 19.3962ZM89.6616 11.3705L89.6705 11.387C89.9029 11.8287 90.1212 12.2717 90.2872 12.608C90.7799 13.6133 91.1949 14.5196 91.5549 15.3777C91.9328 16.2776 92.1868 16.9693 92.3821 17.6205C92.4919 17.9899 92.566 18.2932 92.6145 18.575C92.6668 18.8796 92.6821 19.1132 92.663 19.3137C92.663 19.3201 92.6643 19.3252 92.6668 19.3302C92.6694 19.3353 92.6745 19.3378 92.6796 19.3404L92.6873 19.3417C92.6949 19.3417 92.7 19.3404 92.7039 19.3379C92.709 19.3353 92.7115 19.3302 92.7141 19.3252C92.7779 19.1449 92.8443 18.9558 92.9068 18.7654C92.9094 18.7591 92.9081 18.7514 92.9056 18.7451C92.903 18.7387 92.8966 18.7337 92.8902 18.7324C92.8839 18.7299 92.8762 18.7311 92.8698 18.7337C92.8634 18.7362 92.8583 18.7426 92.8571 18.7489C92.8302 18.8314 92.8022 18.9126 92.7741 18.9951L92.7281 19.1284L92.7204 18.9875C92.6936 18.5179 92.543 17.9734 92.4332 17.6053C92.2379 16.9528 91.9825 16.2598 91.6047 15.3573C91.2434 14.4968 90.8285 13.5905 90.3357 12.5852C90.1008 12.1054 89.9169 11.7411 89.742 11.406L89.7216 11.3679L89.765 11.3654C89.9923 11.3527 90.2208 11.34 90.448 11.3261C90.4621 11.3248 90.4736 11.3134 90.4723 11.2981C90.4723 11.2918 90.4684 11.2854 90.4633 11.2804C90.4582 11.2753 90.4518 11.2728 90.4442 11.274C90.1927 11.2893 89.9399 11.3032 89.6884 11.3172C89.6795 11.3159 89.6756 11.3159 89.6731 11.3172C89.0016 11.354 88.2956 11.3857 87.3751 11.4238C84.924 11.5241 82.7409 11.5748 80.6995 11.5799C79.0399 11.5837 77.6777 11.5571 76.4138 11.4961C75.7117 11.4619 75.0938 11.42 74.5244 11.3654C73.9091 11.307 73.4086 11.2423 72.9477 11.1623L72.9388 11.1585C72.8226 11.0925 72.6809 11.0252 72.4945 10.9478C72.123 10.7942 71.7426 10.6813 71.3621 10.6127C70.1634 10.3957 69.0821 10.6533 68.2356 11.3553C67.1671 12.2412 67.6139 13.2947 68.1756 14.0233C68.4374 14.3622 68.7757 14.7037 69.1816 15.0387C69.3897 15.2101 69.5621 15.3408 69.7217 15.4462C69.7331 15.4538 69.7497 15.4513 69.7574 15.4386C69.7612 15.4322 69.7625 15.4259 69.7612 15.4195C69.76 15.4132 69.7561 15.4068 69.7497 15.403C69.5914 15.2977 69.4204 15.1695 69.2136 14.9981C68.8101 14.6656 68.4744 14.3267 68.2152 13.9916C67.8335 13.4978 67.6382 13.0333 67.6331 12.6093C67.6267 12.1574 67.8412 11.7487 68.2676 11.3946C69.1025 10.7028 70.1685 10.4502 71.3519 10.6635C71.7285 10.7308 72.1064 10.8437 72.4741 10.996C72.5928 11.0455 72.769 11.1204 72.9209 11.2093C72.9235 11.2106 72.926 11.2118 72.9286 11.2118C73.3946 11.2943 73.8988 11.3591 74.5193 11.4175C75.0912 11.4708 75.7104 11.5139 76.4113 11.5482C77.6764 11.6091 79.0399 11.6358 80.6995 11.632C82.7422 11.6269 84.9265 11.5761 87.3764 11.4758C88.2892 11.439 88.9888 11.406 89.645 11.3718L89.6616 11.3705Z" fill="#F0A38B"/>
<path fill-rule="evenodd" clip-rule="evenodd" d="M81.1991 54.329C81.457 52.0341 81.7366 49.7418 82.0417 47.4532C82.1783 46.4264 82.3175 45.3982 82.4719 44.3739C82.4758 44.3473 82.4975 44.3282 82.5243 44.3282L83.0758 44.3168C82.9724 43.6568 82.8779 42.9929 82.7924 42.3304C82.749 41.9876 82.7068 41.6437 82.6736 41.301C82.6481 41.0458 82.6226 40.778 82.6226 40.5216C82.6226 40.2157 82.6839 39.8844 82.7541 39.5887C82.8651 39.1165 83.0222 38.6494 83.1958 38.1963C83.4371 37.5718 83.7192 36.9612 84.0243 36.3659C84.4188 35.598 84.8542 34.8491 85.3163 34.1193C85.3316 34.0939 85.3661 34.0863 85.3904 34.1028C85.4159 34.118 85.4235 34.1523 85.4069 34.1764C84.9473 34.9037 84.5133 35.6488 84.1201 36.4142C83.8162 37.0069 83.5354 37.6137 83.2954 38.2343C83.123 38.6824 82.9673 39.1457 82.8575 39.6128C82.7898 39.9009 82.7285 40.2246 82.7285 40.5216C82.7285 40.7742 82.7541 41.0382 82.7783 41.2895C82.8115 41.6322 82.8537 41.975 82.8971 42.3164C82.9826 42.9828 83.0771 43.6504 83.1817 44.3143L89.6773 44.1772C89.7054 44.1772 89.7297 44.1975 89.7322 44.2254C89.8599 45.4046 89.9799 46.585 90.0986 47.7655C90.4037 50.7851 90.6923 53.8073 90.9667 56.8295C91.3165 60.6818 91.6421 64.5379 91.9383 68.3941C91.9408 68.4233 91.9178 68.4499 91.8885 68.4512C91.8591 68.4537 91.8323 68.4309 91.831 68.4017C91.5349 64.5456 91.2093 60.6907 90.8595 56.8384C90.585 53.8162 90.2965 50.794 89.9914 47.7744C89.8739 46.6104 89.7552 45.4465 89.6301 44.2838L82.5677 44.4336C82.4158 45.4427 82.2792 46.4556 82.1451 47.4659C81.8336 49.8103 81.5476 52.1585 81.2846 54.5092C81.2898 54.5245 81.2872 54.5397 81.2795 54.5524C81.2476 54.8342 81.217 55.1172 81.1863 55.399C80.7791 59.1181 80.4267 62.8447 80.1395 66.5752C79.8114 70.8375 79.5688 75.1099 79.4488 79.3836C79.3505 82.9123 79.3365 86.4485 79.459 89.9772C79.5178 91.6526 79.6084 93.3294 79.7425 95.001C79.8688 96.5699 80.0323 98.1362 80.2518 99.6936C80.4523 101.119 80.7 102.541 81.0178 103.944C81.3 105.192 81.6396 106.435 82.0698 107.642C82.7349 109.51 83.7013 111.529 85.1478 112.929C85.1695 112.949 85.1695 112.983 85.1491 113.005C85.1286 113.026 85.0942 113.026 85.0725 113.006C83.6133 111.595 82.6392 109.564 81.9677 107.679C81.5361 106.468 81.1953 105.221 80.9119 103.969C80.594 102.561 80.3463 101.137 80.1446 99.7088C79.925 98.1489 79.7603 96.58 79.6352 95.0099C79.5012 93.337 79.4105 91.659 79.3518 89.9822C79.228 86.4523 79.2433 82.9135 79.3416 79.3824C79.4603 75.1074 79.7042 70.8336 80.0323 66.5688C80.3195 62.8371 80.6706 59.1092 81.0791 55.3889C81.111 55.102 81.1429 54.8151 81.1749 54.5283C80.405 52.8947 78.6675 51.4959 77.1904 50.5122C75.7734 49.5679 74.2337 48.7555 72.6852 48.0473C72.163 47.8086 71.6345 47.5802 71.1021 47.3644C70.894 47.2806 70.6846 47.1968 70.474 47.1194C70.4459 47.1093 70.4319 47.0788 70.4421 47.0509L72.5639 40.7222C72.3762 40.4988 72.1975 40.2538 72.029 40.0177C71.5681 39.3716 71.1455 38.6926 70.7587 37.9983C69.5025 35.7427 68.6024 33.2676 68.1556 30.7265C68.1505 30.6973 68.1697 30.6693 68.199 30.6643C68.2284 30.6592 68.2565 30.6782 68.2616 30.7074C68.7071 33.2359 69.6033 35.7008 70.8532 37.9449C71.2374 38.6342 71.6575 39.3107 72.117 39.9542C72.2894 40.1954 72.4732 40.448 72.666 40.6739C72.6724 40.6815 72.6762 40.6892 72.6775 40.698C72.6788 40.7069 72.6788 40.7158 72.6762 40.726L70.5608 47.0356C70.7561 47.108 70.9502 47.1854 71.143 47.2641C71.6766 47.4799 72.2064 47.7096 72.7311 47.9483C74.2861 48.6591 75.8308 49.474 77.2517 50.4208C78.702 51.3881 80.3872 52.7411 81.1991 54.329Z" fill="#F0A38B"/>
<path d="M85.1129 113.047C85.0912 113.047 85.0708 113.04 85.0555 113.025C83.8133 111.822 82.7958 110.077 81.9443 107.687C81.5459 106.568 81.2 105.353 80.8885 103.974C80.591 102.658 80.3395 101.263 80.1212 99.7121C79.9131 98.2347 79.7459 96.6976 79.6106 95.0107C79.4816 93.4101 79.3897 91.7651 79.3271 89.9817C79.2122 86.7082 79.2084 83.2405 79.3169 79.3806C79.4293 75.3404 79.6552 71.1492 80.0076 66.5658C80.2859 62.9457 80.6383 59.1836 81.0544 55.3858C81.0851 55.1015 81.117 54.8172 81.1489 54.5329C80.5285 53.223 79.1931 51.8788 77.1785 50.5346C75.8789 49.6677 74.4057 48.8629 72.6771 48.0722C72.1422 47.8272 71.6098 47.5974 71.0953 47.3905C70.9064 47.3144 70.6855 47.2255 70.4685 47.1456C70.4264 47.1303 70.4047 47.0834 70.42 47.0415L72.5367 40.7267C72.3515 40.5059 72.1741 40.2622 72.0094 40.0324C71.569 39.4156 71.1413 38.7352 70.7379 38.0105C69.4523 35.7029 68.5765 33.2531 68.1322 30.7298C68.1284 30.7082 68.1335 30.6866 68.1463 30.6689C68.159 30.6511 68.1782 30.6397 68.1986 30.6359C68.2433 30.6282 68.2854 30.6574 68.2931 30.7019C68.7335 33.2062 69.6042 35.6394 70.8808 37.9305C71.2817 38.6502 71.7056 39.3242 72.1434 39.9372C72.3145 40.1771 72.4996 40.4297 72.6911 40.6557C72.7001 40.6658 72.7065 40.6785 72.709 40.6925C72.7116 40.7064 72.7116 40.7217 72.7064 40.7344L70.6 47.0186C70.7762 47.0846 70.9511 47.1545 71.1579 47.237C71.6736 47.4451 72.2086 47.6761 72.746 47.9224C74.4823 48.7157 75.9632 49.5255 77.2705 50.3975C79.1944 51.6795 80.5106 52.9691 81.1834 54.2333C81.4438 51.9181 81.7247 49.6359 82.0158 47.4489C82.1396 46.5173 82.2851 45.4358 82.446 44.3696C82.4524 44.3303 82.4856 44.3011 82.5251 44.2998L83.0447 44.2884C82.9439 43.6436 82.8507 42.9861 82.7664 42.3324C82.7128 41.9199 82.6771 41.6026 82.6477 41.3017C82.6247 41.072 82.5966 40.7851 82.5966 40.5198C82.5966 40.2609 82.6388 39.9626 82.7281 39.5806C82.8277 39.1554 82.9732 38.6997 83.1711 38.1843C83.3958 37.6017 83.6677 37.0014 84.0009 36.3515C84.375 35.6204 84.7989 34.8855 85.2942 34.1023C85.3057 34.0845 85.3235 34.0718 85.3453 34.0668C85.367 34.0617 85.3887 34.0655 85.4065 34.0769C85.4257 34.0883 85.4384 34.1061 85.4423 34.1277C85.4474 34.1493 85.4436 34.1708 85.4321 34.1886C84.9393 34.9667 84.5193 35.6978 84.1465 36.4251C83.8158 37.0712 83.5465 37.6652 83.323 38.2427C83.1277 38.7505 82.9847 39.1998 82.8864 39.6174C82.7996 39.988 82.7588 40.2749 82.7588 40.5198C82.7588 40.7775 82.7856 41.0479 82.8086 41.2852C82.8379 41.5822 82.8749 41.8983 82.9273 42.3108C83.0115 42.9696 83.106 43.6334 83.2081 44.2846L89.6795 44.1475C89.7216 44.1462 89.7586 44.178 89.7625 44.2198C89.8952 45.4511 90.0216 46.6924 90.1289 47.7599C90.425 50.6971 90.7174 53.7472 90.997 56.8252C91.3583 60.8095 91.6851 64.6999 91.9685 68.391C91.9698 68.4126 91.9634 68.4342 91.9493 68.4507C91.9353 68.4672 91.9149 68.4773 91.8932 68.4786C91.8715 68.4799 91.8498 68.4735 91.8332 68.4596C91.8166 68.4456 91.8064 68.4253 91.8051 68.4037C91.5217 64.7113 91.1948 60.8209 90.8336 56.8404C90.554 53.7599 90.2616 50.711 89.9654 47.7777C89.8608 46.7343 89.7369 45.5209 89.6067 44.3138L82.5941 44.4623C82.4383 45.5031 82.2953 46.5604 82.1753 47.4718C81.874 49.7362 81.5842 52.1034 81.3149 54.5087C81.3187 54.5265 81.3174 54.5456 81.3085 54.5621C81.2766 54.8426 81.2459 55.1231 81.2153 55.4036C80.7991 59.2013 80.4468 62.961 80.1685 66.5785C79.8161 71.1594 79.5914 75.348 79.4791 79.3857C79.3718 83.2418 79.3757 86.7069 79.4893 89.9767C79.5518 91.7575 79.6438 93.4012 79.7727 94.9993C79.908 96.6823 80.074 98.2169 80.2821 99.6906C80.5004 101.237 80.7506 102.626 81.0468 103.939C81.357 105.311 81.7017 106.519 82.0975 107.633C82.9286 109.966 83.9614 111.74 85.1691 112.908C85.1844 112.923 85.1933 112.943 85.1933 112.965C85.1933 112.986 85.1857 113.007 85.1704 113.023C85.1563 113.038 85.1359 113.047 85.1129 113.047C85.1142 113.047 85.1142 113.047 85.1129 113.047ZM68.2101 30.6917C68.2088 30.6917 68.2075 30.6917 68.205 30.6917C68.1986 30.693 68.1922 30.6968 68.1884 30.7019C68.1846 30.7082 68.1833 30.7145 68.1846 30.7209C68.6276 33.2379 69.5021 35.6813 70.7851 37.9838C71.1872 38.706 71.6149 39.3851 72.0541 40.0007C72.22 40.2343 72.4001 40.4805 72.5877 40.7039L72.5979 40.7153L72.5928 40.7306L70.471 47.0593C70.4659 47.0732 70.4736 47.0872 70.4864 47.0923C70.7047 47.1722 70.9255 47.2611 71.1145 47.3372C71.629 47.5454 72.1626 47.7751 72.6988 48.0201C74.4312 48.8109 75.9057 49.6182 77.2092 50.4864C79.2365 51.8382 80.5795 53.1925 81.2025 54.5138L81.2064 54.5214L81.2051 54.5291C81.1732 54.8159 81.1413 55.1028 81.1093 55.3896C80.6932 59.1874 80.3408 62.9483 80.0625 66.5683C79.7101 71.1505 79.4842 75.3417 79.3718 79.3806C79.2646 83.2392 79.2684 86.7057 79.382 89.9779C79.4446 91.7613 79.5378 93.405 79.6655 95.0056C79.8008 96.6899 79.9667 98.2271 80.1748 99.7033C80.3931 101.253 80.6434 102.645 80.9421 103.96C81.2536 105.336 81.5983 106.55 81.9966 107.667C82.8443 110.048 83.858 111.787 85.0938 112.983C85.0989 112.988 85.104 112.993 85.1129 112.99C85.1193 112.99 85.1269 112.988 85.1308 112.983C85.1359 112.978 85.1384 112.971 85.1384 112.964C85.1384 112.957 85.1359 112.95 85.1308 112.946C83.9001 111.755 82.8915 110.023 82.0464 107.649C81.6494 106.533 81.3047 105.322 80.9932 103.949C80.6957 102.635 80.4455 101.244 80.2272 99.6956C80.0191 98.2207 79.8531 96.6849 79.7178 95.0005C79.5901 93.4012 79.4969 91.7575 79.4344 89.9754C79.3195 86.7044 79.3156 83.238 79.4242 79.3806C79.5365 75.343 79.7625 71.153 80.1148 66.5709C80.3931 62.9521 80.7455 59.1924 81.1617 55.3934C81.1923 55.1117 81.2242 54.8286 81.2549 54.5468L81.2587 54.5354C81.2625 54.5291 81.2638 54.5214 81.2613 54.5151L81.26 54.51L81.2613 54.5037C81.5306 52.0958 81.8204 49.726 82.1217 47.4604C82.2443 46.5427 82.3873 45.4752 82.5443 44.4267L82.5481 44.4039H82.5711L89.659 44.2541L89.6616 44.2795C89.7931 45.4968 89.9169 46.7191 90.0229 47.7701C90.3191 50.7034 90.6114 53.7535 90.891 56.8341C91.2523 60.8146 91.5791 64.7063 91.8625 68.3986C91.8625 68.405 91.8664 68.4113 91.8715 68.4164C91.8766 68.4215 91.883 68.4228 91.8906 68.4228C91.897 68.4228 91.9034 68.4189 91.9085 68.4139C91.9136 68.4088 91.9149 68.4025 91.9149 68.3948C91.6315 64.705 91.3046 60.8133 90.9434 56.8303C90.6638 53.7522 90.3714 50.7034 90.0752 47.7663C89.968 46.6988 89.8416 45.4574 89.7088 44.2262C89.7076 44.2122 89.6961 44.2046 89.682 44.2033L83.1609 44.3417L83.1571 44.3176C83.0537 43.6588 82.9579 42.9861 82.8724 42.3184C82.8188 41.9059 82.783 41.5886 82.7537 41.2916C82.7307 41.0517 82.7039 40.7801 82.7039 40.5198C82.7039 40.2698 82.7447 39.9791 82.8328 39.6047C82.9311 39.1845 83.0754 38.7327 83.272 38.2224C83.4954 37.6436 83.766 37.0471 84.098 36.3997C84.4707 35.6724 84.892 34.9388 85.3861 34.1594C85.3899 34.1531 85.3912 34.1467 85.3899 34.1404C85.3887 34.134 85.3848 34.1277 85.3784 34.1239C85.3721 34.1201 85.3657 34.1188 85.3593 34.1201C85.3529 34.1213 85.3465 34.1251 85.3427 34.1315C84.8486 34.9134 84.4261 35.647 84.052 36.3756C83.7188 37.0242 83.4482 37.622 83.2247 38.2034C83.0269 38.7149 82.8826 39.1693 82.783 39.592C82.6937 39.9702 82.6528 40.2647 82.6528 40.5186C82.6528 40.7813 82.6809 41.0656 82.7039 41.2954C82.7332 41.5949 82.7703 41.9123 82.8226 42.3248C82.9081 42.9886 83.0026 43.6563 83.1047 44.3112L83.1098 44.343L82.5264 44.3557C82.5136 44.3557 82.5034 44.3645 82.5009 44.3772C82.34 45.4434 82.1945 46.5249 82.0707 47.4565C81.7758 49.6715 81.4923 51.9841 81.2281 54.331L81.2178 54.4237L81.1757 54.3412C80.5195 53.0605 79.1956 51.7493 77.2385 50.4457C75.9338 49.575 74.4555 48.7677 72.7218 47.9757C72.1843 47.7307 71.6507 47.4997 71.1349 47.2915C70.9191 47.204 70.7379 47.1316 70.554 47.0643L70.5285 47.0554L70.5374 47.0301L72.6516 40.7179C72.6528 40.7141 72.6528 40.709 72.6528 40.7052C72.6516 40.7014 72.6503 40.6976 72.6477 40.6937C72.455 40.4665 72.2686 40.2127 72.0975 39.9715C71.6596 39.3572 71.2332 38.6806 70.8323 37.9597C69.5531 35.6623 68.6799 33.2239 68.2382 30.7133C68.2344 30.7006 68.2229 30.6917 68.2101 30.6917Z" fill="#A7D1F3"/>
<path fill-rule="evenodd" clip-rule="evenodd" d="M87.7148 18.6626C87.7901 18.8606 87.8808 19.0599 87.9701 19.2516C88.1642 19.6653 88.385 20.0779 88.6404 20.4587C88.7923 20.6859 88.9595 20.908 89.1497 21.1047C89.1702 21.1263 89.1689 21.1606 89.1485 21.1809C89.1268 21.2012 89.0923 21.2012 89.0719 21.1796C88.8778 20.9778 88.7055 20.7506 88.551 20.5183C88.2931 20.1324 88.0697 19.7161 87.8731 19.2972C87.7825 19.103 87.6918 18.9012 87.6139 18.7007C87.6037 18.6728 87.6178 18.6423 87.6446 18.6309C87.6727 18.6207 87.7033 18.6347 87.7148 18.6626Z" fill="#3F4553"/>
<path d="M89.1101 21.2989C89.1089 21.2989 89.1076 21.2989 89.1063 21.2989C89.0642 21.2977 89.0246 21.2812 88.9952 21.2507C88.8165 21.0641 88.6416 20.8445 88.4629 20.5754C88.2229 20.2162 87.9982 19.8126 87.7773 19.3404C87.6624 19.0967 87.582 18.9101 87.5156 18.7362C87.5003 18.6969 87.5016 18.6537 87.5194 18.6156C87.5373 18.5776 87.568 18.5484 87.6075 18.5331C87.6471 18.5179 87.6905 18.5192 87.7288 18.5369C87.7671 18.5547 87.7965 18.5852 87.8118 18.6245C87.8756 18.7908 87.9535 18.971 88.0646 19.2071C88.279 19.6653 88.4961 20.055 88.7271 20.4003C88.8969 20.6529 89.0591 20.8598 89.225 21.0324C89.285 21.0958 89.2838 21.1961 89.2199 21.2558C89.1906 21.2837 89.1523 21.2989 89.1101 21.2989Z" fill="#3F4553"/>
<path fill-rule="evenodd" clip-rule="evenodd" d="M80.9741 16.4338C81.1656 16.4732 81.3583 16.5087 81.5511 16.543C81.9686 16.6179 82.3899 16.6852 82.8099 16.7385C83.0844 16.7727 83.3614 16.8019 83.6384 16.8184C83.8554 16.8311 84.0903 16.8375 84.3061 16.8121C84.3355 16.8083 84.3623 16.8299 84.3661 16.8591C84.3699 16.8882 84.3482 16.9149 84.3189 16.9187C84.0967 16.9454 83.8554 16.9377 83.632 16.9251C83.3524 16.9098 83.0729 16.8794 82.7958 16.8451C82.3733 16.7918 81.9507 16.7245 81.5307 16.6496C81.3379 16.6153 81.1438 16.5798 80.9511 16.5405C80.9217 16.5341 80.9026 16.5062 80.9089 16.477C80.9166 16.4465 80.946 16.4275 80.9741 16.4338Z" fill="#3F4553"/>
<path d="M83.978 17.0405C83.8568 17.0405 83.7367 17.0354 83.6282 17.0291C83.378 17.0151 83.1099 16.9885 82.7844 16.9479C82.395 16.8984 81.9801 16.8349 81.5141 16.7511C81.3533 16.7219 81.1426 16.6838 80.932 16.6407C80.8464 16.6229 80.7915 16.5391 80.8081 16.4541C80.8171 16.4122 80.8413 16.3767 80.8771 16.3538C80.9128 16.331 80.9549 16.3234 80.9958 16.331C81.195 16.3716 81.3979 16.4084 81.5703 16.4401C82.0299 16.5226 82.4397 16.5861 82.824 16.6343C83.1431 16.675 83.4035 16.7003 83.6461 16.713C83.8478 16.7245 84.0827 16.7333 84.2959 16.708C84.3381 16.7029 84.3789 16.7143 84.4134 16.741C84.4466 16.7676 84.4683 16.8044 84.4734 16.8463C84.4836 16.9326 84.421 17.0113 84.3342 17.0215C84.2155 17.0354 84.0955 17.0405 83.978 17.0405Z" fill="#3F4553"/>
<path fill-rule="evenodd" clip-rule="evenodd" d="M86.9562 24.0926C86.96 24.2449 86.9766 24.4049 86.9958 24.5546C87.0366 24.877 87.1056 25.2058 87.2167 25.5117C87.3137 25.777 87.4541 26.0549 87.6622 26.2504C87.6839 26.2707 87.6852 26.305 87.6648 26.3266C87.6443 26.3482 87.6099 26.3494 87.5882 26.3291C87.366 26.1209 87.2179 25.8315 87.1145 25.5485C87.0009 25.2363 86.9307 24.8986 86.8886 24.5686C86.8681 24.415 86.8515 24.2513 86.8477 24.0952C86.8464 24.066 86.8707 24.0406 86.9 24.0406C86.9307 24.0393 86.9549 24.0634 86.9562 24.0926Z" fill="#3F4553"/>
<path d="M87.6253 26.4472C87.5857 26.4472 87.5474 26.4332 87.5167 26.404C87.3138 26.2136 87.1453 25.9369 87.0163 25.584C86.9104 25.2934 86.8325 24.9557 86.784 24.5826C86.7597 24.3909 86.7457 24.2373 86.7431 24.099C86.7418 24.0571 86.7572 24.0165 86.7865 23.986C86.8159 23.9555 86.8555 23.9378 86.8976 23.9378C86.9397 23.9352 86.9806 23.9517 87.0112 23.9809C87.0418 24.0101 87.0597 24.0495 87.061 24.0913C87.0635 24.2183 87.0763 24.3617 87.0993 24.5432C87.144 24.8948 87.2167 25.2083 87.315 25.4774C87.4261 25.7846 87.5678 26.0194 87.7338 26.1755C87.7976 26.2352 87.8001 26.3355 87.7401 26.3989C87.7095 26.4307 87.6674 26.4472 87.6253 26.4472Z" fill="#3F4553"/>
<path fill-rule="evenodd" clip-rule="evenodd" d="M78.1793 20.418C78.284 20.4967 78.4027 20.5716 78.5151 20.6402C78.8036 20.8153 79.1087 20.9702 79.4202 21.1009C80.3573 21.4969 81.3863 21.695 82.405 21.5807C82.4344 21.5769 82.4612 21.5985 82.465 21.6277C82.4689 21.6569 82.4472 21.6835 82.4178 21.6873C81.3811 21.8041 80.3343 21.6036 79.3794 21.1999C79.0627 21.0667 78.7538 20.9093 78.4602 20.7316C78.3453 20.6618 78.2227 20.5843 78.1155 20.5031C78.0912 20.4853 78.0874 20.451 78.1052 20.4282C78.1218 20.4041 78.155 20.4003 78.1793 20.418Z" fill="#3F4553"/>
<path d="M81.8293 21.8232C81.0123 21.8232 80.162 21.6442 79.3373 21.2952C79.0105 21.1568 78.6977 20.9969 78.4054 20.8192C78.2956 20.7519 78.1666 20.6719 78.0517 20.5856C77.9815 20.5323 77.9687 20.4333 78.0211 20.3648C78.0466 20.3318 78.0836 20.3102 78.1258 20.3038C78.1679 20.2975 78.21 20.3089 78.2432 20.3343C78.3466 20.413 78.4666 20.4879 78.57 20.5501C78.8484 20.7189 79.1484 20.8725 79.4611 21.0045C80.4403 21.4183 81.454 21.582 82.3923 21.4767C82.4344 21.4716 82.4753 21.4843 82.5085 21.5097C82.5417 21.5363 82.5621 21.5731 82.5672 21.615C82.5774 21.7013 82.5149 21.78 82.4281 21.7902C82.2315 21.813 82.031 21.8232 81.8293 21.8232Z" fill="#3F4553"/>
<path fill-rule="evenodd" clip-rule="evenodd" d="M76.7994 32.6375C77.0228 32.7416 77.2833 32.9878 77.4403 33.1693C77.9343 33.7392 78.2139 34.4818 78.3518 35.2129C78.3569 35.2421 78.3378 35.27 78.3084 35.2751C78.279 35.2802 78.251 35.2611 78.2458 35.2319C78.1105 34.5199 77.8399 33.7938 77.3586 33.2391C77.2335 33.0944 77.0905 32.9586 76.9347 32.8469C76.8811 32.8088 76.8147 32.7631 76.7547 32.7352C76.7279 32.7225 76.7164 32.6908 76.7292 32.6641C76.7394 32.6362 76.7726 32.6248 76.7994 32.6375Z" fill="#3F4553"/>
<path d="M78.2994 35.3792C78.2241 35.3792 78.1577 35.3258 78.1437 35.251C77.993 34.4576 77.6943 33.7849 77.2794 33.3064C77.1492 33.1566 77.0126 33.0297 76.8734 32.9294C76.83 32.8977 76.7649 32.8532 76.71 32.8279C76.6717 32.8101 76.6424 32.7784 76.6283 32.739C76.6143 32.6997 76.6155 32.6565 76.6334 32.6184C76.6513 32.5803 76.6832 32.5512 76.7228 32.5372C76.7624 32.5232 76.8058 32.5245 76.8441 32.5423C77.0815 32.6527 77.3483 32.9027 77.5194 33.0995C77.9764 33.6275 78.2918 34.3307 78.4552 35.1913C78.4628 35.2332 78.4539 35.2751 78.4309 35.3093C78.4067 35.3436 78.3709 35.3677 78.3288 35.3753C78.3186 35.3792 78.3084 35.3792 78.2994 35.3792ZM76.7968 32.64C76.7968 32.64 76.7981 32.64 76.7968 32.64C76.7968 32.64 76.7981 32.64 76.7968 32.64Z" fill="#3F4553"/>
<path fill-rule="evenodd" clip-rule="evenodd" d="M84.5932 26.2288C84.3379 27.0463 84.0698 27.8637 83.7889 28.6735C83.6013 29.2155 83.406 29.7638 83.1864 30.2931C83.1111 30.4746 83.0306 30.6625 82.9361 30.8338C82.8978 30.9037 82.811 31.0623 82.7204 31.0725C82.4625 31.1004 82.1983 30.9976 81.9825 30.8656C81.5663 30.6117 81.2025 30.189 80.9203 29.8006C80.9025 29.7765 80.9088 29.7435 80.9318 29.7258C80.9561 29.708 80.9893 29.7143 81.0071 29.7372C81.2803 30.1129 81.6365 30.5279 82.0387 30.7729C82.234 30.891 82.4753 30.99 82.7076 30.9646C82.7459 30.9519 82.834 30.7945 82.8532 30.759C82.9451 30.5889 83.023 30.4048 83.097 30.2259C83.3128 29.7054 83.503 29.1673 83.6881 28.6354C83.969 27.8269 84.2358 27.0107 84.4911 26.1946C84.5 26.1666 84.5307 26.1501 84.5588 26.159C84.5868 26.1705 84.6022 26.2009 84.5932 26.2288Z" fill="#3F4553"/>
<path d="M82.6349 31.1829C82.4154 31.1829 82.1728 31.1055 81.9277 30.957C81.5689 30.7387 81.2115 30.3807 80.8349 29.8641C80.8106 29.8298 80.8004 29.788 80.8068 29.7473C80.8132 29.7055 80.8362 29.6686 80.8706 29.6445C80.9421 29.5938 81.0404 29.609 81.0928 29.6801C81.4387 30.1548 81.7758 30.4937 82.0936 30.6879C82.2405 30.7767 82.4562 30.8783 82.6643 30.8669C82.6873 30.8377 82.7281 30.7742 82.7601 30.7133C82.852 30.5432 82.9311 30.3541 83.0001 30.1903C83.2222 29.6521 83.4201 29.0898 83.5886 28.6062C83.8618 27.818 84.1324 26.998 84.3903 26.1679C84.4031 26.1273 84.4299 26.0943 84.4682 26.0753C84.5052 26.055 84.5486 26.0511 84.5895 26.0638C84.6291 26.0765 84.6622 26.1032 84.6827 26.1413C84.7031 26.1781 84.7069 26.2212 84.6942 26.2619C84.435 27.0945 84.1631 27.9183 83.8886 28.7091C83.7163 29.2079 83.512 29.7854 83.2835 30.335C83.2082 30.5153 83.1265 30.7069 83.0282 30.8859C82.9477 31.0306 82.8584 31.1639 82.7332 31.1778C82.7 31.1804 82.6681 31.1829 82.6349 31.1829Z" fill="#3F4553"/>
</svg>
