<svg width="1070" height="1070" viewBox="0 0 1070 1070" fill="none" xmlns="http://www.w3.org/2000/svg">
<path fill-rule="evenodd" clip-rule="evenodd" d="M1.75663 477.909C5.46397 442.756 12.6415 407.899 23.2892 373.894L373.894 23.2892C407.899 12.6415 442.756 5.46399 477.909 1.75663L1.75663 477.909ZM166.764 923.944C181.109 937.497 196.019 950.107 211.415 961.774L961.774 211.415C950.107 196.019 937.497 181.109 923.944 166.764L166.764 923.944ZM320.81 1025.76C302.14 1017.65 283.837 1008.43 266.002 998.086L998.086 266.002C1008.43 283.837 1017.65 302.14 1025.76 320.81L320.81 1025.76ZM387.79 1049.68C410.145 1056.02 432.832 1060.88 455.695 1064.26L1064.26 455.695C1060.88 432.832 1056.02 410.145 1049.68 387.79L387.79 1049.68ZM632.256 1061.08C602.054 1066.66 571.465 1069.63 540.851 1070L1070 540.851C1069.63 571.465 1066.66 602.054 1061.08 632.256L632.256 1061.08ZM767.32 1016.91C820.028 991.467 869.432 956.882 913.157 913.157C956.882 869.432 991.467 820.028 1016.91 767.32L767.32 1016.91ZM877.098 122.71L122.71 877.098C109.993 861.856 98.2544 846.072 87.4947 829.832L829.832 87.4946C846.073 98.2544 861.856 109.993 877.098 122.71ZM54.2757 772.152L772.152 54.2757C753.24 44.9088 733.89 36.7279 714.213 29.7328L29.7328 714.213C36.7279 733.89 44.9089 753.24 54.2757 772.152ZM9.8814 643.165C4.93119 619.178 1.63738 594.916 1.08212e-05 570.565L570.565 -8.7601e-06C594.916 1.63737 619.178 4.93118 643.165 9.88138L9.8814 643.165Z" fill="#4044ED"/>
</svg>
